<svg xmlns="http://www.w3.org/2000/svg" xmlns:xlink="http://www.w3.org/1999/xlink" width="100" zoomAndPan="magnify" viewBox="0 0 75 37.5" height="50" preserveAspectRatio="xMidYMid meet" version="1.0"><defs><g/><clipPath id="3797e2718c"><path d="M 0.492188 0 L 74.503906 0 L 74.503906 37.007812 L 0.492188 37.007812 Z M 0.492188 0 " clip-rule="nonzero"/></clipPath><clipPath id="14f3b50c5d"><path d="M 15.140625 7.398438 L 30.683594 7.398438 L 30.683594 13 L 15.140625 13 Z M 15.140625 7.398438 " clip-rule="nonzero"/></clipPath><clipPath id="5f267627fa"><path d="M 17 16 L 20 16 L 20 19.238281 L 17 19.238281 Z M 17 16 " clip-rule="nonzero"/></clipPath></defs><g clip-path="url(#3797e2718c)"><path fill="#ffffff" d="M 0.492188 0 L 74.507812 0 L 74.507812 37.007812 L 0.492188 37.007812 Z M 0.492188 0 " fill-opacity="1" fill-rule="nonzero"/><path fill="#ffffff" d="M 0.492188 0 L 74.507812 0 L 74.507812 37.007812 L 0.492188 37.007812 Z M 0.492188 0 " fill-opacity="1" fill-rule="nonzero"/></g><g fill="#000000" fill-opacity="1"><g transform="translate(1.812884, 27.321534)"><g><path d="M 4.609375 -12.625 C 5.140625 -13.40625 5.78125 -13.929688 6.53125 -14.203125 C 7.289062 -14.472656 8.125 -14.609375 9.03125 -14.609375 C 10.5 -14.609375 11.691406 -14.320312 12.609375 -13.75 C 13.523438 -13.1875 14.195312 -12.390625 14.625 -11.359375 C 15.0625 -10.335938 15.28125 -9.132812 15.28125 -7.75 L 15.28125 0 L 12.703125 0 L 12.703125 -7.71875 C 12.703125 -8.625 12.597656 -9.421875 12.390625 -10.109375 C 12.191406 -10.804688 11.8125 -11.34375 11.25 -11.71875 C 10.6875 -12.101562 9.882812 -12.296875 8.84375 -12.296875 C 7.9375 -12.296875 7.164062 -12.097656 6.53125 -11.703125 C 5.90625 -11.304688 5.425781 -10.769531 5.09375 -10.09375 C 4.769531 -9.414062 4.609375 -8.660156 4.609375 -7.828125 L 4.609375 0 L 2 0 L 2 -14.40625 L 4.609375 -14.40625 Z M 4.609375 -12.625 "/></g></g></g><g fill="#000000" fill-opacity="1"><g transform="translate(17.737611, 27.321534)"><g><path d="M 3.8125 -10.25 C 3.8125 -9.800781 3.921875 -9.453125 4.140625 -9.203125 C 4.359375 -8.960938 4.644531 -8.785156 5 -8.671875 C 5.351562 -8.566406 5.722656 -8.5 6.109375 -8.46875 C 6.492188 -8.445312 6.84375 -8.425781 7.15625 -8.40625 C 7.832031 -8.351562 8.507812 -8.25 9.1875 -8.09375 C 9.875 -7.945312 10.5 -7.71875 11.0625 -7.40625 C 11.632812 -7.101562 12.09375 -6.679688 12.4375 -6.140625 C 12.789062 -5.597656 12.96875 -4.914062 12.96875 -4.09375 C 12.96875 -3.257812 12.785156 -2.5625 12.421875 -2 C 12.054688 -1.445312 11.578125 -1.003906 10.984375 -0.671875 C 10.390625 -0.347656 9.734375 -0.117188 9.015625 0.015625 C 8.304688 0.160156 7.617188 0.234375 6.953125 0.234375 C 5.953125 0.234375 5.015625 0.0820312 4.140625 -0.21875 C 3.265625 -0.519531 2.539062 -1.007812 1.96875 -1.6875 C 1.40625 -2.375 1.085938 -3.285156 1.015625 -4.421875 L 3.625 -4.421875 C 3.675781 -3.617188 4.03125 -3.019531 4.6875 -2.625 C 5.34375 -2.226562 6.113281 -2.03125 7 -2.03125 C 7.445312 -2.03125 7.925781 -2.085938 8.4375 -2.203125 C 8.957031 -2.316406 9.40625 -2.523438 9.78125 -2.828125 C 10.164062 -3.140625 10.359375 -3.582031 10.359375 -4.15625 C 10.359375 -4.5625 10.238281 -4.882812 10 -5.125 C 9.757812 -5.363281 9.453125 -5.550781 9.078125 -5.6875 C 8.703125 -5.820312 8.316406 -5.914062 7.921875 -5.96875 C 7.535156 -6.019531 7.1875 -6.054688 6.875 -6.078125 C 6.226562 -6.109375 5.570312 -6.1875 4.90625 -6.3125 C 4.238281 -6.445312 3.625 -6.664062 3.0625 -6.96875 C 2.507812 -7.269531 2.0625 -7.679688 1.71875 -8.203125 C 1.382812 -8.734375 1.21875 -9.398438 1.21875 -10.203125 C 1.21875 -11.316406 1.5 -12.203125 2.0625 -12.859375 C 2.632812 -13.515625 3.363281 -13.984375 4.25 -14.265625 C 5.144531 -14.554688 6.050781 -14.703125 6.96875 -14.703125 C 7.925781 -14.703125 8.8125 -14.554688 9.625 -14.265625 C 10.445312 -13.984375 11.125 -13.53125 11.65625 -12.90625 C 12.1875 -12.289062 12.484375 -11.476562 12.546875 -10.46875 L 9.953125 -10.46875 C 9.878906 -11.101562 9.546875 -11.578125 8.953125 -11.890625 C 8.359375 -12.203125 7.671875 -12.359375 6.890625 -12.359375 C 6.097656 -12.359375 5.382812 -12.191406 4.75 -11.859375 C 4.125 -11.535156 3.8125 -11 3.8125 -10.25 Z M 3.8125 -10.25 "/></g></g></g><g fill="#000000" fill-opacity="1"><g transform="translate(30.280304, 27.321534)"><g><path d="M 3.8125 -10.25 C 3.8125 -9.800781 3.921875 -9.453125 4.140625 -9.203125 C 4.359375 -8.960938 4.644531 -8.785156 5 -8.671875 C 5.351562 -8.566406 5.722656 -8.5 6.109375 -8.46875 C 6.492188 -8.445312 6.84375 -8.425781 7.15625 -8.40625 C 7.832031 -8.351562 8.507812 -8.25 9.1875 -8.09375 C 9.875 -7.945312 10.5 -7.71875 11.0625 -7.40625 C 11.632812 -7.101562 12.09375 -6.679688 12.4375 -6.140625 C 12.789062 -5.597656 12.96875 -4.914062 12.96875 -4.09375 C 12.96875 -3.257812 12.785156 -2.5625 12.421875 -2 C 12.054688 -1.445312 11.578125 -1.003906 10.984375 -0.671875 C 10.390625 -0.347656 9.734375 -0.117188 9.015625 0.015625 C 8.304688 0.160156 7.617188 0.234375 6.953125 0.234375 C 5.953125 0.234375 5.015625 0.0820312 4.140625 -0.21875 C 3.265625 -0.519531 2.539062 -1.007812 1.96875 -1.6875 C 1.40625 -2.375 1.085938 -3.285156 1.015625 -4.421875 L 3.625 -4.421875 C 3.675781 -3.617188 4.03125 -3.019531 4.6875 -2.625 C 5.34375 -2.226562 6.113281 -2.03125 7 -2.03125 C 7.445312 -2.03125 7.925781 -2.085938 8.4375 -2.203125 C 8.957031 -2.316406 9.40625 -2.523438 9.78125 -2.828125 C 10.164062 -3.140625 10.359375 -3.582031 10.359375 -4.15625 C 10.359375 -4.5625 10.238281 -4.882812 10 -5.125 C 9.757812 -5.363281 9.453125 -5.550781 9.078125 -5.6875 C 8.703125 -5.820312 8.316406 -5.914062 7.921875 -5.96875 C 7.535156 -6.019531 7.1875 -6.054688 6.875 -6.078125 C 6.226562 -6.109375 5.570312 -6.1875 4.90625 -6.3125 C 4.238281 -6.445312 3.625 -6.664062 3.0625 -6.96875 C 2.507812 -7.269531 2.0625 -7.679688 1.71875 -8.203125 C 1.382812 -8.734375 1.21875 -9.398438 1.21875 -10.203125 C 1.21875 -11.316406 1.5 -12.203125 2.0625 -12.859375 C 2.632812 -13.515625 3.363281 -13.984375 4.25 -14.265625 C 5.144531 -14.554688 6.050781 -14.703125 6.96875 -14.703125 C 7.925781 -14.703125 8.8125 -14.554688 9.625 -14.265625 C 10.445312 -13.984375 11.125 -13.53125 11.65625 -12.90625 C 12.1875 -12.289062 12.484375 -11.476562 12.546875 -10.46875 L 9.953125 -10.46875 C 9.878906 -11.101562 9.546875 -11.578125 8.953125 -11.890625 C 8.359375 -12.203125 7.671875 -12.359375 6.890625 -12.359375 C 6.097656 -12.359375 5.382812 -12.191406 4.75 -11.859375 C 4.125 -11.535156 3.8125 -11 3.8125 -10.25 Z M 3.8125 -10.25 "/></g></g></g><path fill="#e59c0c" d="M 16.839844 10.839844 L 17.0625 10.761719 L 16.8125 11.003906 Z M 16.839844 10.839844 " fill-opacity="1" fill-rule="nonzero"/><path fill="#330c26" d="M 27.589844 13.40625 C 27.648438 13.671875 26 14.292969 23.902344 14.792969 C 21.804688 15.292969 20.046875 15.484375 19.988281 15.21875 C 19.929688 14.957031 21.59375 14.332031 23.6875 13.832031 C 25.785156 13.332031 27.53125 13.140625 27.589844 13.40625 Z M 27.589844 13.40625 " fill-opacity="1" fill-rule="nonzero"/><g clip-path="url(#14f3b50c5d)"><path fill="#7c2c5d" d="M 30.195312 8.335938 L 22.359375 7.402344 L 15.378906 11.828125 C 15.222656 11.929688 15.140625 12.125 15.183594 12.3125 L 15.203125 12.402344 L 23.195312 12.320312 L 30.683594 8.789062 C 30.628906 8.546875 30.433594 8.367188 30.195312 8.335938 Z M 30.195312 8.335938 " fill-opacity="1" fill-rule="nonzero"/><path fill="#441131" d="M 15.203125 12.402344 L 22.445312 7.792969 L 30.683594 8.789062 L 23.285156 12.710938 Z M 15.203125 12.402344 " fill-opacity="1" fill-rule="nonzero"/></g><path fill="#70234f" d="M 27.59375 13.417969 L 27.394531 13.425781 C 24.847656 13.550781 22.324219 14.152344 19.980469 15.1875 L 19.980469 15.191406 L 19.167969 11.617188 L 19.40625 11.480469 C 21.5625 10.234375 23.992188 9.664062 26.460938 9.820312 L 26.78125 9.839844 Z M 27.59375 13.417969 " fill-opacity="1" fill-rule="nonzero"/><path fill="#601d46" d="M 26.78125 9.839844 L 26.460938 9.820312 C 25.078125 9.734375 23.707031 9.875 22.390625 10.234375 C 22.40625 10.25 22.421875 10.269531 22.429688 10.296875 C 22.660156 11.046875 22.722656 11.894531 22.332031 12.601562 C 21.984375 13.238281 21.378906 13.671875 20.738281 13.945312 C 20.425781 14.078125 20.101562 14.1875 19.769531 14.273438 L 19.980469 15.191406 L 19.980469 15.1875 C 22.324219 14.152344 24.847656 13.550781 27.394531 13.425781 L 27.59375 13.417969 Z M 26.78125 9.839844 " fill-opacity="1" fill-rule="nonzero"/><path fill="#511b3f" d="M 26.78125 9.839844 L 26.460938 9.820312 C 25.886719 9.785156 25.3125 9.789062 24.746094 9.832031 C 26.074219 11.941406 23.476562 13.53125 21.792969 14.117188 C 21.15625 14.339844 20.503906 14.488281 19.839844 14.578125 L 19.980469 15.191406 L 19.980469 15.1875 C 22.324219 14.152344 24.847656 13.550781 27.394531 13.425781 L 27.59375 13.417969 Z M 26.78125 9.839844 " fill-opacity="1" fill-rule="nonzero"/><g clip-path="url(#5f267627fa)"><path fill="#ffb208" d="M 17.746094 16.179688 L 18.15625 16.082031 L 19.269531 18.828125 C 18.890625 19.113281 18.417969 19.230469 17.953125 19.160156 L 17.902344 19.152344 Z M 17.746094 16.179688 " fill-opacity="1" fill-rule="nonzero"/><path fill="#f7931e" d="M 18.15625 16.082031 L 17.746094 16.179688 L 17.773438 16.714844 C 18.429688 16.675781 18.800781 17.679688 18.640625 18.273438 C 18.519531 18.714844 18.242188 18.996094 17.902344 19.132812 L 17.902344 19.152344 L 17.953125 19.160156 C 18.417969 19.230469 18.890625 19.113281 19.269531 18.828125 Z M 18.15625 16.082031 " fill-opacity="1" fill-rule="nonzero"/></g><path fill="#ffb208" d="M 17.972656 15.925781 L 17.84375 15.953125 L 16.714844 10.894531 C 16.714844 10.882812 16.722656 10.867188 16.734375 10.867188 L 16.839844 10.839844 Z M 17.972656 15.925781 " fill-opacity="1" fill-rule="nonzero"/><path fill="#d1541c" d="M 18.355469 16.050781 C 18.355469 16.171875 18.3125 16.273438 18.230469 16.359375 C 18.148438 16.445312 18.046875 16.484375 17.933594 16.484375 C 17.816406 16.484375 17.714844 16.445312 17.632812 16.359375 C 17.550781 16.273438 17.511719 16.171875 17.511719 16.050781 C 17.511719 15.929688 17.550781 15.824219 17.632812 15.742188 C 17.714844 15.65625 17.816406 15.613281 17.933594 15.613281 C 18.046875 15.613281 18.148438 15.65625 18.230469 15.742188 C 18.3125 15.824219 18.355469 15.929688 18.355469 16.050781 Z M 18.355469 16.050781 " fill-opacity="1" fill-rule="nonzero"/><g fill="#000000" fill-opacity="1"><g transform="translate(43.494803, 17.804043)"><g><path d="M 0.9375 -2.546875 C 1.039062 -2.703125 1.164062 -2.804688 1.3125 -2.859375 C 1.46875 -2.921875 1.640625 -2.953125 1.828125 -2.953125 C 2.117188 -2.953125 2.359375 -2.894531 2.546875 -2.78125 C 2.734375 -2.664062 2.867188 -2.503906 2.953125 -2.296875 C 3.035156 -2.085938 3.078125 -1.84375 3.078125 -1.5625 L 3.078125 0 L 2.5625 0 L 2.5625 -1.5625 C 2.5625 -1.738281 2.539062 -1.894531 2.5 -2.03125 C 2.457031 -2.175781 2.378906 -2.285156 2.265625 -2.359375 C 2.160156 -2.441406 2 -2.484375 1.78125 -2.484375 C 1.601562 -2.484375 1.445312 -2.441406 1.3125 -2.359375 C 1.1875 -2.273438 1.09375 -2.164062 1.03125 -2.03125 C 0.96875 -1.894531 0.9375 -1.742188 0.9375 -1.578125 L 0.9375 0 L 0.40625 0 L 0.40625 -2.90625 L 0.9375 -2.90625 Z M 0.9375 -2.546875 "/></g></g></g><g fill="#000000" fill-opacity="1"><g transform="translate(46.649129, 17.804043)"><g><path d="M 3.421875 0 L 2.890625 0 L 2.890625 -0.390625 C 2.828125 -0.285156 2.734375 -0.203125 2.609375 -0.140625 C 2.492188 -0.078125 2.367188 -0.03125 2.234375 0 C 2.109375 0.03125 1.984375 0.046875 1.859375 0.046875 C 1.523438 0.046875 1.238281 -0.0195312 1 -0.15625 C 0.769531 -0.300781 0.59375 -0.488281 0.46875 -0.71875 C 0.351562 -0.945312 0.296875 -1.195312 0.296875 -1.46875 C 0.296875 -1.726562 0.351562 -1.96875 0.46875 -2.1875 C 0.59375 -2.414062 0.769531 -2.597656 1 -2.734375 C 1.238281 -2.878906 1.519531 -2.953125 1.84375 -2.953125 C 1.96875 -2.953125 2.09375 -2.941406 2.21875 -2.921875 C 2.351562 -2.898438 2.476562 -2.859375 2.59375 -2.796875 C 2.71875 -2.734375 2.820312 -2.640625 2.90625 -2.515625 L 2.890625 -2.90625 L 3.421875 -2.90625 Z M 2.890625 -1.453125 C 2.890625 -1.691406 2.835938 -1.882812 2.734375 -2.03125 C 2.628906 -2.1875 2.492188 -2.300781 2.328125 -2.375 C 2.171875 -2.457031 2.007812 -2.5 1.84375 -2.5 C 1.632812 -2.5 1.453125 -2.453125 1.296875 -2.359375 C 1.140625 -2.265625 1.019531 -2.140625 0.9375 -1.984375 C 0.863281 -1.828125 0.828125 -1.65625 0.828125 -1.46875 C 0.828125 -1.28125 0.863281 -1.109375 0.9375 -0.953125 C 1.019531 -0.796875 1.140625 -0.664062 1.296875 -0.5625 C 1.453125 -0.46875 1.632812 -0.421875 1.84375 -0.421875 C 2.007812 -0.421875 2.171875 -0.457031 2.328125 -0.53125 C 2.492188 -0.601562 2.628906 -0.71875 2.734375 -0.875 C 2.835938 -1.03125 2.890625 -1.222656 2.890625 -1.453125 Z M 2.890625 -1.453125 "/></g></g></g><g fill="#000000" fill-opacity="1"><g transform="translate(50.093627, 17.804043)"><g><path d="M 1.09375 -2.90625 L 1.734375 -2.90625 L 1.734375 -2.484375 L 1.09375 -2.484375 L 1.09375 -0.84375 C 1.09375 -0.675781 1.128906 -0.5625 1.203125 -0.5 C 1.285156 -0.445312 1.394531 -0.421875 1.53125 -0.421875 C 1.5625 -0.421875 1.59375 -0.421875 1.625 -0.421875 C 1.664062 -0.429688 1.707031 -0.4375 1.75 -0.4375 L 1.75 0 C 1.707031 0.0078125 1.664062 0.015625 1.625 0.015625 C 1.582031 0.015625 1.539062 0.015625 1.5 0.015625 C 1.3125 0.015625 1.144531 -0.0078125 1 -0.0625 C 0.863281 -0.113281 0.753906 -0.203125 0.671875 -0.328125 C 0.597656 -0.453125 0.5625 -0.628906 0.5625 -0.859375 L 0.5625 -2.484375 L 0.125 -2.484375 L 0.125 -2.90625 L 0.5625 -2.90625 L 0.5625 -3.453125 L 1.09375 -3.546875 Z M 1.09375 -2.90625 "/></g></g></g><g fill="#000000" fill-opacity="1"><g transform="translate(51.614369, 17.804043)"><g><path d="M 0.375 -3.65625 C 0.375 -3.757812 0.40625 -3.832031 0.46875 -3.875 C 0.539062 -3.925781 0.617188 -3.953125 0.703125 -3.953125 C 0.785156 -3.953125 0.859375 -3.925781 0.921875 -3.875 C 0.992188 -3.832031 1.03125 -3.757812 1.03125 -3.65625 C 1.03125 -3.550781 0.992188 -3.472656 0.921875 -3.421875 C 0.859375 -3.367188 0.785156 -3.34375 0.703125 -3.34375 C 0.617188 -3.34375 0.539062 -3.367188 0.46875 -3.421875 C 0.40625 -3.472656 0.375 -3.550781 0.375 -3.65625 Z M 0.4375 -2.9375 L 0.4375 0 L 0.96875 0 L 0.96875 -2.9375 Z M 0.4375 -2.9375 "/></g></g></g><g fill="#000000" fill-opacity="1"><g transform="translate(52.732088, 17.804043)"><g><path d="M 3.40625 -1.453125 C 3.40625 -1.203125 3.363281 -0.984375 3.28125 -0.796875 C 3.195312 -0.609375 3.078125 -0.453125 2.921875 -0.328125 C 2.773438 -0.203125 2.609375 -0.109375 2.421875 -0.046875 C 2.234375 0.015625 2.039062 0.046875 1.84375 0.046875 C 1.644531 0.046875 1.453125 0.015625 1.265625 -0.046875 C 1.078125 -0.109375 0.910156 -0.203125 0.765625 -0.328125 C 0.617188 -0.453125 0.5 -0.609375 0.40625 -0.796875 C 0.320312 -0.984375 0.28125 -1.203125 0.28125 -1.453125 C 0.28125 -1.703125 0.320312 -1.921875 0.40625 -2.109375 C 0.5 -2.296875 0.617188 -2.453125 0.765625 -2.578125 C 0.921875 -2.703125 1.09375 -2.796875 1.28125 -2.859375 C 1.46875 -2.921875 1.660156 -2.953125 1.859375 -2.953125 C 2.054688 -2.953125 2.242188 -2.921875 2.421875 -2.859375 C 2.609375 -2.796875 2.773438 -2.703125 2.921875 -2.578125 C 3.078125 -2.453125 3.195312 -2.296875 3.28125 -2.109375 C 3.363281 -1.921875 3.40625 -1.703125 3.40625 -1.453125 Z M 0.8125 -1.453125 C 0.8125 -1.222656 0.859375 -1.03125 0.953125 -0.875 C 1.054688 -0.726562 1.1875 -0.613281 1.34375 -0.53125 C 1.507812 -0.457031 1.675781 -0.421875 1.84375 -0.421875 C 2.019531 -0.421875 2.1875 -0.457031 2.34375 -0.53125 C 2.5 -0.613281 2.628906 -0.726562 2.734375 -0.875 C 2.835938 -1.03125 2.890625 -1.222656 2.890625 -1.453125 C 2.890625 -1.679688 2.835938 -1.867188 2.734375 -2.015625 C 2.640625 -2.171875 2.507812 -2.285156 2.34375 -2.359375 C 2.1875 -2.441406 2.023438 -2.484375 1.859375 -2.484375 C 1.679688 -2.484375 1.507812 -2.441406 1.34375 -2.359375 C 1.1875 -2.285156 1.054688 -2.171875 0.953125 -2.015625 C 0.859375 -1.867188 0.8125 -1.679688 0.8125 -1.453125 Z M 0.8125 -1.453125 "/></g></g></g><g fill="#000000" fill-opacity="1"><g transform="translate(56.1336, 17.804043)"><g><path d="M 0.9375 -2.546875 C 1.039062 -2.703125 1.164062 -2.804688 1.3125 -2.859375 C 1.46875 -2.921875 1.640625 -2.953125 1.828125 -2.953125 C 2.117188 -2.953125 2.359375 -2.894531 2.546875 -2.78125 C 2.734375 -2.664062 2.867188 -2.503906 2.953125 -2.296875 C 3.035156 -2.085938 3.078125 -1.84375 3.078125 -1.5625 L 3.078125 0 L 2.5625 0 L 2.5625 -1.5625 C 2.5625 -1.738281 2.539062 -1.894531 2.5 -2.03125 C 2.457031 -2.175781 2.378906 -2.285156 2.265625 -2.359375 C 2.160156 -2.441406 2 -2.484375 1.78125 -2.484375 C 1.601562 -2.484375 1.445312 -2.441406 1.3125 -2.359375 C 1.1875 -2.273438 1.09375 -2.164062 1.03125 -2.03125 C 0.96875 -1.894531 0.9375 -1.742188 0.9375 -1.578125 L 0.9375 0 L 0.40625 0 L 0.40625 -2.90625 L 0.9375 -2.90625 Z M 0.9375 -2.546875 "/></g></g></g><g fill="#000000" fill-opacity="1"><g transform="translate(59.287926, 17.804043)"><g><path d="M 3.421875 0 L 2.890625 0 L 2.890625 -0.390625 C 2.828125 -0.285156 2.734375 -0.203125 2.609375 -0.140625 C 2.492188 -0.078125 2.367188 -0.03125 2.234375 0 C 2.109375 0.03125 1.984375 0.046875 1.859375 0.046875 C 1.523438 0.046875 1.238281 -0.0195312 1 -0.15625 C 0.769531 -0.300781 0.59375 -0.488281 0.46875 -0.71875 C 0.351562 -0.945312 0.296875 -1.195312 0.296875 -1.46875 C 0.296875 -1.726562 0.351562 -1.96875 0.46875 -2.1875 C 0.59375 -2.414062 0.769531 -2.597656 1 -2.734375 C 1.238281 -2.878906 1.519531 -2.953125 1.84375 -2.953125 C 1.96875 -2.953125 2.09375 -2.941406 2.21875 -2.921875 C 2.351562 -2.898438 2.476562 -2.859375 2.59375 -2.796875 C 2.71875 -2.734375 2.820312 -2.640625 2.90625 -2.515625 L 2.890625 -2.90625 L 3.421875 -2.90625 Z M 2.890625 -1.453125 C 2.890625 -1.691406 2.835938 -1.882812 2.734375 -2.03125 C 2.628906 -2.1875 2.492188 -2.300781 2.328125 -2.375 C 2.171875 -2.457031 2.007812 -2.5 1.84375 -2.5 C 1.632812 -2.5 1.453125 -2.453125 1.296875 -2.359375 C 1.140625 -2.265625 1.019531 -2.140625 0.9375 -1.984375 C 0.863281 -1.828125 0.828125 -1.65625 0.828125 -1.46875 C 0.828125 -1.28125 0.863281 -1.109375 0.9375 -0.953125 C 1.019531 -0.796875 1.140625 -0.664062 1.296875 -0.5625 C 1.453125 -0.46875 1.632812 -0.421875 1.84375 -0.421875 C 2.007812 -0.421875 2.171875 -0.457031 2.328125 -0.53125 C 2.492188 -0.601562 2.628906 -0.71875 2.734375 -0.875 C 2.835938 -1.03125 2.890625 -1.222656 2.890625 -1.453125 Z M 2.890625 -1.453125 "/></g></g></g><g fill="#000000" fill-opacity="1"><g transform="translate(62.732424, 17.804043)"><g><path d="M 0.40625 0 L 0.40625 -3.765625 L 0.9375 -3.765625 L 0.9375 0 Z M 0.40625 0 "/></g></g></g><g fill="#000000" fill-opacity="1"><g transform="translate(43.494803, 21.834236)"><g><path d="M 0.765625 -2.0625 C 0.765625 -1.976562 0.785156 -1.910156 0.828125 -1.859375 C 0.878906 -1.804688 0.941406 -1.769531 1.015625 -1.75 C 1.085938 -1.726562 1.160156 -1.710938 1.234375 -1.703125 C 1.304688 -1.703125 1.378906 -1.703125 1.453125 -1.703125 C 1.585938 -1.691406 1.722656 -1.671875 1.859375 -1.640625 C 1.992188 -1.609375 2.117188 -1.5625 2.234375 -1.5 C 2.347656 -1.4375 2.441406 -1.347656 2.515625 -1.234375 C 2.585938 -1.128906 2.625 -0.992188 2.625 -0.828125 C 2.625 -0.660156 2.582031 -0.519531 2.5 -0.40625 C 2.425781 -0.289062 2.328125 -0.195312 2.203125 -0.125 C 2.085938 -0.0625 1.957031 -0.0195312 1.8125 0 C 1.675781 0.03125 1.539062 0.046875 1.40625 0.046875 C 1.207031 0.046875 1.015625 0.015625 0.828125 -0.046875 C 0.648438 -0.109375 0.503906 -0.207031 0.390625 -0.34375 C 0.273438 -0.476562 0.210938 -0.660156 0.203125 -0.890625 L 0.734375 -0.890625 C 0.742188 -0.734375 0.8125 -0.613281 0.9375 -0.53125 C 1.070312 -0.445312 1.226562 -0.40625 1.40625 -0.40625 C 1.5 -0.40625 1.597656 -0.414062 1.703125 -0.4375 C 1.804688 -0.46875 1.894531 -0.515625 1.96875 -0.578125 C 2.050781 -0.640625 2.09375 -0.726562 2.09375 -0.84375 C 2.09375 -0.925781 2.066406 -0.988281 2.015625 -1.03125 C 1.972656 -1.082031 1.910156 -1.117188 1.828125 -1.140625 C 1.753906 -1.171875 1.675781 -1.191406 1.59375 -1.203125 C 1.519531 -1.210938 1.453125 -1.21875 1.390625 -1.21875 C 1.253906 -1.226562 1.117188 -1.242188 0.984375 -1.265625 C 0.859375 -1.296875 0.738281 -1.34375 0.625 -1.40625 C 0.507812 -1.46875 0.414062 -1.550781 0.34375 -1.65625 C 0.28125 -1.757812 0.25 -1.894531 0.25 -2.0625 C 0.25 -2.28125 0.304688 -2.457031 0.421875 -2.59375 C 0.535156 -2.726562 0.679688 -2.820312 0.859375 -2.875 C 1.035156 -2.9375 1.21875 -2.96875 1.40625 -2.96875 C 1.601562 -2.96875 1.78125 -2.9375 1.9375 -2.875 C 2.101562 -2.820312 2.238281 -2.734375 2.34375 -2.609375 C 2.457031 -2.484375 2.519531 -2.316406 2.53125 -2.109375 L 2.015625 -2.109375 C 1.992188 -2.242188 1.921875 -2.34375 1.796875 -2.40625 C 1.679688 -2.46875 1.546875 -2.5 1.390625 -2.5 C 1.234375 -2.5 1.085938 -2.460938 0.953125 -2.390625 C 0.828125 -2.328125 0.765625 -2.21875 0.765625 -2.0625 Z M 0.765625 -2.0625 "/></g></g></g><g fill="#000000" fill-opacity="1"><g transform="translate(45.966675, 21.834236)"><g><path d="M 1.09375 -2.90625 L 1.734375 -2.90625 L 1.734375 -2.484375 L 1.09375 -2.484375 L 1.09375 -0.84375 C 1.09375 -0.675781 1.128906 -0.5625 1.203125 -0.5 C 1.285156 -0.445312 1.394531 -0.421875 1.53125 -0.421875 C 1.5625 -0.421875 1.59375 -0.421875 1.625 -0.421875 C 1.664062 -0.429688 1.707031 -0.4375 1.75 -0.4375 L 1.75 0 C 1.707031 0.0078125 1.664062 0.015625 1.625 0.015625 C 1.582031 0.015625 1.539062 0.015625 1.5 0.015625 C 1.3125 0.015625 1.144531 -0.0078125 1 -0.0625 C 0.863281 -0.113281 0.753906 -0.203125 0.671875 -0.328125 C 0.597656 -0.453125 0.5625 -0.628906 0.5625 -0.859375 L 0.5625 -2.484375 L 0.125 -2.484375 L 0.125 -2.90625 L 0.5625 -2.90625 L 0.5625 -3.453125 L 1.09375 -3.546875 Z M 1.09375 -2.90625 "/></g></g></g><g fill="#000000" fill-opacity="1"><g transform="translate(47.487418, 21.834236)"><g><path d="M 2.546875 -0.375 C 2.441406 -0.21875 2.304688 -0.109375 2.140625 -0.046875 C 1.984375 0.015625 1.8125 0.046875 1.625 0.046875 C 1.332031 0.046875 1.09375 -0.0078125 0.90625 -0.125 C 0.71875 -0.238281 0.578125 -0.398438 0.484375 -0.609375 C 0.398438 -0.828125 0.359375 -1.070312 0.359375 -1.34375 L 0.359375 -2.9375 L 0.890625 -2.9375 L 0.890625 -1.34375 C 0.890625 -1.164062 0.910156 -1.003906 0.953125 -0.859375 C 0.992188 -0.722656 1.066406 -0.613281 1.171875 -0.53125 C 1.285156 -0.457031 1.453125 -0.421875 1.671875 -0.421875 C 1.941406 -0.421875 2.148438 -0.507812 2.296875 -0.6875 C 2.441406 -0.863281 2.515625 -1.078125 2.515625 -1.328125 L 2.515625 -2.9375 L 3.046875 -2.9375 L 3.046875 0 L 2.546875 0 Z M 2.546875 -0.375 "/></g></g></g><g fill="#000000" fill-opacity="1"><g transform="translate(50.620248, 21.834236)"><g><path d="M 3.265625 -3.765625 L 3.265625 0 L 2.734375 0 L 2.734375 -0.390625 C 2.628906 -0.234375 2.484375 -0.117188 2.296875 -0.046875 C 2.117188 0.015625 1.941406 0.046875 1.765625 0.046875 C 1.421875 0.046875 1.132812 -0.015625 0.90625 -0.140625 C 0.675781 -0.273438 0.503906 -0.457031 0.390625 -0.6875 C 0.273438 -0.914062 0.21875 -1.175781 0.21875 -1.46875 C 0.21875 -1.75 0.273438 -2 0.390625 -2.21875 C 0.515625 -2.445312 0.691406 -2.625 0.921875 -2.75 C 1.148438 -2.882812 1.425781 -2.953125 1.75 -2.953125 C 1.9375 -2.953125 2.113281 -2.925781 2.28125 -2.875 C 2.457031 -2.820312 2.609375 -2.707031 2.734375 -2.53125 L 2.734375 -3.765625 Z M 2.734375 -1.453125 C 2.734375 -1.691406 2.6875 -1.882812 2.59375 -2.03125 C 2.5 -2.1875 2.375 -2.300781 2.21875 -2.375 C 2.070312 -2.457031 1.914062 -2.5 1.75 -2.5 C 1.539062 -2.5 1.359375 -2.445312 1.203125 -2.34375 C 1.054688 -2.238281 0.941406 -2.109375 0.859375 -1.953125 C 0.773438 -1.796875 0.734375 -1.628906 0.734375 -1.453125 C 0.734375 -1.253906 0.773438 -1.078125 0.859375 -0.921875 C 0.941406 -0.765625 1.054688 -0.640625 1.203125 -0.546875 C 1.359375 -0.460938 1.539062 -0.421875 1.75 -0.421875 C 1.914062 -0.421875 2.070312 -0.457031 2.21875 -0.53125 C 2.375 -0.601562 2.5 -0.71875 2.59375 -0.875 C 2.6875 -1.03125 2.734375 -1.222656 2.734375 -1.453125 Z M 2.734375 -1.453125 "/></g></g></g><g fill="#000000" fill-opacity="1"><g transform="translate(53.968019, 21.834236)"><g><path d="M 3.25 -1.578125 C 3.257812 -1.566406 3.265625 -1.550781 3.265625 -1.53125 C 3.265625 -1.519531 3.265625 -1.503906 3.265625 -1.484375 C 3.265625 -1.429688 3.257812 -1.378906 3.25 -1.328125 L 0.78125 -1.328125 C 0.78125 -1.140625 0.832031 -0.976562 0.9375 -0.84375 C 1.039062 -0.707031 1.164062 -0.597656 1.3125 -0.515625 C 1.46875 -0.441406 1.617188 -0.40625 1.765625 -0.40625 C 1.941406 -0.40625 2.109375 -0.445312 2.265625 -0.53125 C 2.421875 -0.613281 2.539062 -0.734375 2.625 -0.890625 L 3.171875 -0.890625 C 3.097656 -0.679688 2.988281 -0.503906 2.84375 -0.359375 C 2.695312 -0.222656 2.53125 -0.117188 2.34375 -0.046875 C 2.15625 0.015625 1.957031 0.046875 1.75 0.046875 C 1.570312 0.046875 1.390625 0.015625 1.203125 -0.046875 C 1.023438 -0.109375 0.863281 -0.203125 0.71875 -0.328125 C 0.582031 -0.453125 0.472656 -0.609375 0.390625 -0.796875 C 0.304688 -0.984375 0.265625 -1.203125 0.265625 -1.453125 C 0.265625 -1.703125 0.304688 -1.921875 0.390625 -2.109375 C 0.472656 -2.296875 0.582031 -2.453125 0.71875 -2.578125 C 0.863281 -2.703125 1.023438 -2.796875 1.203125 -2.859375 C 1.390625 -2.921875 1.578125 -2.953125 1.765625 -2.953125 C 2.003906 -2.953125 2.234375 -2.898438 2.453125 -2.796875 C 2.679688 -2.691406 2.867188 -2.535156 3.015625 -2.328125 C 3.160156 -2.128906 3.238281 -1.878906 3.25 -1.578125 Z M 2.703125 -1.765625 C 2.671875 -1.941406 2.609375 -2.082031 2.515625 -2.1875 C 2.421875 -2.289062 2.304688 -2.363281 2.171875 -2.40625 C 2.046875 -2.457031 1.910156 -2.484375 1.765625 -2.484375 C 1.628906 -2.484375 1.492188 -2.457031 1.359375 -2.40625 C 1.222656 -2.363281 1.101562 -2.285156 1 -2.171875 C 0.90625 -2.066406 0.84375 -1.929688 0.8125 -1.765625 Z M 2.703125 -1.765625 "/></g></g></g><g fill="#000000" fill-opacity="1"><g transform="translate(57.186826, 21.834236)"><g><path d="M 0.9375 -2.546875 C 1.039062 -2.703125 1.164062 -2.804688 1.3125 -2.859375 C 1.46875 -2.921875 1.640625 -2.953125 1.828125 -2.953125 C 2.117188 -2.953125 2.359375 -2.894531 2.546875 -2.78125 C 2.734375 -2.664062 2.867188 -2.503906 2.953125 -2.296875 C 3.035156 -2.085938 3.078125 -1.84375 3.078125 -1.5625 L 3.078125 0 L 2.5625 0 L 2.5625 -1.5625 C 2.5625 -1.738281 2.539062 -1.894531 2.5 -2.03125 C 2.457031 -2.175781 2.378906 -2.285156 2.265625 -2.359375 C 2.160156 -2.441406 2 -2.484375 1.78125 -2.484375 C 1.601562 -2.484375 1.445312 -2.441406 1.3125 -2.359375 C 1.1875 -2.273438 1.09375 -2.164062 1.03125 -2.03125 C 0.96875 -1.894531 0.9375 -1.742188 0.9375 -1.578125 L 0.9375 0 L 0.40625 0 L 0.40625 -2.90625 L 0.9375 -2.90625 Z M 0.9375 -2.546875 "/></g></g></g><g fill="#000000" fill-opacity="1"><g transform="translate(60.341152, 21.834236)"><g><path d="M 1.09375 -2.90625 L 1.734375 -2.90625 L 1.734375 -2.484375 L 1.09375 -2.484375 L 1.09375 -0.84375 C 1.09375 -0.675781 1.128906 -0.5625 1.203125 -0.5 C 1.285156 -0.445312 1.394531 -0.421875 1.53125 -0.421875 C 1.5625 -0.421875 1.59375 -0.421875 1.625 -0.421875 C 1.664062 -0.429688 1.707031 -0.4375 1.75 -0.4375 L 1.75 0 C 1.707031 0.0078125 1.664062 0.015625 1.625 0.015625 C 1.582031 0.015625 1.539062 0.015625 1.5 0.015625 C 1.3125 0.015625 1.144531 -0.0078125 1 -0.0625 C 0.863281 -0.113281 0.753906 -0.203125 0.671875 -0.328125 C 0.597656 -0.453125 0.5625 -0.628906 0.5625 -0.859375 L 0.5625 -2.484375 L 0.125 -2.484375 L 0.125 -2.90625 L 0.5625 -2.90625 L 0.5625 -3.453125 L 1.09375 -3.546875 Z M 1.09375 -2.90625 "/></g></g></g><g fill="#000000" fill-opacity="1"><g transform="translate(43.494803, 25.864429)"><g><path d="M 0.765625 -2.0625 C 0.765625 -1.976562 0.785156 -1.910156 0.828125 -1.859375 C 0.878906 -1.804688 0.941406 -1.769531 1.015625 -1.75 C 1.085938 -1.726562 1.160156 -1.710938 1.234375 -1.703125 C 1.304688 -1.703125 1.378906 -1.703125 1.453125 -1.703125 C 1.585938 -1.691406 1.722656 -1.671875 1.859375 -1.640625 C 1.992188 -1.609375 2.117188 -1.5625 2.234375 -1.5 C 2.347656 -1.4375 2.441406 -1.347656 2.515625 -1.234375 C 2.585938 -1.128906 2.625 -0.992188 2.625 -0.828125 C 2.625 -0.660156 2.582031 -0.519531 2.5 -0.40625 C 2.425781 -0.289062 2.328125 -0.195312 2.203125 -0.125 C 2.085938 -0.0625 1.957031 -0.0195312 1.8125 0 C 1.675781 0.03125 1.539062 0.046875 1.40625 0.046875 C 1.207031 0.046875 1.015625 0.015625 0.828125 -0.046875 C 0.648438 -0.109375 0.503906 -0.207031 0.390625 -0.34375 C 0.273438 -0.476562 0.210938 -0.660156 0.203125 -0.890625 L 0.734375 -0.890625 C 0.742188 -0.734375 0.8125 -0.613281 0.9375 -0.53125 C 1.070312 -0.445312 1.226562 -0.40625 1.40625 -0.40625 C 1.5 -0.40625 1.597656 -0.414062 1.703125 -0.4375 C 1.804688 -0.46875 1.894531 -0.515625 1.96875 -0.578125 C 2.050781 -0.640625 2.09375 -0.726562 2.09375 -0.84375 C 2.09375 -0.925781 2.066406 -0.988281 2.015625 -1.03125 C 1.972656 -1.082031 1.910156 -1.117188 1.828125 -1.140625 C 1.753906 -1.171875 1.675781 -1.191406 1.59375 -1.203125 C 1.519531 -1.210938 1.453125 -1.21875 1.390625 -1.21875 C 1.253906 -1.226562 1.117188 -1.242188 0.984375 -1.265625 C 0.859375 -1.296875 0.738281 -1.34375 0.625 -1.40625 C 0.507812 -1.46875 0.414062 -1.550781 0.34375 -1.65625 C 0.28125 -1.757812 0.25 -1.894531 0.25 -2.0625 C 0.25 -2.28125 0.304688 -2.457031 0.421875 -2.59375 C 0.535156 -2.726562 0.679688 -2.820312 0.859375 -2.875 C 1.035156 -2.9375 1.21875 -2.96875 1.40625 -2.96875 C 1.601562 -2.96875 1.78125 -2.9375 1.9375 -2.875 C 2.101562 -2.820312 2.238281 -2.734375 2.34375 -2.609375 C 2.457031 -2.484375 2.519531 -2.316406 2.53125 -2.109375 L 2.015625 -2.109375 C 1.992188 -2.242188 1.921875 -2.34375 1.796875 -2.40625 C 1.679688 -2.46875 1.546875 -2.5 1.390625 -2.5 C 1.234375 -2.5 1.085938 -2.460938 0.953125 -2.390625 C 0.828125 -2.328125 0.765625 -2.21875 0.765625 -2.0625 Z M 0.765625 -2.0625 "/></g></g></g><g fill="#000000" fill-opacity="1"><g transform="translate(45.966675, 25.864429)"><g><path d="M 3.25 -1.109375 C 3.207031 -0.847656 3.109375 -0.628906 2.953125 -0.453125 C 2.804688 -0.285156 2.628906 -0.160156 2.421875 -0.078125 C 2.210938 0.00390625 2 0.046875 1.78125 0.046875 C 1.59375 0.046875 1.40625 0.015625 1.21875 -0.046875 C 1.039062 -0.109375 0.878906 -0.203125 0.734375 -0.328125 C 0.597656 -0.453125 0.488281 -0.609375 0.40625 -0.796875 C 0.320312 -0.984375 0.28125 -1.203125 0.28125 -1.453125 C 0.28125 -1.703125 0.320312 -1.921875 0.40625 -2.109375 C 0.488281 -2.296875 0.601562 -2.453125 0.75 -2.578125 C 0.894531 -2.703125 1.054688 -2.796875 1.234375 -2.859375 C 1.410156 -2.921875 1.59375 -2.953125 1.78125 -2.953125 C 2.007812 -2.953125 2.222656 -2.910156 2.421875 -2.828125 C 2.628906 -2.742188 2.804688 -2.613281 2.953125 -2.4375 C 3.109375 -2.269531 3.207031 -2.054688 3.25 -1.796875 L 2.703125 -1.796875 C 2.640625 -2.035156 2.519531 -2.207031 2.34375 -2.3125 C 2.175781 -2.425781 1.992188 -2.484375 1.796875 -2.484375 C 1.628906 -2.484375 1.46875 -2.445312 1.3125 -2.375 C 1.164062 -2.300781 1.039062 -2.1875 0.9375 -2.03125 C 0.84375 -1.882812 0.796875 -1.691406 0.796875 -1.453125 C 0.796875 -1.222656 0.84375 -1.03125 0.9375 -0.875 C 1.039062 -0.71875 1.164062 -0.601562 1.3125 -0.53125 C 1.46875 -0.457031 1.628906 -0.421875 1.796875 -0.421875 C 1.992188 -0.421875 2.175781 -0.476562 2.34375 -0.59375 C 2.519531 -0.707031 2.640625 -0.878906 2.703125 -1.109375 Z M 3.25 -1.109375 "/></g></g></g><g fill="#000000" fill-opacity="1"><g transform="translate(49.158616, 25.864429)"><g><path d="M 0.90625 -2.546875 C 1.019531 -2.703125 1.148438 -2.804688 1.296875 -2.859375 C 1.453125 -2.921875 1.617188 -2.953125 1.796875 -2.953125 C 2.097656 -2.953125 2.34375 -2.894531 2.53125 -2.78125 C 2.71875 -2.664062 2.851562 -2.503906 2.9375 -2.296875 C 3.019531 -2.085938 3.0625 -1.84375 3.0625 -1.5625 L 3.0625 0 L 2.546875 0 L 2.546875 -1.5625 C 2.546875 -1.738281 2.523438 -1.894531 2.484375 -2.03125 C 2.441406 -2.175781 2.363281 -2.285156 2.25 -2.359375 C 2.132812 -2.441406 1.972656 -2.484375 1.765625 -2.484375 C 1.578125 -2.484375 1.421875 -2.441406 1.296875 -2.359375 C 1.171875 -2.273438 1.070312 -2.164062 1 -2.03125 C 0.9375 -1.894531 0.90625 -1.742188 0.90625 -1.578125 L 0.90625 0 L 0.390625 0 L 0.390625 -3.765625 L 0.90625 -3.765625 Z M 0.90625 -2.546875 "/></g></g></g><g fill="#000000" fill-opacity="1"><g transform="translate(52.312942, 25.864429)"><g><path d="M 3.40625 -1.453125 C 3.40625 -1.203125 3.363281 -0.984375 3.28125 -0.796875 C 3.195312 -0.609375 3.078125 -0.453125 2.921875 -0.328125 C 2.773438 -0.203125 2.609375 -0.109375 2.421875 -0.046875 C 2.234375 0.015625 2.039062 0.046875 1.84375 0.046875 C 1.644531 0.046875 1.453125 0.015625 1.265625 -0.046875 C 1.078125 -0.109375 0.910156 -0.203125 0.765625 -0.328125 C 0.617188 -0.453125 0.5 -0.609375 0.40625 -0.796875 C 0.320312 -0.984375 0.28125 -1.203125 0.28125 -1.453125 C 0.28125 -1.703125 0.320312 -1.921875 0.40625 -2.109375 C 0.5 -2.296875 0.617188 -2.453125 0.765625 -2.578125 C 0.921875 -2.703125 1.09375 -2.796875 1.28125 -2.859375 C 1.46875 -2.921875 1.660156 -2.953125 1.859375 -2.953125 C 2.054688 -2.953125 2.242188 -2.921875 2.421875 -2.859375 C 2.609375 -2.796875 2.773438 -2.703125 2.921875 -2.578125 C 3.078125 -2.453125 3.195312 -2.296875 3.28125 -2.109375 C 3.363281 -1.921875 3.40625 -1.703125 3.40625 -1.453125 Z M 0.8125 -1.453125 C 0.8125 -1.222656 0.859375 -1.03125 0.953125 -0.875 C 1.054688 -0.726562 1.1875 -0.613281 1.34375 -0.53125 C 1.507812 -0.457031 1.675781 -0.421875 1.84375 -0.421875 C 2.019531 -0.421875 2.1875 -0.457031 2.34375 -0.53125 C 2.5 -0.613281 2.628906 -0.726562 2.734375 -0.875 C 2.835938 -1.03125 2.890625 -1.222656 2.890625 -1.453125 C 2.890625 -1.679688 2.835938 -1.867188 2.734375 -2.015625 C 2.640625 -2.171875 2.507812 -2.285156 2.34375 -2.359375 C 2.1875 -2.441406 2.023438 -2.484375 1.859375 -2.484375 C 1.679688 -2.484375 1.507812 -2.441406 1.34375 -2.359375 C 1.1875 -2.285156 1.054688 -2.171875 0.953125 -2.015625 C 0.859375 -1.867188 0.8125 -1.679688 0.8125 -1.453125 Z M 0.8125 -1.453125 "/></g></g></g><g fill="#000000" fill-opacity="1"><g transform="translate(55.714454, 25.864429)"><g><path d="M 0.40625 0 L 0.40625 -3.765625 L 0.9375 -3.765625 L 0.9375 0 Z M 0.40625 0 "/></g></g></g><g fill="#000000" fill-opacity="1"><g transform="translate(56.719328, 25.864429)"><g><path d="M 3.421875 0 L 2.890625 0 L 2.890625 -0.390625 C 2.828125 -0.285156 2.734375 -0.203125 2.609375 -0.140625 C 2.492188 -0.078125 2.367188 -0.03125 2.234375 0 C 2.109375 0.03125 1.984375 0.046875 1.859375 0.046875 C 1.523438 0.046875 1.238281 -0.0195312 1 -0.15625 C 0.769531 -0.300781 0.59375 -0.488281 0.46875 -0.71875 C 0.351562 -0.945312 0.296875 -1.195312 0.296875 -1.46875 C 0.296875 -1.726562 0.351562 -1.96875 0.46875 -2.1875 C 0.59375 -2.414062 0.769531 -2.597656 1 -2.734375 C 1.238281 -2.878906 1.519531 -2.953125 1.84375 -2.953125 C 1.96875 -2.953125 2.09375 -2.941406 2.21875 -2.921875 C 2.351562 -2.898438 2.476562 -2.859375 2.59375 -2.796875 C 2.71875 -2.734375 2.820312 -2.640625 2.90625 -2.515625 L 2.890625 -2.90625 L 3.421875 -2.90625 Z M 2.890625 -1.453125 C 2.890625 -1.691406 2.835938 -1.882812 2.734375 -2.03125 C 2.628906 -2.1875 2.492188 -2.300781 2.328125 -2.375 C 2.171875 -2.457031 2.007812 -2.5 1.84375 -2.5 C 1.632812 -2.5 1.453125 -2.453125 1.296875 -2.359375 C 1.140625 -2.265625 1.019531 -2.140625 0.9375 -1.984375 C 0.863281 -1.828125 0.828125 -1.65625 0.828125 -1.46875 C 0.828125 -1.28125 0.863281 -1.109375 0.9375 -0.953125 C 1.019531 -0.796875 1.140625 -0.664062 1.296875 -0.5625 C 1.453125 -0.46875 1.632812 -0.421875 1.84375 -0.421875 C 2.007812 -0.421875 2.171875 -0.457031 2.328125 -0.53125 C 2.492188 -0.601562 2.628906 -0.71875 2.734375 -0.875 C 2.835938 -1.03125 2.890625 -1.222656 2.890625 -1.453125 Z M 2.890625 -1.453125 "/></g></g></g><g fill="#000000" fill-opacity="1"><g transform="translate(60.163826, 25.864429)"><g><path d="M 0.921875 -2.546875 C 1.023438 -2.691406 1.144531 -2.796875 1.28125 -2.859375 C 1.425781 -2.929688 1.582031 -2.96875 1.75 -2.96875 C 1.800781 -2.96875 1.851562 -2.960938 1.90625 -2.953125 C 1.96875 -2.953125 2.03125 -2.941406 2.09375 -2.921875 L 2.09375 -2.46875 C 2.007812 -2.488281 1.921875 -2.5 1.828125 -2.5 C 1.660156 -2.5 1.507812 -2.457031 1.375 -2.375 C 1.238281 -2.289062 1.128906 -2.179688 1.046875 -2.046875 C 0.960938 -1.910156 0.921875 -1.753906 0.921875 -1.578125 L 0.921875 0 L 0.40625 0 L 0.40625 -2.90625 L 0.921875 -2.90625 Z M 0.921875 -2.546875 "/></g></g></g><g fill="#000000" fill-opacity="1"><g transform="translate(62.092963, 25.864429)"><g><path d="M 0.765625 -2.0625 C 0.765625 -1.976562 0.785156 -1.910156 0.828125 -1.859375 C 0.878906 -1.804688 0.941406 -1.769531 1.015625 -1.75 C 1.085938 -1.726562 1.160156 -1.710938 1.234375 -1.703125 C 1.304688 -1.703125 1.378906 -1.703125 1.453125 -1.703125 C 1.585938 -1.691406 1.722656 -1.671875 1.859375 -1.640625 C 1.992188 -1.609375 2.117188 -1.5625 2.234375 -1.5 C 2.347656 -1.4375 2.441406 -1.347656 2.515625 -1.234375 C 2.585938 -1.128906 2.625 -0.992188 2.625 -0.828125 C 2.625 -0.660156 2.582031 -0.519531 2.5 -0.40625 C 2.425781 -0.289062 2.328125 -0.195312 2.203125 -0.125 C 2.085938 -0.0625 1.957031 -0.0195312 1.8125 0 C 1.675781 0.03125 1.539062 0.046875 1.40625 0.046875 C 1.207031 0.046875 1.015625 0.015625 0.828125 -0.046875 C 0.648438 -0.109375 0.503906 -0.207031 0.390625 -0.34375 C 0.273438 -0.476562 0.210938 -0.660156 0.203125 -0.890625 L 0.734375 -0.890625 C 0.742188 -0.734375 0.8125 -0.613281 0.9375 -0.53125 C 1.070312 -0.445312 1.226562 -0.40625 1.40625 -0.40625 C 1.5 -0.40625 1.597656 -0.414062 1.703125 -0.4375 C 1.804688 -0.46875 1.894531 -0.515625 1.96875 -0.578125 C 2.050781 -0.640625 2.09375 -0.726562 2.09375 -0.84375 C 2.09375 -0.925781 2.066406 -0.988281 2.015625 -1.03125 C 1.972656 -1.082031 1.910156 -1.117188 1.828125 -1.140625 C 1.753906 -1.171875 1.675781 -1.191406 1.59375 -1.203125 C 1.519531 -1.210938 1.453125 -1.21875 1.390625 -1.21875 C 1.253906 -1.226562 1.117188 -1.242188 0.984375 -1.265625 C 0.859375 -1.296875 0.738281 -1.34375 0.625 -1.40625 C 0.507812 -1.46875 0.414062 -1.550781 0.34375 -1.65625 C 0.28125 -1.757812 0.25 -1.894531 0.25 -2.0625 C 0.25 -2.28125 0.304688 -2.457031 0.421875 -2.59375 C 0.535156 -2.726562 0.679688 -2.820312 0.859375 -2.875 C 1.035156 -2.9375 1.21875 -2.96875 1.40625 -2.96875 C 1.601562 -2.96875 1.78125 -2.9375 1.9375 -2.875 C 2.101562 -2.820312 2.238281 -2.734375 2.34375 -2.609375 C 2.457031 -2.484375 2.519531 -2.316406 2.53125 -2.109375 L 2.015625 -2.109375 C 1.992188 -2.242188 1.921875 -2.34375 1.796875 -2.40625 C 1.679688 -2.46875 1.546875 -2.5 1.390625 -2.5 C 1.234375 -2.5 1.085938 -2.460938 0.953125 -2.390625 C 0.828125 -2.328125 0.765625 -2.21875 0.765625 -2.0625 Z M 0.765625 -2.0625 "/></g></g></g><g fill="#000000" fill-opacity="1"><g transform="translate(64.564835, 25.864429)"><g><path d="M 0.90625 -2.546875 C 1.019531 -2.703125 1.148438 -2.804688 1.296875 -2.859375 C 1.453125 -2.921875 1.617188 -2.953125 1.796875 -2.953125 C 2.097656 -2.953125 2.34375 -2.894531 2.53125 -2.78125 C 2.71875 -2.664062 2.851562 -2.503906 2.9375 -2.296875 C 3.019531 -2.085938 3.0625 -1.84375 3.0625 -1.5625 L 3.0625 0 L 2.546875 0 L 2.546875 -1.5625 C 2.546875 -1.738281 2.523438 -1.894531 2.484375 -2.03125 C 2.441406 -2.175781 2.363281 -2.285156 2.25 -2.359375 C 2.132812 -2.441406 1.972656 -2.484375 1.765625 -2.484375 C 1.578125 -2.484375 1.421875 -2.441406 1.296875 -2.359375 C 1.171875 -2.273438 1.070312 -2.164062 1 -2.03125 C 0.9375 -1.894531 0.90625 -1.742188 0.90625 -1.578125 L 0.90625 0 L 0.390625 0 L 0.390625 -3.765625 L 0.90625 -3.765625 Z M 0.90625 -2.546875 "/></g></g></g><g fill="#000000" fill-opacity="1"><g transform="translate(67.719162, 25.864429)"><g><path d="M 0.375 -3.65625 C 0.375 -3.757812 0.40625 -3.832031 0.46875 -3.875 C 0.539062 -3.925781 0.617188 -3.953125 0.703125 -3.953125 C 0.785156 -3.953125 0.859375 -3.925781 0.921875 -3.875 C 0.992188 -3.832031 1.03125 -3.757812 1.03125 -3.65625 C 1.03125 -3.550781 0.992188 -3.472656 0.921875 -3.421875 C 0.859375 -3.367188 0.785156 -3.34375 0.703125 -3.34375 C 0.617188 -3.34375 0.539062 -3.367188 0.46875 -3.421875 C 0.40625 -3.472656 0.375 -3.550781 0.375 -3.65625 Z M 0.4375 -2.9375 L 0.4375 0 L 0.96875 0 L 0.96875 -2.9375 Z M 0.4375 -2.9375 "/></g></g></g><g fill="#000000" fill-opacity="1"><g transform="translate(68.836882, 25.864429)"><g><path d="M 0.390625 0.84375 L 0.390625 -2.90625 L 0.921875 -2.90625 L 0.921875 -2.515625 C 1.023438 -2.671875 1.171875 -2.78125 1.359375 -2.84375 C 1.546875 -2.914062 1.726562 -2.953125 1.90625 -2.953125 C 2.238281 -2.953125 2.515625 -2.878906 2.734375 -2.734375 C 2.960938 -2.597656 3.128906 -2.414062 3.234375 -2.1875 C 3.347656 -1.957031 3.40625 -1.710938 3.40625 -1.453125 C 3.40625 -1.179688 3.347656 -0.929688 3.234375 -0.703125 C 3.117188 -0.484375 2.945312 -0.300781 2.71875 -0.15625 C 2.5 -0.0195312 2.226562 0.046875 1.90625 0.046875 C 1.726562 0.046875 1.550781 0.0195312 1.375 -0.03125 C 1.207031 -0.09375 1.054688 -0.207031 0.921875 -0.375 L 0.921875 0.84375 Z M 0.921875 -1.453125 C 0.921875 -1.222656 0.96875 -1.03125 1.0625 -0.875 C 1.15625 -0.726562 1.273438 -0.613281 1.421875 -0.53125 C 1.578125 -0.457031 1.738281 -0.421875 1.90625 -0.421875 C 2.113281 -0.421875 2.289062 -0.46875 2.4375 -0.5625 C 2.582031 -0.664062 2.691406 -0.796875 2.765625 -0.953125 C 2.835938 -1.117188 2.875 -1.285156 2.875 -1.453125 C 2.875 -1.628906 2.835938 -1.796875 2.765625 -1.953125 C 2.691406 -2.109375 2.582031 -2.238281 2.4375 -2.34375 C 2.300781 -2.445312 2.125 -2.5 1.90625 -2.5 C 1.75 -2.5 1.59375 -2.457031 1.4375 -2.375 C 1.289062 -2.300781 1.164062 -2.1875 1.0625 -2.03125 C 0.96875 -1.882812 0.921875 -1.691406 0.921875 -1.453125 Z M 0.921875 -1.453125 "/></g></g></g><g fill="#000000" fill-opacity="1"><g transform="translate(50.331459, 29.136398)"><g><path d="M 1.046875 -0.46875 L 0.359375 -0.46875 C 0.367188 -0.375 0.394531 -0.304688 0.4375 -0.265625 C 0.488281 -0.222656 0.550781 -0.203125 0.625 -0.203125 C 0.6875 -0.203125 0.734375 -0.210938 0.765625 -0.234375 C 0.804688 -0.265625 0.84375 -0.300781 0.875 -0.34375 L 0.890625 -0.34375 L 1.0625 -0.234375 C 1.03125 -0.160156 0.976562 -0.0976562 0.90625 -0.046875 C 0.832031 -0.00390625 0.738281 0.015625 0.625 0.015625 C 0.519531 0.015625 0.425781 -0.00390625 0.34375 -0.046875 C 0.257812 -0.0859375 0.195312 -0.148438 0.15625 -0.234375 C 0.113281 -0.316406 0.09375 -0.414062 0.09375 -0.53125 C 0.09375 -0.644531 0.113281 -0.742188 0.15625 -0.828125 C 0.207031 -0.910156 0.269531 -0.972656 0.34375 -1.015625 C 0.425781 -1.054688 0.515625 -1.078125 0.609375 -1.078125 C 0.753906 -1.078125 0.867188 -1.035156 0.953125 -0.953125 C 1.035156 -0.878906 1.078125 -0.765625 1.078125 -0.609375 C 1.078125 -0.554688 1.070312 -0.515625 1.0625 -0.484375 Z M 0.8125 -0.640625 C 0.8125 -0.722656 0.789062 -0.78125 0.75 -0.8125 C 0.71875 -0.851562 0.671875 -0.875 0.609375 -0.875 C 0.472656 -0.875 0.394531 -0.796875 0.375 -0.640625 Z M 0.8125 -0.640625 "/></g></g><g transform="translate(51.486952, 29.136398)"><g><path d="M 0.15625 0 L 0.15625 -1.0625 L 0.40625 -1.0625 L 0.40625 -0.921875 L 0.421875 -0.921875 C 0.460938 -0.972656 0.503906 -1.007812 0.546875 -1.03125 C 0.597656 -1.0625 0.660156 -1.078125 0.734375 -1.078125 C 0.804688 -1.078125 0.867188 -1.0625 0.921875 -1.03125 C 0.972656 -1 1.007812 -0.953125 1.03125 -0.890625 L 1.046875 -0.890625 C 1.078125 -0.953125 1.117188 -1 1.171875 -1.03125 C 1.222656 -1.0625 1.289062 -1.078125 1.375 -1.078125 C 1.59375 -1.078125 1.703125 -0.957031 1.703125 -0.71875 L 1.703125 0 L 1.4375 0 L 1.4375 -0.671875 C 1.4375 -0.734375 1.421875 -0.78125 1.390625 -0.8125 C 1.367188 -0.84375 1.332031 -0.859375 1.28125 -0.859375 C 1.132812 -0.859375 1.0625 -0.757812 1.0625 -0.5625 L 1.0625 0 L 0.796875 0 L 0.796875 -0.671875 C 0.796875 -0.734375 0.78125 -0.78125 0.75 -0.8125 C 0.726562 -0.84375 0.691406 -0.859375 0.640625 -0.859375 C 0.566406 -0.859375 0.507812 -0.832031 0.46875 -0.78125 C 0.4375 -0.738281 0.421875 -0.664062 0.421875 -0.5625 L 0.421875 0 Z M 0.15625 0 "/></g></g><g transform="translate(53.325719, 29.136398)"><g><path d="M 0.15625 0.4375 L 0.15625 -1.0625 L 0.421875 -1.0625 L 0.421875 -0.921875 L 0.4375 -0.921875 C 0.46875 -0.972656 0.507812 -1.007812 0.5625 -1.03125 C 0.613281 -1.0625 0.675781 -1.078125 0.75 -1.078125 C 0.832031 -1.078125 0.90625 -1.054688 0.96875 -1.015625 C 1.03125 -0.972656 1.078125 -0.910156 1.109375 -0.828125 C 1.148438 -0.753906 1.171875 -0.65625 1.171875 -0.53125 C 1.171875 -0.40625 1.148438 -0.300781 1.109375 -0.21875 C 1.078125 -0.144531 1.023438 -0.0859375 0.953125 -0.046875 C 0.890625 -0.00390625 0.816406 0.015625 0.734375 0.015625 C 0.671875 0.015625 0.613281 0.00390625 0.5625 -0.015625 C 0.507812 -0.0351562 0.46875 -0.0664062 0.4375 -0.109375 L 0.421875 -0.109375 L 0.421875 0.4375 Z M 0.65625 -0.203125 C 0.738281 -0.203125 0.800781 -0.226562 0.84375 -0.28125 C 0.882812 -0.332031 0.90625 -0.414062 0.90625 -0.53125 C 0.90625 -0.644531 0.882812 -0.726562 0.84375 -0.78125 C 0.800781 -0.832031 0.738281 -0.859375 0.65625 -0.859375 C 0.582031 -0.859375 0.523438 -0.828125 0.484375 -0.765625 C 0.441406 -0.710938 0.421875 -0.632812 0.421875 -0.53125 C 0.421875 -0.425781 0.441406 -0.34375 0.484375 -0.28125 C 0.523438 -0.226562 0.582031 -0.203125 0.65625 -0.203125 Z M 0.65625 -0.203125 "/></g></g><g transform="translate(54.598785, 29.136398)"><g><path d="M 0.609375 0.015625 C 0.503906 0.015625 0.410156 -0.00390625 0.328125 -0.046875 C 0.253906 -0.0859375 0.195312 -0.148438 0.15625 -0.234375 C 0.113281 -0.316406 0.09375 -0.414062 0.09375 -0.53125 C 0.09375 -0.644531 0.113281 -0.742188 0.15625 -0.828125 C 0.195312 -0.910156 0.253906 -0.972656 0.328125 -1.015625 C 0.410156 -1.054688 0.503906 -1.078125 0.609375 -1.078125 C 0.710938 -1.078125 0.800781 -1.054688 0.875 -1.015625 C 0.957031 -0.972656 1.019531 -0.910156 1.0625 -0.828125 C 1.113281 -0.742188 1.140625 -0.644531 1.140625 -0.53125 C 1.140625 -0.414062 1.113281 -0.316406 1.0625 -0.234375 C 1.019531 -0.148438 0.957031 -0.0859375 0.875 -0.046875 C 0.800781 -0.00390625 0.710938 0.015625 0.609375 0.015625 Z M 0.609375 -0.203125 C 0.773438 -0.203125 0.859375 -0.3125 0.859375 -0.53125 C 0.859375 -0.644531 0.835938 -0.726562 0.796875 -0.78125 C 0.753906 -0.832031 0.691406 -0.859375 0.609375 -0.859375 C 0.453125 -0.859375 0.375 -0.75 0.375 -0.53125 C 0.375 -0.3125 0.453125 -0.203125 0.609375 -0.203125 Z M 0.609375 -0.203125 "/></g></g><g transform="translate(55.834267, 29.136398)"><g><path d="M 0.5625 0 L 0.296875 0 L 0.03125 -1.0625 L 0.28125 -1.0625 L 0.4375 -0.34375 L 0.46875 -0.34375 L 0.65625 -1.0625 L 0.890625 -1.0625 L 1.109375 -0.34375 L 1.125 -0.34375 L 1.265625 -1.0625 L 1.515625 -1.0625 L 1.265625 0 L 0.984375 0 L 0.78125 -0.71875 L 0.765625 -0.71875 Z M 0.5625 0 "/></g></g><g transform="translate(57.388738, 29.136398)"><g><path d="M 1.046875 -0.46875 L 0.359375 -0.46875 C 0.367188 -0.375 0.394531 -0.304688 0.4375 -0.265625 C 0.488281 -0.222656 0.550781 -0.203125 0.625 -0.203125 C 0.6875 -0.203125 0.734375 -0.210938 0.765625 -0.234375 C 0.804688 -0.265625 0.84375 -0.300781 0.875 -0.34375 L 0.890625 -0.34375 L 1.0625 -0.234375 C 1.03125 -0.160156 0.976562 -0.0976562 0.90625 -0.046875 C 0.832031 -0.00390625 0.738281 0.015625 0.625 0.015625 C 0.519531 0.015625 0.425781 -0.00390625 0.34375 -0.046875 C 0.257812 -0.0859375 0.195312 -0.148438 0.15625 -0.234375 C 0.113281 -0.316406 0.09375 -0.414062 0.09375 -0.53125 C 0.09375 -0.644531 0.113281 -0.742188 0.15625 -0.828125 C 0.207031 -0.910156 0.269531 -0.972656 0.34375 -1.015625 C 0.425781 -1.054688 0.515625 -1.078125 0.609375 -1.078125 C 0.753906 -1.078125 0.867188 -1.035156 0.953125 -0.953125 C 1.035156 -0.878906 1.078125 -0.765625 1.078125 -0.609375 C 1.078125 -0.554688 1.070312 -0.515625 1.0625 -0.484375 Z M 0.8125 -0.640625 C 0.8125 -0.722656 0.789062 -0.78125 0.75 -0.8125 C 0.71875 -0.851562 0.671875 -0.875 0.609375 -0.875 C 0.472656 -0.875 0.394531 -0.796875 0.375 -0.640625 Z M 0.8125 -0.640625 "/></g></g><g transform="translate(58.544231, 29.136398)"><g><path d="M 0.15625 0 L 0.15625 -1.0625 L 0.40625 -1.0625 L 0.40625 -0.90625 L 0.4375 -0.90625 C 0.457031 -0.957031 0.488281 -0.992188 0.53125 -1.015625 C 0.570312 -1.046875 0.625 -1.0625 0.6875 -1.0625 C 0.75 -1.0625 0.796875 -1.054688 0.828125 -1.046875 L 0.78125 -0.8125 L 0.75 -0.8125 C 0.738281 -0.8125 0.722656 -0.8125 0.703125 -0.8125 C 0.691406 -0.820312 0.671875 -0.828125 0.640625 -0.828125 C 0.566406 -0.828125 0.507812 -0.800781 0.46875 -0.75 C 0.4375 -0.695312 0.421875 -0.613281 0.421875 -0.5 L 0.421875 0 Z M 0.15625 0 "/></g></g><g transform="translate(59.377844, 29.136398)"><g><path d="M 0.28125 -1.1875 C 0.238281 -1.1875 0.203125 -1.203125 0.171875 -1.234375 C 0.140625 -1.265625 0.125 -1.300781 0.125 -1.34375 C 0.125 -1.382812 0.140625 -1.421875 0.171875 -1.453125 C 0.203125 -1.484375 0.238281 -1.5 0.28125 -1.5 C 0.3125 -1.5 0.335938 -1.488281 0.359375 -1.46875 C 0.390625 -1.457031 0.410156 -1.441406 0.421875 -1.421875 C 0.441406 -1.398438 0.453125 -1.375 0.453125 -1.34375 C 0.453125 -1.3125 0.441406 -1.285156 0.421875 -1.265625 C 0.410156 -1.242188 0.390625 -1.222656 0.359375 -1.203125 C 0.335938 -1.191406 0.3125 -1.1875 0.28125 -1.1875 Z M 0.15625 0 L 0.15625 -1.0625 L 0.421875 -1.0625 L 0.421875 0 Z M 0.15625 0 "/></g></g><g transform="translate(59.95029, 29.136398)"><g><path d="M 0.15625 0 L 0.15625 -1.0625 L 0.40625 -1.0625 L 0.40625 -0.90625 L 0.421875 -0.90625 C 0.492188 -1.019531 0.601562 -1.078125 0.75 -1.078125 C 0.875 -1.078125 0.960938 -1.039062 1.015625 -0.96875 C 1.078125 -0.90625 1.109375 -0.8125 1.109375 -0.6875 L 1.109375 0 L 0.84375 0 L 0.84375 -0.65625 C 0.84375 -0.726562 0.828125 -0.78125 0.796875 -0.8125 C 0.765625 -0.84375 0.71875 -0.859375 0.65625 -0.859375 C 0.582031 -0.859375 0.523438 -0.832031 0.484375 -0.78125 C 0.441406 -0.726562 0.421875 -0.648438 0.421875 -0.546875 L 0.421875 0 Z M 0.15625 0 "/></g></g><g transform="translate(61.195409, 29.136398)"><g><path d="M 0.546875 0.453125 C 0.367188 0.453125 0.238281 0.425781 0.15625 0.375 C 0.0703125 0.320312 0.03125 0.25 0.03125 0.15625 C 0.03125 0.101562 0.046875 0.0546875 0.078125 0.015625 C 0.117188 -0.015625 0.175781 -0.0351562 0.25 -0.046875 L 0.25 -0.0625 C 0.207031 -0.09375 0.175781 -0.117188 0.15625 -0.140625 C 0.144531 -0.171875 0.140625 -0.203125 0.140625 -0.234375 C 0.140625 -0.316406 0.195312 -0.375 0.3125 -0.40625 L 0.3125 -0.421875 C 0.25 -0.460938 0.203125 -0.503906 0.171875 -0.546875 C 0.148438 -0.597656 0.140625 -0.65625 0.140625 -0.71875 C 0.140625 -0.789062 0.15625 -0.851562 0.1875 -0.90625 C 0.21875 -0.957031 0.265625 -1 0.328125 -1.03125 C 0.390625 -1.0625 0.460938 -1.078125 0.546875 -1.078125 C 0.640625 -1.078125 0.710938 -1.0625 0.765625 -1.03125 C 0.796875 -1.082031 0.816406 -1.140625 0.828125 -1.203125 L 0.84375 -1.21875 L 1.03125 -1.171875 C 1.03125 -1.117188 1.015625 -1.070312 0.984375 -1.03125 C 0.960938 -1 0.925781 -0.96875 0.875 -0.9375 L 0.875 -0.921875 C 0.9375 -0.867188 0.96875 -0.796875 0.96875 -0.703125 C 0.96875 -0.640625 0.953125 -0.582031 0.921875 -0.53125 C 0.890625 -0.476562 0.84375 -0.4375 0.78125 -0.40625 C 0.71875 -0.375 0.640625 -0.359375 0.546875 -0.359375 L 0.515625 -0.359375 C 0.484375 -0.359375 0.460938 -0.359375 0.453125 -0.359375 C 0.429688 -0.359375 0.410156 -0.351562 0.390625 -0.34375 C 0.378906 -0.332031 0.375 -0.316406 0.375 -0.296875 C 0.375 -0.273438 0.382812 -0.253906 0.40625 -0.234375 C 0.425781 -0.222656 0.453125 -0.21875 0.484375 -0.21875 L 0.71875 -0.203125 C 0.957031 -0.203125 1.078125 -0.101562 1.078125 0.09375 C 1.078125 0.15625 1.054688 0.210938 1.015625 0.265625 C 0.984375 0.328125 0.925781 0.375 0.84375 0.40625 C 0.769531 0.4375 0.671875 0.453125 0.546875 0.453125 Z M 0.546875 -0.546875 C 0.597656 -0.546875 0.640625 -0.5625 0.671875 -0.59375 C 0.703125 -0.625 0.71875 -0.664062 0.71875 -0.71875 C 0.71875 -0.769531 0.703125 -0.8125 0.671875 -0.84375 C 0.640625 -0.875 0.597656 -0.890625 0.546875 -0.890625 C 0.492188 -0.890625 0.453125 -0.875 0.421875 -0.84375 C 0.398438 -0.8125 0.390625 -0.769531 0.390625 -0.71875 C 0.390625 -0.664062 0.398438 -0.625 0.421875 -0.59375 C 0.453125 -0.5625 0.492188 -0.546875 0.546875 -0.546875 Z M 0.546875 0.25 C 0.640625 0.25 0.707031 0.238281 0.75 0.21875 C 0.789062 0.195312 0.8125 0.164062 0.8125 0.125 C 0.8125 0.0820312 0.800781 0.0507812 0.78125 0.03125 C 0.757812 0.0195312 0.722656 0.015625 0.671875 0.015625 L 0.46875 0.015625 C 0.457031 0.015625 0.445312 0.0078125 0.4375 0 C 0.382812 0 0.347656 0.0078125 0.328125 0.03125 C 0.304688 0.0507812 0.296875 0.078125 0.296875 0.109375 C 0.296875 0.160156 0.316406 0.195312 0.359375 0.21875 C 0.398438 0.238281 0.460938 0.25 0.546875 0.25 Z M 0.546875 0.25 "/></g></g><g transform="translate(62.300789, 29.136398)"><g/></g><g transform="translate(62.766263, 29.136398)"><g><path d="M 1.046875 -0.46875 L 0.359375 -0.46875 C 0.367188 -0.375 0.394531 -0.304688 0.4375 -0.265625 C 0.488281 -0.222656 0.550781 -0.203125 0.625 -0.203125 C 0.6875 -0.203125 0.734375 -0.210938 0.765625 -0.234375 C 0.804688 -0.265625 0.84375 -0.300781 0.875 -0.34375 L 0.890625 -0.34375 L 1.0625 -0.234375 C 1.03125 -0.160156 0.976562 -0.0976562 0.90625 -0.046875 C 0.832031 -0.00390625 0.738281 0.015625 0.625 0.015625 C 0.519531 0.015625 0.425781 -0.00390625 0.34375 -0.046875 C 0.257812 -0.0859375 0.195312 -0.148438 0.15625 -0.234375 C 0.113281 -0.316406 0.09375 -0.414062 0.09375 -0.53125 C 0.09375 -0.644531 0.113281 -0.742188 0.15625 -0.828125 C 0.207031 -0.910156 0.269531 -0.972656 0.34375 -1.015625 C 0.425781 -1.054688 0.515625 -1.078125 0.609375 -1.078125 C 0.753906 -1.078125 0.867188 -1.035156 0.953125 -0.953125 C 1.035156 -0.878906 1.078125 -0.765625 1.078125 -0.609375 C 1.078125 -0.554688 1.070312 -0.515625 1.0625 -0.484375 Z M 0.8125 -0.640625 C 0.8125 -0.722656 0.789062 -0.78125 0.75 -0.8125 C 0.71875 -0.851562 0.671875 -0.875 0.609375 -0.875 C 0.472656 -0.875 0.394531 -0.796875 0.375 -0.640625 Z M 0.8125 -0.640625 "/></g></g><g transform="translate(63.921756, 29.136398)"><g><path d="M 0.53125 0.015625 C 0.4375 0.015625 0.359375 -0.00390625 0.296875 -0.046875 C 0.234375 -0.0859375 0.179688 -0.144531 0.140625 -0.21875 C 0.109375 -0.300781 0.09375 -0.40625 0.09375 -0.53125 C 0.09375 -0.65625 0.109375 -0.753906 0.140625 -0.828125 C 0.179688 -0.910156 0.234375 -0.972656 0.296875 -1.015625 C 0.367188 -1.054688 0.445312 -1.078125 0.53125 -1.078125 C 0.601562 -1.078125 0.660156 -1.066406 0.703125 -1.046875 C 0.753906 -1.023438 0.796875 -0.988281 0.828125 -0.9375 L 0.859375 -0.9375 L 0.859375 -1.484375 L 1.125 -1.484375 L 1.125 0 L 0.859375 0 L 0.859375 -0.140625 L 0.828125 -0.140625 C 0.796875 -0.0859375 0.753906 -0.046875 0.703125 -0.015625 C 0.660156 0.00390625 0.601562 0.015625 0.53125 0.015625 Z M 0.609375 -0.203125 C 0.679688 -0.203125 0.738281 -0.226562 0.78125 -0.28125 C 0.832031 -0.332031 0.859375 -0.414062 0.859375 -0.53125 C 0.859375 -0.632812 0.832031 -0.710938 0.78125 -0.765625 C 0.738281 -0.828125 0.679688 -0.859375 0.609375 -0.859375 C 0.535156 -0.859375 0.476562 -0.832031 0.4375 -0.78125 C 0.394531 -0.726562 0.375 -0.644531 0.375 -0.53125 C 0.375 -0.414062 0.394531 -0.332031 0.4375 -0.28125 C 0.476562 -0.226562 0.535156 -0.203125 0.609375 -0.203125 Z M 0.609375 -0.203125 "/></g></g><g transform="translate(65.195786, 29.136398)"><g><path d="M 0.484375 0.015625 C 0.367188 0.015625 0.28125 -0.015625 0.21875 -0.078125 C 0.164062 -0.140625 0.140625 -0.234375 0.140625 -0.359375 L 0.140625 -1.0625 L 0.40625 -1.0625 L 0.40625 -0.390625 C 0.40625 -0.328125 0.414062 -0.28125 0.4375 -0.25 C 0.46875 -0.21875 0.515625 -0.203125 0.578125 -0.203125 C 0.648438 -0.203125 0.707031 -0.222656 0.75 -0.265625 C 0.789062 -0.316406 0.8125 -0.394531 0.8125 -0.5 L 0.8125 -1.0625 L 1.078125 -1.0625 L 1.078125 0 L 0.8125 0 L 0.8125 -0.15625 L 0.796875 -0.15625 C 0.765625 -0.09375 0.722656 -0.046875 0.671875 -0.015625 C 0.617188 0.00390625 0.554688 0.015625 0.484375 0.015625 Z M 0.484375 0.015625 "/></g></g><g transform="translate(66.425485, 29.136398)"><g><path d="M 0.625 0.015625 C 0.519531 0.015625 0.425781 -0.00390625 0.34375 -0.046875 C 0.269531 -0.0859375 0.207031 -0.148438 0.15625 -0.234375 C 0.113281 -0.316406 0.09375 -0.414062 0.09375 -0.53125 C 0.09375 -0.644531 0.113281 -0.742188 0.15625 -0.828125 C 0.207031 -0.910156 0.269531 -0.972656 0.34375 -1.015625 C 0.425781 -1.054688 0.515625 -1.078125 0.609375 -1.078125 C 0.835938 -1.078125 0.984375 -1 1.046875 -0.84375 L 0.859375 -0.703125 L 0.84375 -0.703125 C 0.820312 -0.753906 0.789062 -0.789062 0.75 -0.8125 C 0.71875 -0.84375 0.671875 -0.859375 0.609375 -0.859375 C 0.535156 -0.859375 0.476562 -0.828125 0.4375 -0.765625 C 0.394531 -0.710938 0.375 -0.632812 0.375 -0.53125 C 0.375 -0.414062 0.394531 -0.332031 0.4375 -0.28125 C 0.476562 -0.226562 0.539062 -0.203125 0.625 -0.203125 C 0.675781 -0.203125 0.722656 -0.21875 0.765625 -0.25 C 0.804688 -0.28125 0.832031 -0.328125 0.84375 -0.390625 L 0.875 -0.390625 L 1.0625 -0.28125 C 1.03125 -0.195312 0.976562 -0.125 0.90625 -0.0625 C 0.832031 -0.0078125 0.738281 0.015625 0.625 0.015625 Z M 0.625 0.015625 "/></g></g><g transform="translate(67.521228, 29.136398)"><g><path d="M 0.40625 0.015625 C 0.34375 0.015625 0.285156 0.00390625 0.234375 -0.015625 C 0.179688 -0.046875 0.140625 -0.0820312 0.109375 -0.125 C 0.0859375 -0.175781 0.078125 -0.234375 0.078125 -0.296875 C 0.078125 -0.359375 0.0859375 -0.410156 0.109375 -0.453125 C 0.140625 -0.503906 0.179688 -0.539062 0.234375 -0.5625 C 0.296875 -0.59375 0.375 -0.613281 0.46875 -0.625 C 0.53125 -0.632812 0.578125 -0.644531 0.609375 -0.65625 C 0.640625 -0.664062 0.660156 -0.675781 0.671875 -0.6875 C 0.691406 -0.707031 0.703125 -0.734375 0.703125 -0.765625 C 0.703125 -0.796875 0.6875 -0.816406 0.65625 -0.828125 C 0.632812 -0.847656 0.597656 -0.859375 0.546875 -0.859375 C 0.484375 -0.859375 0.425781 -0.84375 0.375 -0.8125 C 0.320312 -0.789062 0.273438 -0.757812 0.234375 -0.71875 L 0.21875 -0.71875 L 0.109375 -0.890625 C 0.160156 -0.953125 0.222656 -1 0.296875 -1.03125 C 0.378906 -1.0625 0.46875 -1.078125 0.5625 -1.078125 C 0.695312 -1.078125 0.796875 -1.046875 0.859375 -0.984375 C 0.921875 -0.929688 0.953125 -0.847656 0.953125 -0.734375 L 0.953125 -0.28125 C 0.953125 -0.226562 0.972656 -0.203125 1.015625 -0.203125 C 1.035156 -0.203125 1.050781 -0.207031 1.0625 -0.21875 L 1.078125 -0.203125 L 1.09375 -0.03125 C 1.082031 -0.0195312 1.0625 -0.0078125 1.03125 0 C 1.007812 0 0.984375 0 0.953125 0 C 0.890625 0 0.835938 -0.0078125 0.796875 -0.03125 C 0.765625 -0.0507812 0.738281 -0.0859375 0.71875 -0.140625 L 0.703125 -0.140625 C 0.648438 -0.0351562 0.550781 0.015625 0.40625 0.015625 Z M 0.5 -0.171875 C 0.5625 -0.171875 0.609375 -0.191406 0.640625 -0.234375 C 0.679688 -0.273438 0.703125 -0.332031 0.703125 -0.40625 L 0.703125 -0.515625 L 0.6875 -0.53125 C 0.664062 -0.507812 0.640625 -0.492188 0.609375 -0.484375 C 0.585938 -0.484375 0.550781 -0.476562 0.5 -0.46875 C 0.445312 -0.457031 0.40625 -0.4375 0.375 -0.40625 C 0.351562 -0.382812 0.34375 -0.351562 0.34375 -0.3125 C 0.34375 -0.269531 0.351562 -0.234375 0.375 -0.203125 C 0.40625 -0.179688 0.445312 -0.171875 0.5 -0.171875 Z M 0.5 -0.171875 "/></g></g><g transform="translate(68.642028, 29.136398)"><g><path d="M 0.734375 -0.25 L 0.796875 -0.0625 C 0.765625 -0.03125 0.726562 -0.0078125 0.6875 0 C 0.644531 0.0078125 0.597656 0.015625 0.546875 0.015625 C 0.429688 0.015625 0.34375 -0.015625 0.28125 -0.078125 C 0.21875 -0.140625 0.1875 -0.226562 0.1875 -0.34375 L 0.1875 -0.84375 L 0.03125 -0.84375 L 0.03125 -1.0625 L 0.1875 -1.0625 L 0.1875 -1.265625 L 0.453125 -1.3125 L 0.453125 -1.0625 L 0.765625 -1.0625 L 0.765625 -0.84375 L 0.453125 -0.84375 L 0.453125 -0.359375 C 0.453125 -0.304688 0.460938 -0.269531 0.484375 -0.25 C 0.515625 -0.226562 0.550781 -0.21875 0.59375 -0.21875 C 0.632812 -0.21875 0.675781 -0.226562 0.71875 -0.25 Z M 0.734375 -0.25 "/></g></g><g transform="translate(69.467931, 29.136398)"><g><path d="M 0.28125 -1.1875 C 0.238281 -1.1875 0.203125 -1.203125 0.171875 -1.234375 C 0.140625 -1.265625 0.125 -1.300781 0.125 -1.34375 C 0.125 -1.382812 0.140625 -1.421875 0.171875 -1.453125 C 0.203125 -1.484375 0.238281 -1.5 0.28125 -1.5 C 0.3125 -1.5 0.335938 -1.488281 0.359375 -1.46875 C 0.390625 -1.457031 0.410156 -1.441406 0.421875 -1.421875 C 0.441406 -1.398438 0.453125 -1.375 0.453125 -1.34375 C 0.453125 -1.3125 0.441406 -1.285156 0.421875 -1.265625 C 0.410156 -1.242188 0.390625 -1.222656 0.359375 -1.203125 C 0.335938 -1.191406 0.3125 -1.1875 0.28125 -1.1875 Z M 0.15625 0 L 0.15625 -1.0625 L 0.421875 -1.0625 L 0.421875 0 Z M 0.15625 0 "/></g></g><g transform="translate(70.040377, 29.136398)"><g><path d="M 0.609375 0.015625 C 0.503906 0.015625 0.410156 -0.00390625 0.328125 -0.046875 C 0.253906 -0.0859375 0.195312 -0.148438 0.15625 -0.234375 C 0.113281 -0.316406 0.09375 -0.414062 0.09375 -0.53125 C 0.09375 -0.644531 0.113281 -0.742188 0.15625 -0.828125 C 0.195312 -0.910156 0.253906 -0.972656 0.328125 -1.015625 C 0.410156 -1.054688 0.503906 -1.078125 0.609375 -1.078125 C 0.710938 -1.078125 0.800781 -1.054688 0.875 -1.015625 C 0.957031 -0.972656 1.019531 -0.910156 1.0625 -0.828125 C 1.113281 -0.742188 1.140625 -0.644531 1.140625 -0.53125 C 1.140625 -0.414062 1.113281 -0.316406 1.0625 -0.234375 C 1.019531 -0.148438 0.957031 -0.0859375 0.875 -0.046875 C 0.800781 -0.00390625 0.710938 0.015625 0.609375 0.015625 Z M 0.609375 -0.203125 C 0.773438 -0.203125 0.859375 -0.3125 0.859375 -0.53125 C 0.859375 -0.644531 0.835938 -0.726562 0.796875 -0.78125 C 0.753906 -0.832031 0.691406 -0.859375 0.609375 -0.859375 C 0.453125 -0.859375 0.375 -0.75 0.375 -0.53125 C 0.375 -0.3125 0.453125 -0.203125 0.609375 -0.203125 Z M 0.609375 -0.203125 "/></g></g><g transform="translate(71.275859, 29.136398)"><g><path d="M 0.15625 0 L 0.15625 -1.0625 L 0.40625 -1.0625 L 0.40625 -0.90625 L 0.421875 -0.90625 C 0.492188 -1.019531 0.601562 -1.078125 0.75 -1.078125 C 0.875 -1.078125 0.960938 -1.039062 1.015625 -0.96875 C 1.078125 -0.90625 1.109375 -0.8125 1.109375 -0.6875 L 1.109375 0 L 0.84375 0 L 0.84375 -0.65625 C 0.84375 -0.726562 0.828125 -0.78125 0.796875 -0.8125 C 0.765625 -0.84375 0.71875 -0.859375 0.65625 -0.859375 C 0.582031 -0.859375 0.523438 -0.832031 0.484375 -0.78125 C 0.441406 -0.726562 0.421875 -0.648438 0.421875 -0.546875 L 0.421875 0 Z M 0.15625 0 "/></g></g></g></svg>