<svg xmlns="http://www.w3.org/2000/svg" xmlns:xlink="http://www.w3.org/1999/xlink" width="100" zoomAndPan="magnify" viewBox="0 0 75 37.5" height="50" preserveAspectRatio="xMidYMid meet" version="1.0"><defs><clipPath id="9e3248401c"><path d="M 0.492188 0 L 74.503906 0 L 74.503906 37.007812 L 0.492188 37.007812 Z M 0.492188 0 " clip-rule="nonzero"/></clipPath></defs><g clip-path="url(#9e3248401c)"><path fill="#ffffff" d="M 0.492188 0 L 74.507812 0 L 74.507812 37.007812 L 0.492188 37.007812 Z M 0.492188 0 " fill-opacity="1" fill-rule="nonzero"/><path fill="#ffffff" d="M 0.492188 0 L 74.507812 0 L 74.507812 37.007812 L 0.492188 37.007812 Z M 0.492188 0 " fill-opacity="1" fill-rule="nonzero"/></g><path fill="#535453" d="M 40.136719 11.707031 L 40.175781 12.125 C 40.425781 11.832031 40.757812 11.664062 41.171875 11.664062 C 41.875 11.664062 42.25 12.082031 42.25 12.921875 L 42.25 15.226562 L 41.460938 15.226562 L 41.460938 12.964844 C 41.460938 12.753906 41.417969 12.585938 41.335938 12.460938 C 41.253906 12.335938 41.089844 12.292969 40.882812 12.292969 C 40.550781 12.292969 40.34375 12.417969 40.175781 12.710938 L 40.175781 15.183594 L 39.390625 15.183594 L 39.390625 11.707031 Z M 40.136719 11.707031 " fill-opacity="1" fill-rule="nonzero"/><path fill="#535453" d="M 45.066406 15.183594 C 45.023438 15.101562 44.980469 15.015625 44.980469 14.847656 C 44.734375 15.101562 44.445312 15.226562 44.070312 15.226562 C 43.738281 15.226562 43.449219 15.140625 43.242188 14.933594 C 43.035156 14.722656 42.910156 14.472656 42.910156 14.179688 C 42.910156 13.800781 43.035156 13.507812 43.324219 13.339844 C 43.617188 13.128906 43.988281 13.046875 44.484375 13.046875 L 44.941406 13.046875 L 44.941406 12.835938 C 44.941406 12.667969 44.898438 12.5 44.773438 12.417969 C 44.691406 12.292969 44.527344 12.25 44.320312 12.25 C 44.152344 12.25 43.988281 12.292969 43.90625 12.375 C 43.78125 12.460938 43.738281 12.585938 43.738281 12.710938 L 42.953125 12.710938 C 42.953125 12.5 43.035156 12.335938 43.160156 12.167969 C 43.285156 12 43.449219 11.875 43.65625 11.789062 C 43.863281 11.707031 44.113281 11.664062 44.359375 11.664062 C 44.773438 11.664062 45.066406 11.746094 45.3125 11.957031 C 45.5625 12.167969 45.6875 12.460938 45.6875 12.835938 L 45.6875 14.386719 C 45.6875 14.679688 45.726562 14.933594 45.8125 15.140625 L 45.8125 15.183594 Z M 44.238281 14.640625 C 44.402344 14.640625 44.527344 14.597656 44.652344 14.515625 C 44.773438 14.429688 44.898438 14.347656 44.941406 14.21875 L 44.941406 13.550781 L 44.527344 13.550781 C 44.238281 13.550781 44.03125 13.589844 43.863281 13.71875 C 43.699219 13.84375 43.65625 13.96875 43.65625 14.136719 C 43.65625 14.304688 43.699219 14.386719 43.824219 14.515625 C 43.945312 14.597656 44.070312 14.640625 44.238281 14.640625 Z M 44.238281 14.640625 " fill-opacity="1" fill-rule="nonzero"/><path fill="#535453" d="M 47.507812 10.867188 L 47.507812 11.707031 L 48.128906 11.707031 L 48.128906 12.292969 L 47.507812 12.292969 L 47.507812 14.21875 C 47.507812 14.347656 47.550781 14.429688 47.59375 14.515625 C 47.632812 14.554688 47.714844 14.597656 47.882812 14.597656 C 47.964844 14.597656 48.046875 14.597656 48.171875 14.554688 L 48.171875 15.140625 C 48.007812 15.183594 47.839844 15.226562 47.675781 15.226562 C 47.09375 15.226562 46.804688 14.890625 46.804688 14.21875 L 46.804688 12.25 L 46.226562 12.25 L 46.226562 11.707031 L 46.804688 11.707031 L 46.804688 10.867188 Z M 47.507812 10.867188 " fill-opacity="1" fill-rule="nonzero"/><path fill="#535453" d="M 48.710938 10.824219 C 48.710938 10.699219 48.753906 10.617188 48.835938 10.53125 C 48.917969 10.449219 49 10.40625 49.167969 10.40625 C 49.289062 10.40625 49.414062 10.449219 49.496094 10.53125 C 49.582031 10.617188 49.621094 10.699219 49.621094 10.824219 C 49.621094 10.949219 49.582031 11.035156 49.496094 11.117188 C 49.414062 11.203125 49.332031 11.246094 49.167969 11.246094 C 49.042969 11.246094 48.917969 11.203125 48.835938 11.117188 C 48.753906 11.035156 48.710938 10.949219 48.710938 10.824219 Z M 49.539062 15.183594 L 48.753906 15.183594 L 48.753906 11.707031 L 49.539062 11.707031 Z M 49.539062 15.183594 " fill-opacity="1" fill-rule="nonzero"/><path fill="#535453" d="M 50.242188 13.425781 C 50.242188 13.089844 50.328125 12.796875 50.449219 12.5 C 50.574219 12.207031 50.78125 12 51.03125 11.875 C 51.277344 11.746094 51.570312 11.664062 51.859375 11.664062 C 52.316406 11.664062 52.6875 11.832031 52.976562 12.125 C 53.269531 12.417969 53.433594 12.835938 53.433594 13.339844 L 53.433594 13.507812 C 53.433594 13.84375 53.351562 14.136719 53.226562 14.429688 C 53.101562 14.679688 52.894531 14.890625 52.6875 15.058594 C 52.4375 15.226562 52.148438 15.269531 51.859375 15.269531 C 51.363281 15.269531 50.988281 15.101562 50.699219 14.765625 C 50.367188 14.429688 50.242188 14.011719 50.242188 13.425781 Z M 50.988281 13.507812 C 50.988281 13.886719 51.070312 14.136719 51.195312 14.347656 C 51.363281 14.554688 51.527344 14.640625 51.816406 14.640625 C 52.066406 14.640625 52.273438 14.554688 52.4375 14.347656 C 52.5625 14.136719 52.644531 13.84375 52.644531 13.425781 C 52.644531 13.089844 52.5625 12.796875 52.4375 12.585938 C 52.273438 12.375 52.066406 12.292969 51.816406 12.292969 C 51.570312 12.292969 51.363281 12.375 51.238281 12.585938 C 51.070312 12.796875 50.988281 13.089844 50.988281 13.507812 Z M 50.988281 13.507812 " fill-opacity="1" fill-rule="nonzero"/><path fill="#535453" d="M 54.800781 11.707031 L 54.84375 12.125 C 55.089844 11.832031 55.421875 11.664062 55.835938 11.664062 C 56.539062 11.664062 56.914062 12.082031 56.914062 12.921875 L 56.914062 15.226562 L 56.125 15.226562 L 56.125 12.964844 C 56.125 12.753906 56.085938 12.585938 56 12.460938 C 55.917969 12.335938 55.753906 12.292969 55.546875 12.292969 C 55.214844 12.292969 55.007812 12.417969 54.84375 12.710938 L 54.84375 15.183594 L 54.054688 15.183594 L 54.054688 11.707031 Z M 54.800781 11.707031 " fill-opacity="1" fill-rule="nonzero"/><path fill="#535453" d="M 59.730469 15.183594 C 59.6875 15.101562 59.648438 15.015625 59.648438 14.847656 C 59.398438 15.101562 59.109375 15.226562 58.734375 15.226562 C 58.40625 15.226562 58.113281 15.140625 57.90625 14.933594 C 57.699219 14.722656 57.574219 14.472656 57.574219 14.179688 C 57.574219 13.800781 57.699219 13.507812 57.992188 13.339844 C 58.28125 13.128906 58.652344 13.046875 59.148438 13.046875 L 59.605469 13.046875 L 59.605469 12.835938 C 59.605469 12.667969 59.5625 12.5 59.441406 12.417969 C 59.355469 12.292969 59.191406 12.25 58.984375 12.25 C 58.820312 12.25 58.652344 12.292969 58.570312 12.375 C 58.445312 12.460938 58.40625 12.585938 58.40625 12.710938 L 57.660156 12.710938 C 57.660156 12.5 57.742188 12.335938 57.867188 12.167969 C 57.992188 12 58.15625 11.875 58.363281 11.789062 C 58.570312 11.707031 58.820312 11.664062 59.066406 11.664062 C 59.480469 11.664062 59.773438 11.746094 60.019531 11.957031 C 60.269531 12.167969 60.394531 12.460938 60.394531 12.835938 L 60.394531 14.386719 C 60.394531 14.679688 60.433594 14.933594 60.515625 15.140625 L 60.515625 15.183594 Z M 58.902344 14.640625 C 59.066406 14.640625 59.191406 14.597656 59.316406 14.515625 C 59.441406 14.429688 59.566406 14.347656 59.605469 14.21875 L 59.605469 13.550781 L 59.191406 13.550781 C 58.902344 13.550781 58.695312 13.589844 58.527344 13.71875 C 58.40625 13.800781 58.320312 13.96875 58.320312 14.136719 C 58.320312 14.304688 58.363281 14.386719 58.488281 14.515625 C 58.613281 14.597656 58.734375 14.640625 58.902344 14.640625 Z M 58.902344 14.640625 " fill-opacity="1" fill-rule="nonzero"/><path fill="#535453" d="M 61.261719 10.28125 L 62.050781 10.28125 L 62.050781 15.183594 L 61.261719 15.183594 Z M 61.261719 10.28125 " fill-opacity="1" fill-rule="nonzero"/><path fill="#535453" d="M 41.335938 19.753906 C 41.335938 19.628906 41.296875 19.5 41.171875 19.417969 C 41.046875 19.335938 40.882812 19.292969 40.589844 19.207031 C 40.34375 19.167969 40.09375 19.082031 39.929688 19 C 39.554688 18.832031 39.347656 18.539062 39.347656 18.160156 C 39.347656 17.867188 39.472656 17.617188 39.722656 17.40625 C 39.96875 17.195312 40.300781 17.113281 40.675781 17.113281 C 41.089844 17.113281 41.417969 17.195312 41.667969 17.40625 C 41.917969 17.617188 42.042969 17.867188 42.042969 18.203125 L 41.253906 18.203125 C 41.253906 18.035156 41.210938 17.910156 41.089844 17.824219 C 40.964844 17.742188 40.839844 17.65625 40.632812 17.65625 C 40.46875 17.65625 40.34375 17.699219 40.21875 17.78125 C 40.09375 17.867188 40.050781 17.949219 40.050781 18.117188 C 40.050781 18.246094 40.09375 18.328125 40.21875 18.410156 C 40.300781 18.496094 40.507812 18.539062 40.839844 18.621094 C 41.128906 18.707031 41.378906 18.789062 41.542969 18.871094 C 41.710938 18.957031 41.832031 19.082031 41.917969 19.207031 C 42 19.335938 42.042969 19.5 42.042969 19.667969 C 42.042969 19.960938 41.917969 20.257812 41.667969 20.425781 C 41.417969 20.632812 41.089844 20.71875 40.675781 20.71875 C 40.382812 20.71875 40.136719 20.675781 39.929688 20.550781 C 39.722656 20.464844 39.554688 20.296875 39.429688 20.128906 C 39.308594 19.960938 39.265625 19.753906 39.265625 19.542969 L 40.011719 19.542969 C 40.011719 19.710938 40.09375 19.878906 40.21875 19.960938 C 40.34375 20.046875 40.507812 20.128906 40.714844 20.128906 C 40.921875 20.128906 41.089844 20.089844 41.171875 20.003906 C 41.296875 19.960938 41.335938 19.878906 41.335938 19.753906 Z M 41.335938 19.753906 " fill-opacity="1" fill-rule="nonzero"/><path fill="#535453" d="M 44.195312 20.128906 C 44.402344 20.128906 44.566406 20.089844 44.691406 19.960938 C 44.816406 19.835938 44.898438 19.710938 44.898438 19.542969 L 45.644531 19.542969 C 45.644531 19.753906 45.5625 19.960938 45.4375 20.128906 C 45.3125 20.296875 45.148438 20.464844 44.941406 20.589844 C 44.734375 20.71875 44.484375 20.757812 44.238281 20.757812 C 43.738281 20.757812 43.367188 20.589844 43.078125 20.296875 C 42.785156 19.960938 42.664062 19.542969 42.664062 19 L 42.664062 18.914062 C 42.664062 18.371094 42.785156 17.949219 43.078125 17.65625 C 43.367188 17.320312 43.738281 17.195312 44.238281 17.195312 C 44.652344 17.195312 44.980469 17.320312 45.230469 17.574219 C 45.480469 17.824219 45.605469 18.117188 45.644531 18.539062 L 44.898438 18.539062 C 44.898438 18.328125 44.816406 18.160156 44.691406 18.035156 C 44.566406 17.910156 44.402344 17.824219 44.195312 17.824219 C 43.945312 17.824219 43.738281 17.910156 43.617188 18.117188 C 43.492188 18.285156 43.40625 18.578125 43.40625 18.957031 L 43.40625 19.082031 C 43.40625 19.460938 43.492188 19.753906 43.617188 19.921875 C 43.738281 20.046875 43.945312 20.128906 44.195312 20.128906 Z M 44.195312 20.128906 " fill-opacity="1" fill-rule="nonzero"/><path fill="#535453" d="M 46.929688 17.574219 C 47.179688 17.28125 47.507812 17.113281 47.882812 17.113281 C 48.628906 17.113281 49 17.53125 49 18.371094 L 49 20.632812 L 48.214844 20.632812 L 48.214844 18.371094 C 48.214844 18.117188 48.171875 17.949219 48.046875 17.867188 C 47.964844 17.78125 47.800781 17.699219 47.59375 17.699219 C 47.300781 17.699219 47.054688 17.824219 46.886719 18.117188 L 46.886719 20.589844 L 46.101562 20.589844 L 46.101562 15.730469 L 46.886719 15.730469 L 46.886719 17.574219 Z M 46.929688 17.574219 " fill-opacity="1" fill-rule="nonzero"/><path fill="#535453" d="M 49.664062 18.914062 C 49.664062 18.578125 49.746094 18.285156 49.871094 17.992188 C 49.996094 17.699219 50.203125 17.488281 50.449219 17.363281 C 50.699219 17.238281 50.988281 17.15625 51.277344 17.15625 C 51.734375 17.15625 52.109375 17.320312 52.398438 17.617188 C 52.6875 17.910156 52.851562 18.328125 52.851562 18.832031 L 52.851562 19 C 52.851562 19.335938 52.769531 19.628906 52.644531 19.921875 C 52.523438 20.171875 52.316406 20.382812 52.109375 20.550781 C 51.859375 20.71875 51.570312 20.757812 51.277344 20.757812 C 50.78125 20.757812 50.410156 20.589844 50.121094 20.257812 C 49.789062 19.921875 49.664062 19.5 49.664062 18.914062 Z M 50.410156 19 C 50.410156 19.375 50.492188 19.628906 50.617188 19.835938 C 50.78125 20.046875 50.949219 20.128906 51.238281 20.128906 C 51.484375 20.128906 51.695312 20.046875 51.859375 19.835938 C 51.984375 19.628906 52.066406 19.335938 52.066406 18.914062 C 52.066406 18.578125 51.984375 18.285156 51.859375 18.078125 C 51.695312 17.867188 51.484375 17.78125 51.238281 17.78125 C 50.988281 17.78125 50.78125 17.867188 50.65625 18.078125 C 50.492188 18.285156 50.410156 18.578125 50.410156 19 Z M 50.410156 19 " fill-opacity="1" fill-rule="nonzero"/><path fill="#535453" d="M 53.515625 15.730469 L 54.304688 15.730469 L 54.304688 20.675781 L 53.515625 20.675781 Z M 53.515625 15.730469 " fill-opacity="1" fill-rule="nonzero"/><path fill="#535453" d="M 57.203125 20.675781 C 57.160156 20.589844 57.121094 20.507812 57.121094 20.339844 C 56.871094 20.589844 56.582031 20.71875 56.207031 20.71875 C 55.878906 20.71875 55.585938 20.632812 55.378906 20.425781 C 55.171875 20.214844 55.050781 19.960938 55.050781 19.667969 C 55.050781 19.292969 55.171875 19 55.464844 18.832031 C 55.753906 18.621094 56.125 18.539062 56.625 18.539062 L 57.078125 18.539062 L 57.078125 18.328125 C 57.078125 18.160156 57.039062 17.992188 56.914062 17.910156 C 56.832031 17.78125 56.664062 17.742188 56.457031 17.742188 C 56.292969 17.742188 56.125 17.78125 56.042969 17.867188 C 55.917969 17.949219 55.878906 18.078125 55.878906 18.203125 L 55.089844 18.203125 C 55.089844 17.992188 55.171875 17.824219 55.296875 17.65625 C 55.421875 17.488281 55.585938 17.363281 55.792969 17.28125 C 56 17.195312 56.25 17.15625 56.5 17.15625 C 56.914062 17.15625 57.203125 17.238281 57.453125 17.449219 C 57.699219 17.65625 57.824219 17.949219 57.824219 18.328125 L 57.824219 19.878906 C 57.824219 20.171875 57.867188 20.425781 57.949219 20.632812 L 57.949219 20.675781 Z M 56.375 20.128906 C 56.539062 20.128906 56.664062 20.089844 56.789062 20.003906 C 56.914062 19.921875 57.039062 19.835938 57.078125 19.710938 L 57.078125 19.039062 L 56.664062 19.039062 C 56.375 19.039062 56.167969 19.082031 56 19.207031 C 55.878906 19.292969 55.792969 19.460938 55.792969 19.628906 C 55.792969 19.796875 55.835938 19.878906 55.960938 20.003906 C 56.042969 20.089844 56.207031 20.128906 56.375 20.128906 Z M 56.375 20.128906 " fill-opacity="1" fill-rule="nonzero"/><path fill="#535453" d="M 60.476562 17.910156 C 60.394531 17.910156 60.269531 17.867188 60.144531 17.867188 C 59.773438 17.867188 59.566406 17.992188 59.441406 18.285156 L 59.441406 20.675781 L 58.652344 20.675781 L 58.652344 17.195312 L 59.398438 17.195312 L 59.398438 17.574219 C 59.5625 17.28125 59.855469 17.113281 60.1875 17.113281 C 60.308594 17.113281 60.394531 17.113281 60.476562 17.15625 Z M 60.476562 17.910156 " fill-opacity="1" fill-rule="nonzero"/><path fill="#535453" d="M 62.878906 19.753906 C 62.878906 19.628906 62.835938 19.5 62.710938 19.417969 C 62.589844 19.335938 62.421875 19.292969 62.132812 19.207031 C 61.882812 19.167969 61.636719 19.082031 61.46875 19 C 61.097656 18.832031 60.890625 18.539062 60.890625 18.160156 C 60.890625 17.867188 61.015625 17.617188 61.261719 17.40625 C 61.511719 17.195312 61.84375 17.113281 62.214844 17.113281 C 62.628906 17.113281 62.960938 17.195312 63.210938 17.40625 C 63.457031 17.617188 63.582031 17.867188 63.582031 18.203125 L 62.796875 18.203125 C 62.796875 18.035156 62.753906 17.910156 62.628906 17.824219 C 62.503906 17.742188 62.382812 17.65625 62.175781 17.65625 C 62.007812 17.65625 61.882812 17.699219 61.761719 17.78125 C 61.636719 17.867188 61.59375 17.949219 61.59375 18.117188 C 61.59375 18.246094 61.636719 18.328125 61.761719 18.410156 C 61.84375 18.496094 62.050781 18.539062 62.382812 18.621094 C 62.671875 18.707031 62.921875 18.789062 63.085938 18.871094 C 63.25 18.957031 63.375 19.082031 63.457031 19.207031 C 63.542969 19.335938 63.582031 19.5 63.582031 19.667969 C 63.582031 19.960938 63.457031 20.257812 63.210938 20.425781 C 62.960938 20.632812 62.628906 20.71875 62.214844 20.71875 C 61.925781 20.71875 61.675781 20.675781 61.46875 20.550781 C 61.261719 20.464844 61.097656 20.296875 60.972656 20.128906 C 60.847656 19.960938 60.808594 19.753906 60.808594 19.542969 L 61.554688 19.542969 C 61.554688 19.710938 61.636719 19.878906 61.761719 19.960938 C 61.882812 20.046875 62.050781 20.128906 62.257812 20.128906 C 62.464844 20.128906 62.628906 20.089844 62.710938 20.003906 C 62.835938 19.960938 62.878906 19.878906 62.878906 19.753906 Z M 62.878906 19.753906 " fill-opacity="1" fill-rule="nonzero"/><path fill="#535453" d="M 65.074219 17.574219 C 65.324219 17.28125 65.652344 17.113281 66.027344 17.113281 C 66.773438 17.113281 67.144531 17.53125 67.144531 18.371094 L 67.144531 20.632812 L 66.359375 20.632812 L 66.359375 18.371094 C 66.359375 18.117188 66.316406 17.949219 66.191406 17.867188 C 66.109375 17.78125 65.945312 17.699219 65.738281 17.699219 C 65.445312 17.699219 65.199219 17.824219 65.03125 18.117188 L 65.03125 20.589844 L 64.285156 20.589844 L 64.285156 15.730469 L 65.074219 15.730469 Z M 65.074219 17.574219 " fill-opacity="1" fill-rule="nonzero"/><path fill="#535453" d="M 67.933594 16.316406 C 67.933594 16.191406 67.972656 16.105469 68.058594 16.023438 C 68.140625 15.9375 68.222656 15.898438 68.386719 15.898438 C 68.554688 15.898438 68.636719 15.9375 68.71875 16.023438 C 68.800781 16.105469 68.84375 16.191406 68.84375 16.316406 C 68.84375 16.441406 68.800781 16.527344 68.71875 16.609375 C 68.636719 16.695312 68.554688 16.734375 68.386719 16.734375 C 68.222656 16.734375 68.140625 16.695312 68.058594 16.609375 C 67.972656 16.527344 67.933594 16.441406 67.933594 16.316406 Z M 68.761719 20.675781 L 67.972656 20.675781 L 67.972656 17.195312 L 68.761719 17.195312 Z M 68.761719 20.675781 " fill-opacity="1" fill-rule="nonzero"/><path fill="#535453" d="M 72.613281 19 C 72.613281 19.542969 72.488281 19.960938 72.242188 20.296875 C 71.992188 20.632812 71.660156 20.757812 71.289062 20.757812 C 70.914062 20.757812 70.625 20.632812 70.375 20.382812 L 70.375 22.015625 L 69.589844 22.015625 L 69.589844 17.195312 L 70.292969 17.195312 L 70.335938 17.53125 C 70.542969 17.238281 70.875 17.113281 71.246094 17.113281 C 71.660156 17.113281 71.992188 17.28125 72.242188 17.574219 C 72.488281 17.910156 72.613281 18.328125 72.613281 18.871094 Z M 71.828125 18.914062 C 71.828125 18.578125 71.742188 18.285156 71.621094 18.078125 C 71.496094 17.867188 71.289062 17.78125 71.039062 17.78125 C 70.707031 17.78125 70.5 17.910156 70.375 18.160156 L 70.375 19.710938 C 70.5 19.960938 70.75 20.128906 71.082031 20.128906 C 71.328125 20.128906 71.535156 20.046875 71.660156 19.835938 C 71.742188 19.628906 71.828125 19.335938 71.828125 18.914062 Z M 71.828125 18.914062 " fill-opacity="1" fill-rule="nonzero"/><path fill="#535453" d="M 42.414062 24.449219 C 42.414062 24.992188 42.289062 25.410156 42.042969 25.746094 C 41.792969 26.082031 41.460938 26.207031 41.089844 26.207031 C 40.714844 26.207031 40.425781 26.082031 40.175781 25.832031 L 40.175781 27.464844 L 39.429688 27.464844 L 39.429688 22.6875 L 40.136719 22.6875 L 40.175781 23.023438 C 40.382812 22.730469 40.714844 22.601562 41.089844 22.601562 C 41.503906 22.601562 41.832031 22.769531 42.082031 23.066406 C 42.332031 23.398438 42.457031 23.820312 42.457031 24.363281 L 42.457031 24.449219 Z M 41.667969 24.40625 C 41.667969 24.070312 41.585938 23.777344 41.460938 23.566406 C 41.335938 23.359375 41.128906 23.273438 40.882812 23.273438 C 40.550781 23.273438 40.34375 23.398438 40.21875 23.652344 L 40.21875 25.203125 C 40.34375 25.453125 40.589844 25.621094 40.921875 25.621094 C 41.171875 25.621094 41.378906 25.539062 41.503906 25.328125 C 41.625 25.117188 41.667969 24.824219 41.667969 24.40625 Z M 41.667969 24.40625 " fill-opacity="1" fill-rule="nonzero"/><path fill="#535453" d="M 42.953125 24.40625 C 42.953125 24.070312 43.035156 23.777344 43.160156 23.484375 C 43.285156 23.191406 43.492188 22.980469 43.738281 22.855469 C 43.988281 22.730469 44.277344 22.644531 44.566406 22.644531 C 45.023438 22.644531 45.398438 22.8125 45.6875 23.105469 C 45.976562 23.398438 46.140625 23.820312 46.140625 24.320312 L 46.140625 24.488281 C 46.140625 24.824219 46.058594 25.117188 45.933594 25.410156 C 45.8125 25.664062 45.605469 25.871094 45.398438 26.039062 C 45.148438 26.207031 44.859375 26.25 44.566406 26.25 C 44.070312 26.25 43.699219 26.082031 43.40625 25.746094 C 43.078125 25.410156 42.953125 24.992188 42.953125 24.40625 Z M 43.699219 24.449219 C 43.699219 24.824219 43.78125 25.078125 43.90625 25.285156 C 44.070312 25.496094 44.238281 25.578125 44.527344 25.578125 C 44.773438 25.578125 44.980469 25.496094 45.148438 25.285156 C 45.273438 25.078125 45.355469 24.78125 45.355469 24.363281 C 45.355469 24.027344 45.273438 23.734375 45.148438 23.527344 C 44.980469 23.316406 44.773438 23.230469 44.527344 23.230469 C 44.277344 23.230469 44.070312 23.316406 43.945312 23.527344 C 43.78125 23.777344 43.699219 24.070312 43.699219 24.449219 Z M 43.699219 24.449219 " fill-opacity="1" fill-rule="nonzero"/><path fill="#535453" d="M 48.585938 23.398438 C 48.503906 23.398438 48.378906 23.359375 48.253906 23.359375 C 47.882812 23.359375 47.675781 23.484375 47.550781 23.777344 L 47.550781 26.167969 L 46.765625 26.167969 L 46.765625 22.6875 L 47.507812 22.6875 L 47.507812 23.066406 C 47.675781 22.769531 47.964844 22.601562 48.296875 22.601562 C 48.421875 22.601562 48.503906 22.601562 48.585938 22.644531 Z M 48.585938 23.398438 " fill-opacity="1" fill-rule="nonzero"/><path fill="#535453" d="M 50.203125 21.847656 L 50.203125 22.6875 L 50.824219 22.6875 L 50.824219 23.273438 L 50.203125 23.273438 L 50.203125 25.203125 C 50.203125 25.328125 50.242188 25.410156 50.285156 25.496094 C 50.328125 25.539062 50.410156 25.578125 50.574219 25.578125 C 50.65625 25.578125 50.742188 25.578125 50.863281 25.539062 L 50.863281 26.125 C 50.699219 26.167969 50.535156 26.207031 50.367188 26.207031 C 49.789062 26.207031 49.496094 25.871094 49.496094 25.203125 L 49.496094 23.230469 L 48.917969 23.230469 L 48.917969 22.644531 L 49.496094 22.644531 L 49.496094 21.808594 L 50.203125 21.808594 Z M 50.203125 21.847656 " fill-opacity="1" fill-rule="nonzero"/><path fill="#535453" d="M 53.433594 26.167969 C 53.390625 26.082031 53.351562 26 53.351562 25.832031 C 53.101562 26.082031 52.8125 26.207031 52.4375 26.207031 C 52.109375 26.207031 51.816406 26.125 51.609375 25.914062 C 51.402344 25.707031 51.277344 25.453125 51.277344 25.160156 C 51.277344 24.78125 51.402344 24.488281 51.695312 24.320312 C 51.984375 24.113281 52.355469 24.027344 52.851562 24.027344 L 53.308594 24.027344 L 53.308594 23.820312 C 53.308594 23.652344 53.269531 23.484375 53.144531 23.398438 C 53.058594 23.273438 52.894531 23.230469 52.6875 23.230469 C 52.523438 23.230469 52.355469 23.273438 52.273438 23.359375 C 52.148438 23.441406 52.109375 23.566406 52.109375 23.691406 L 51.320312 23.691406 C 51.320312 23.484375 51.402344 23.316406 51.527344 23.148438 C 51.652344 22.980469 51.816406 22.855469 52.023438 22.769531 C 52.230469 22.6875 52.480469 22.644531 52.730469 22.644531 C 53.144531 22.644531 53.433594 22.730469 53.683594 22.9375 C 53.929688 23.148438 54.054688 23.441406 54.054688 23.820312 L 54.054688 25.371094 C 54.054688 25.664062 54.097656 25.914062 54.179688 26.125 L 54.179688 26.167969 Z M 52.605469 25.621094 C 52.769531 25.621094 52.894531 25.578125 53.019531 25.496094 C 53.144531 25.410156 53.269531 25.328125 53.308594 25.203125 L 53.308594 24.53125 L 52.894531 24.53125 C 52.605469 24.53125 52.398438 24.574219 52.230469 24.699219 C 52.109375 24.78125 52.023438 24.949219 52.023438 25.117188 C 52.023438 25.285156 52.066406 25.371094 52.191406 25.496094 C 52.316406 25.578125 52.4375 25.621094 52.605469 25.621094 Z M 52.605469 25.621094 " fill-opacity="1" fill-rule="nonzero"/><path fill="#535453" d="M 54.925781 21.21875 L 55.710938 21.21875 L 55.710938 26.167969 L 54.925781 26.167969 Z M 54.925781 21.21875 " fill-opacity="1" fill-rule="nonzero"/><path fill="#535453" d="M 36.449219 16.777344 C 36.449219 13.800781 34.046875 11.414062 31.144531 11.414062 C 29.738281 11.414062 28.496094 11.957031 27.542969 12.835938 L 25.800781 12.835938 L 25.800781 26.207031 L 28.121094 26.207031 L 28.121094 22.183594 L 31.105469 22.183594 C 34.085938 22.140625 36.449219 19.753906 36.449219 16.777344 Z M 31.023438 19.796875 L 28.164062 19.796875 L 28.164062 16.902344 C 28.164062 15.4375 29.117188 14.09375 30.523438 13.800781 C 32.636719 13.382812 34.5 15.226562 34.085938 17.40625 C 33.796875 18.832031 32.472656 19.796875 31.023438 19.796875 Z M 31.023438 19.796875 " fill-opacity="1" fill-rule="nonzero"/><path fill="#535453" d="M 22.40625 18.746094 C 21.410156 17.949219 20.292969 17.824219 19.378906 17.699219 C 18.882812 17.65625 18.386719 17.574219 18.015625 17.449219 C 17.226562 17.15625 16.730469 16.441406 16.6875 15.730469 C 16.6875 15.226562 16.894531 14.765625 17.308594 14.386719 C 17.765625 13.96875 18.34375 13.757812 19.007812 13.71875 C 19.671875 13.71875 20.292969 13.925781 20.746094 14.304688 C 21.164062 14.679688 21.410156 15.140625 21.410156 15.644531 L 23.730469 15.605469 C 23.6875 14.429688 23.191406 13.339844 22.238281 12.542969 C 21.371094 11.789062 20.210938 11.371094 18.964844 11.410156 C 17.765625 11.453125 16.605469 11.875 15.734375 12.667969 C 14.824219 13.507812 14.367188 14.597656 14.367188 15.769531 C 14.410156 17.449219 15.488281 18.957031 17.144531 19.628906 C 17.808594 19.921875 18.511719 19.960938 19.132812 20.046875 C 19.878906 20.128906 20.5 20.214844 20.953125 20.589844 C 21.203125 20.800781 21.410156 21.050781 21.535156 21.304688 C 21.867188 22.015625 21.617188 22.644531 21.410156 22.980469 C 20.953125 23.734375 20.125 24.195312 19.257812 24.195312 C 18.550781 24.195312 17.890625 23.988281 17.433594 23.566406 C 16.976562 23.191406 16.730469 22.6875 16.730469 22.140625 L 14.410156 22.183594 C 14.449219 23.398438 14.988281 24.53125 15.941406 25.371094 C 16.855469 26.125 18.015625 26.542969 19.214844 26.542969 C 19.257812 26.542969 19.296875 26.542969 19.296875 26.542969 C 20.996094 26.5 22.527344 25.621094 23.398438 24.195312 C 24.144531 22.9375 24.226562 21.511719 23.605469 20.257812 C 23.316406 19.710938 22.902344 19.167969 22.40625 18.746094 Z M 22.40625 18.746094 " fill-opacity="1" fill-rule="nonzero"/><path fill="#535453" d="M 8.320312 11.496094 C 6.539062 11.160156 4.882812 11.707031 3.722656 12.835938 L 2.066406 12.835938 L 2.066406 26.207031 L 4.382812 26.207031 L 4.382812 16.820312 C 4.382812 15.476562 5.214844 14.179688 6.539062 13.84375 C 8.445312 13.382812 10.144531 14.808594 10.144531 16.652344 L 10.144531 26.207031 L 12.460938 26.207031 L 12.460938 16.859375 C 12.460938 14.347656 10.765625 12 8.320312 11.496094 Z M 8.320312 11.496094 " fill-opacity="1" fill-rule="nonzero"/></svg>