<svg xmlns="http://www.w3.org/2000/svg" xmlns:xlink="http://www.w3.org/1999/xlink" width="512" zoomAndPan="magnify" viewBox="0 0 384 383.999986" height="512" preserveAspectRatio="xMidYMid meet" version="1.0"><defs><g/><clipPath id="14a908ad63"><path d="M 76 134.378906 L 156.636719 134.378906 L 156.636719 161 L 76 161 Z M 76 134.378906 " clip-rule="nonzero"/></clipPath><clipPath id="ec857585f0"><path d="M 76 136 L 156.636719 136 L 156.636719 162 L 76 162 Z M 76 136 " clip-rule="nonzero"/></clipPath><clipPath id="f2baca17b0"><path d="M 89 179 L 98 179 L 98 195.820312 L 89 195.820312 Z M 89 179 " clip-rule="nonzero"/></clipPath></defs><g fill="#ffffff" fill-opacity="1"><g transform="translate(6.845734, 237.751379)"><g><path d="M 23.90625 -65.5 C 26.664062 -69.550781 30.003906 -72.289062 33.921875 -73.71875 C 37.835938 -75.144531 42.144531 -75.859375 46.84375 -75.859375 C 54.488281 -75.859375 60.679688 -74.382812 65.421875 -71.4375 C 70.171875 -68.488281 73.671875 -64.34375 75.921875 -59 C 78.179688 -53.65625 79.3125 -47.390625 79.3125 -40.203125 L 79.3125 0 L 65.90625 0 L 65.90625 -40.0625 C 65.90625 -44.757812 65.375 -48.90625 64.3125 -52.5 C 63.257812 -56.09375 61.28125 -58.878906 58.375 -60.859375 C 55.476562 -62.835938 51.3125 -63.828125 45.875 -63.828125 C 41.175781 -63.828125 37.191406 -62.789062 33.921875 -60.71875 C 30.648438 -58.65625 28.160156 -55.867188 26.453125 -52.359375 C 24.753906 -48.859375 23.90625 -44.945312 23.90625 -40.625 L 23.90625 0 L 10.359375 0 L 10.359375 -74.75 L 23.90625 -74.75 Z M 23.90625 -65.5 "/></g></g></g><g fill="#ffffff" fill-opacity="1"><g transform="translate(89.467462, 237.751379)"><g><path d="M 19.765625 -53.203125 C 19.765625 -50.890625 20.335938 -49.085938 21.484375 -47.796875 C 22.640625 -46.515625 24.132812 -45.597656 25.96875 -45.046875 C 27.8125 -44.492188 29.722656 -44.144531 31.703125 -44 C 33.691406 -43.863281 35.515625 -43.75 37.171875 -43.65625 C 40.671875 -43.382812 44.191406 -42.859375 47.734375 -42.078125 C 51.285156 -41.296875 54.535156 -40.097656 57.484375 -38.484375 C 60.429688 -36.867188 62.800781 -34.65625 64.59375 -31.84375 C 66.394531 -29.039062 67.296875 -25.519531 67.296875 -21.28125 C 67.296875 -16.945312 66.347656 -13.328125 64.453125 -10.421875 C 62.566406 -7.523438 60.078125 -5.222656 56.984375 -3.515625 C 53.898438 -1.816406 50.515625 -0.597656 46.828125 0.140625 C 43.148438 0.878906 39.5625 1.25 36.0625 1.25 C 30.90625 1.25 26.046875 0.46875 21.484375 -1.09375 C 16.921875 -2.664062 13.164062 -5.222656 10.21875 -8.765625 C 7.269531 -12.316406 5.613281 -17.039062 5.25 -22.9375 L 18.796875 -22.9375 C 19.066406 -18.789062 20.90625 -15.679688 24.3125 -13.609375 C 27.726562 -11.535156 31.738281 -10.5 36.34375 -10.5 C 38.644531 -10.5 41.128906 -10.796875 43.796875 -11.390625 C 46.472656 -11.992188 48.800781 -13.101562 50.78125 -14.71875 C 52.757812 -16.332031 53.75 -18.613281 53.75 -21.5625 C 53.75 -23.675781 53.125 -25.351562 51.875 -26.59375 C 50.632812 -27.84375 49.046875 -28.8125 47.109375 -29.5 C 45.179688 -30.1875 43.203125 -30.664062 41.171875 -30.9375 C 39.148438 -31.21875 37.304688 -31.40625 35.640625 -31.5 C 32.328125 -31.6875 28.941406 -32.125 25.484375 -32.8125 C 22.035156 -33.507812 18.859375 -34.640625 15.953125 -36.203125 C 13.054688 -37.765625 10.734375 -39.90625 8.984375 -42.625 C 7.234375 -45.34375 6.359375 -48.773438 6.359375 -52.921875 C 6.359375 -58.722656 7.832031 -63.328125 10.78125 -66.734375 C 13.726562 -70.140625 17.503906 -72.578125 22.109375 -74.046875 C 26.710938 -75.523438 31.410156 -76.265625 36.203125 -76.265625 C 41.171875 -76.265625 45.773438 -75.523438 50.015625 -74.046875 C 54.253906 -72.578125 57.753906 -70.226562 60.515625 -67 C 63.285156 -63.78125 64.804688 -59.546875 65.078125 -54.296875 L 51.671875 -54.296875 C 51.304688 -57.617188 49.578125 -60.082031 46.484375 -61.6875 C 43.398438 -63.300781 39.832031 -64.109375 35.78125 -64.109375 C 31.632812 -64.109375 27.925781 -63.253906 24.65625 -61.546875 C 21.394531 -59.847656 19.765625 -57.066406 19.765625 -53.203125 Z M 19.765625 -53.203125 "/></g></g></g><g fill="#ffffff" fill-opacity="1"><g transform="translate(154.542299, 237.751379)"><g><path d="M 19.765625 -53.203125 C 19.765625 -50.890625 20.335938 -49.085938 21.484375 -47.796875 C 22.640625 -46.515625 24.132812 -45.597656 25.96875 -45.046875 C 27.8125 -44.492188 29.722656 -44.144531 31.703125 -44 C 33.691406 -43.863281 35.515625 -43.75 37.171875 -43.65625 C 40.671875 -43.382812 44.191406 -42.859375 47.734375 -42.078125 C 51.285156 -41.296875 54.535156 -40.097656 57.484375 -38.484375 C 60.429688 -36.867188 62.800781 -34.65625 64.59375 -31.84375 C 66.394531 -29.039062 67.296875 -25.519531 67.296875 -21.28125 C 67.296875 -16.945312 66.347656 -13.328125 64.453125 -10.421875 C 62.566406 -7.523438 60.078125 -5.222656 56.984375 -3.515625 C 53.898438 -1.816406 50.515625 -0.597656 46.828125 0.140625 C 43.148438 0.878906 39.5625 1.25 36.0625 1.25 C 30.90625 1.25 26.046875 0.46875 21.484375 -1.09375 C 16.921875 -2.664062 13.164062 -5.222656 10.21875 -8.765625 C 7.269531 -12.316406 5.613281 -17.039062 5.25 -22.9375 L 18.796875 -22.9375 C 19.066406 -18.789062 20.90625 -15.679688 24.3125 -13.609375 C 27.726562 -11.535156 31.738281 -10.5 36.34375 -10.5 C 38.644531 -10.5 41.128906 -10.796875 43.796875 -11.390625 C 46.472656 -11.992188 48.800781 -13.101562 50.78125 -14.71875 C 52.757812 -16.332031 53.75 -18.613281 53.75 -21.5625 C 53.75 -23.675781 53.125 -25.351562 51.875 -26.59375 C 50.632812 -27.84375 49.046875 -28.8125 47.109375 -29.5 C 45.179688 -30.1875 43.203125 -30.664062 41.171875 -30.9375 C 39.148438 -31.21875 37.304688 -31.40625 35.640625 -31.5 C 32.328125 -31.6875 28.941406 -32.125 25.484375 -32.8125 C 22.035156 -33.507812 18.859375 -34.640625 15.953125 -36.203125 C 13.054688 -37.765625 10.734375 -39.90625 8.984375 -42.625 C 7.234375 -45.34375 6.359375 -48.773438 6.359375 -52.921875 C 6.359375 -58.722656 7.832031 -63.328125 10.78125 -66.734375 C 13.726562 -70.140625 17.503906 -72.578125 22.109375 -74.046875 C 26.710938 -75.523438 31.410156 -76.265625 36.203125 -76.265625 C 41.171875 -76.265625 45.773438 -75.523438 50.015625 -74.046875 C 54.253906 -72.578125 57.753906 -70.226562 60.515625 -67 C 63.285156 -63.78125 64.804688 -59.546875 65.078125 -54.296875 L 51.671875 -54.296875 C 51.304688 -57.617188 49.578125 -60.082031 46.484375 -61.6875 C 43.398438 -63.300781 39.832031 -64.109375 35.78125 -64.109375 C 31.632812 -64.109375 27.925781 -63.253906 24.65625 -61.546875 C 21.394531 -59.847656 19.765625 -57.066406 19.765625 -53.203125 Z M 19.765625 -53.203125 "/></g></g></g><path fill="#e59c0c" d="M 84.8125 152.242188 L 85.964844 151.84375 L 84.667969 153.089844 Z M 84.8125 152.242188 " fill-opacity="1" fill-rule="nonzero"/><path fill="#330c26" d="M 140.589844 165.558594 C 140.894531 166.929688 132.324219 170.144531 121.453125 172.742188 C 110.578125 175.335938 101.449219 176.339844 101.140625 174.96875 C 100.835938 173.59375 109.46875 170.363281 120.34375 167.769531 C 131.21875 165.175781 140.28125 164.183594 140.589844 165.558594 Z M 140.589844 165.558594 " fill-opacity="1" fill-rule="nonzero"/><g clip-path="url(#14a908ad63)"><path fill="#7c2c5d" d="M 154.105469 139.257812 L 113.449219 134.410156 L 77.238281 157.359375 C 76.410156 157.882812 76 158.902344 76.21875 159.882812 L 76.324219 160.339844 L 117.792969 159.929688 L 156.640625 141.597656 C 156.359375 140.339844 155.34375 139.40625 154.105469 139.257812 Z M 154.105469 139.257812 " fill-opacity="1" fill-rule="nonzero"/></g><g clip-path="url(#ec857585f0)"><path fill="#441131" d="M 76.324219 160.34375 L 113.902344 136.425781 L 156.640625 141.597656 L 118.246094 161.945312 Z M 76.324219 160.34375 " fill-opacity="1" fill-rule="nonzero"/></g><path fill="#70234f" d="M 140.597656 165.605469 L 139.578125 165.65625 C 126.363281 166.308594 113.269531 169.417969 101.105469 174.800781 L 101.109375 174.816406 L 96.890625 156.269531 L 98.132812 155.554688 C 109.3125 149.105469 121.914062 146.144531 134.734375 146.953125 L 136.382812 147.058594 Z M 140.597656 165.605469 " fill-opacity="1" fill-rule="nonzero"/><path fill="#601d46" d="M 136.382812 147.058594 L 134.734375 146.953125 C 127.554688 146.5 120.441406 147.230469 113.609375 149.09375 C 113.699219 149.175781 113.773438 149.28125 113.816406 149.425781 C 115.007812 153.320312 115.335938 157.710938 113.3125 161.390625 C 111.5 164.6875 108.367188 166.9375 105.027344 168.355469 C 103.40625 169.042969 101.730469 169.601562 100.019531 170.050781 L 101.109375 174.816406 L 101.105469 174.800781 C 113.269531 169.417969 126.363281 166.308594 139.578125 165.65625 L 140.597656 165.605469 Z M 136.382812 147.058594 " fill-opacity="1" fill-rule="nonzero"/><path fill="#511b3f" d="M 136.382812 147.058594 L 134.734375 146.953125 C 131.746094 146.765625 128.773438 146.785156 125.828125 147 C 132.710938 157.957031 119.246094 166.195312 110.515625 169.242188 C 107.207031 170.398438 103.8125 171.179688 100.378906 171.636719 L 101.109375 174.816406 L 101.105469 174.800781 C 113.269531 169.417969 126.363281 166.308594 139.578125 165.65625 L 140.597656 165.605469 Z M 136.382812 147.058594 " fill-opacity="1" fill-rule="nonzero"/><g clip-path="url(#f2baca17b0)"><path fill="#ffb208" d="M 89.503906 179.949219 L 91.640625 179.441406 L 97.421875 193.675781 C 95.449219 195.15625 92.996094 195.78125 90.585938 195.410156 L 90.328125 195.371094 Z M 89.503906 179.949219 " fill-opacity="1" fill-rule="nonzero"/><path fill="#f7931e" d="M 91.640625 179.441406 L 89.503906 179.949219 L 89.652344 182.730469 C 93.058594 182.511719 94.976562 187.730469 94.152344 190.800781 C 93.535156 193.101562 92.089844 194.5625 90.320312 195.273438 L 90.328125 195.371094 L 90.585938 195.410156 C 92.996094 195.78125 95.449219 195.15625 97.421875 193.675781 Z M 91.640625 179.441406 " fill-opacity="1" fill-rule="nonzero"/></g><path fill="#ffb208" d="M 90.6875 178.617188 L 90.015625 178.777344 L 84.167969 152.515625 C 84.15625 152.453125 84.191406 152.390625 84.253906 152.375 L 84.8125 152.242188 Z M 90.6875 178.617188 " fill-opacity="1" fill-rule="nonzero"/><path fill="#d1541c" d="M 92.667969 179.269531 C 92.667969 179.570312 92.613281 179.859375 92.5 180.136719 C 92.390625 180.414062 92.230469 180.660156 92.027344 180.871094 C 91.820312 181.082031 91.582031 181.246094 91.316406 181.363281 C 91.046875 181.476562 90.765625 181.535156 90.476562 181.535156 C 90.1875 181.535156 89.90625 181.476562 89.640625 181.363281 C 89.371094 181.246094 89.132812 181.082031 88.929688 180.871094 C 88.722656 180.660156 88.566406 180.414062 88.453125 180.136719 C 88.34375 179.859375 88.285156 179.570312 88.285156 179.269531 C 88.285156 178.96875 88.34375 178.679688 88.453125 178.398438 C 88.566406 178.121094 88.722656 177.878906 88.929688 177.664062 C 89.132812 177.453125 89.371094 177.289062 89.640625 177.171875 C 89.90625 177.058594 90.1875 177 90.476562 177 C 90.765625 177 91.046875 177.058594 91.316406 177.171875 C 91.582031 177.289062 91.820312 177.453125 92.027344 177.664062 C 92.230469 177.878906 92.390625 178.121094 92.5 178.398438 C 92.613281 178.679688 92.667969 178.96875 92.667969 179.269531 Z M 92.667969 179.269531 " fill-opacity="1" fill-rule="nonzero"/><g fill="#ffffff" fill-opacity="1"><g transform="translate(223.102622, 188.372104)"><g><path d="M 4.828125 -13.21875 C 5.378906 -14.03125 6.050781 -14.578125 6.84375 -14.859375 C 7.632812 -15.148438 8.503906 -15.296875 9.453125 -15.296875 C 10.992188 -15.296875 12.242188 -15 13.203125 -14.40625 C 14.160156 -13.8125 14.863281 -12.972656 15.3125 -11.890625 C 15.769531 -10.816406 16 -9.554688 16 -8.109375 L 16 0 L 13.296875 0 L 13.296875 -8.078125 C 13.296875 -9.023438 13.1875 -9.859375 12.96875 -10.578125 C 12.757812 -11.304688 12.363281 -11.867188 11.78125 -12.265625 C 11.195312 -12.671875 10.351562 -12.875 9.25 -12.875 C 8.300781 -12.875 7.5 -12.664062 6.84375 -12.25 C 6.1875 -11.832031 5.6875 -11.269531 5.34375 -10.5625 C 5 -9.851562 4.828125 -9.0625 4.828125 -8.1875 L 4.828125 0 L 2.09375 0 L 2.09375 -15.078125 L 4.828125 -15.078125 Z M 4.828125 -13.21875 "/></g></g></g><g fill="#ffffff" fill-opacity="1"><g transform="translate(239.468103, 188.372104)"><g><path d="M 17.75 0 L 15.03125 0 L 15.03125 -2.03125 C 14.675781 -1.488281 14.191406 -1.050781 13.578125 -0.71875 C 12.960938 -0.382812 12.3125 -0.144531 11.625 0 C 10.9375 0.144531 10.273438 0.226562 9.640625 0.25 C 7.898438 0.25 6.425781 -0.113281 5.21875 -0.84375 C 4.007812 -1.582031 3.09375 -2.550781 2.46875 -3.75 C 1.84375 -4.945312 1.53125 -6.234375 1.53125 -7.609375 C 1.53125 -8.960938 1.84375 -10.222656 2.46875 -11.390625 C 3.101562 -12.566406 4.023438 -13.515625 5.234375 -14.234375 C 6.441406 -14.960938 7.894531 -15.328125 9.59375 -15.328125 C 10.21875 -15.328125 10.863281 -15.265625 11.53125 -15.140625 C 12.207031 -15.023438 12.851562 -14.804688 13.46875 -14.484375 C 14.082031 -14.160156 14.609375 -13.691406 15.046875 -13.078125 L 15.03125 -15.078125 L 17.75 -15.078125 Z M 15.03125 -7.546875 C 15.03125 -8.753906 14.753906 -9.753906 14.203125 -10.546875 C 13.648438 -11.335938 12.957031 -11.929688 12.125 -12.328125 C 11.289062 -12.734375 10.445312 -12.9375 9.59375 -12.9375 C 8.488281 -12.9375 7.535156 -12.695312 6.734375 -12.21875 C 5.941406 -11.75 5.332031 -11.113281 4.90625 -10.3125 C 4.476562 -9.507812 4.265625 -8.609375 4.265625 -7.609375 C 4.265625 -6.660156 4.476562 -5.769531 4.90625 -4.9375 C 5.332031 -4.113281 5.941406 -3.445312 6.734375 -2.9375 C 7.523438 -2.425781 8.476562 -2.171875 9.59375 -2.171875 C 10.425781 -2.171875 11.257812 -2.363281 12.09375 -2.75 C 12.9375 -3.144531 13.632812 -3.742188 14.1875 -4.546875 C 14.75 -5.347656 15.03125 -6.347656 15.03125 -7.546875 Z M 15.03125 -7.546875 "/></g></g></g><g fill="#ffffff" fill-opacity="1"><g transform="translate(257.339073, 188.372104)"><g><path d="M 5.65625 -15.078125 L 8.96875 -15.078125 L 8.96875 -12.90625 L 5.65625 -12.90625 L 5.65625 -4.40625 C 5.65625 -3.507812 5.859375 -2.914062 6.265625 -2.625 C 6.679688 -2.34375 7.234375 -2.203125 7.921875 -2.203125 C 8.085938 -2.203125 8.265625 -2.207031 8.453125 -2.21875 C 8.648438 -2.226562 8.851562 -2.242188 9.0625 -2.265625 L 9.0625 0.03125 C 8.832031 0.0507812 8.613281 0.0625 8.40625 0.0625 C 8.207031 0.0703125 8.007812 0.078125 7.8125 0.078125 C 6.820312 0.078125 5.957031 -0.0507812 5.21875 -0.3125 C 4.488281 -0.582031 3.921875 -1.039062 3.515625 -1.6875 C 3.117188 -2.34375 2.921875 -3.257812 2.921875 -4.4375 L 2.921875 -12.90625 L 0.671875 -12.90625 L 0.671875 -15.078125 L 2.921875 -15.078125 L 2.921875 -17.890625 L 5.65625 -18.421875 Z M 5.65625 -15.078125 "/></g></g></g><g fill="#ffffff" fill-opacity="1"><g transform="translate(265.229092, 188.372104)"><g><path d="M 1.921875 -18.953125 C 1.921875 -19.472656 2.101562 -19.863281 2.46875 -20.125 C 2.832031 -20.382812 3.226562 -20.515625 3.65625 -20.515625 C 4.082031 -20.515625 4.46875 -20.390625 4.8125 -20.140625 C 5.15625 -19.890625 5.328125 -19.492188 5.328125 -18.953125 C 5.328125 -18.429688 5.148438 -18.035156 4.796875 -17.765625 C 4.441406 -17.492188 4.050781 -17.359375 3.625 -17.359375 C 3.21875 -17.359375 2.832031 -17.492188 2.46875 -17.765625 C 2.101562 -18.035156 1.921875 -18.429688 1.921875 -18.953125 Z M 2.265625 -15.25 L 2.265625 0 L 4.984375 0 L 4.984375 -15.25 Z M 2.265625 -15.25 "/></g></g></g><g fill="#ffffff" fill-opacity="1"><g transform="translate(271.028116, 188.372104)"><g><path d="M 17.703125 -7.53125 C 17.703125 -6.226562 17.472656 -5.085938 17.015625 -4.109375 C 16.554688 -3.128906 15.9375 -2.316406 15.15625 -1.671875 C 14.382812 -1.023438 13.507812 -0.535156 12.53125 -0.203125 C 11.550781 0.117188 10.550781 0.28125 9.53125 0.28125 C 8.53125 0.28125 7.546875 0.117188 6.578125 -0.203125 C 5.609375 -0.535156 4.738281 -1.023438 3.96875 -1.671875 C 3.195312 -2.316406 2.582031 -3.128906 2.125 -4.109375 C 1.675781 -5.085938 1.453125 -6.226562 1.453125 -7.53125 C 1.453125 -8.832031 1.675781 -9.96875 2.125 -10.9375 C 2.582031 -11.914062 3.203125 -12.726562 3.984375 -13.375 C 4.765625 -14.03125 5.640625 -14.519531 6.609375 -14.84375 C 7.585938 -15.164062 8.585938 -15.328125 9.609375 -15.328125 C 10.640625 -15.328125 11.628906 -15.164062 12.578125 -14.84375 C 13.535156 -14.519531 14.398438 -14.03125 15.171875 -13.375 C 15.941406 -12.726562 16.554688 -11.914062 17.015625 -10.9375 C 17.472656 -9.96875 17.703125 -8.832031 17.703125 -7.53125 Z M 4.1875 -7.53125 C 4.1875 -6.34375 4.445312 -5.351562 4.96875 -4.5625 C 5.5 -3.769531 6.175781 -3.171875 7 -2.765625 C 7.832031 -2.367188 8.695312 -2.171875 9.59375 -2.171875 C 10.5 -2.171875 11.359375 -2.367188 12.171875 -2.765625 C 12.992188 -3.171875 13.671875 -3.769531 14.203125 -4.5625 C 14.734375 -5.363281 15 -6.351562 15 -7.53125 C 15 -8.71875 14.738281 -9.707031 14.21875 -10.5 C 13.695312 -11.300781 13.019531 -11.898438 12.1875 -12.296875 C 11.363281 -12.703125 10.503906 -12.90625 9.609375 -12.90625 C 8.703125 -12.90625 7.832031 -12.703125 7 -12.296875 C 6.175781 -11.898438 5.5 -11.304688 4.96875 -10.515625 C 4.445312 -9.734375 4.1875 -8.738281 4.1875 -7.53125 Z M 4.1875 -7.53125 "/></g></g></g><g fill="#ffffff" fill-opacity="1"><g transform="translate(288.676064, 188.372104)"><g><path d="M 4.828125 -13.21875 C 5.378906 -14.03125 6.050781 -14.578125 6.84375 -14.859375 C 7.632812 -15.148438 8.503906 -15.296875 9.453125 -15.296875 C 10.992188 -15.296875 12.242188 -15 13.203125 -14.40625 C 14.160156 -13.8125 14.863281 -12.972656 15.3125 -11.890625 C 15.769531 -10.816406 16 -9.554688 16 -8.109375 L 16 0 L 13.296875 0 L 13.296875 -8.078125 C 13.296875 -9.023438 13.1875 -9.859375 12.96875 -10.578125 C 12.757812 -11.304688 12.363281 -11.867188 11.78125 -12.265625 C 11.195312 -12.671875 10.351562 -12.875 9.25 -12.875 C 8.300781 -12.875 7.5 -12.664062 6.84375 -12.25 C 6.1875 -11.832031 5.6875 -11.269531 5.34375 -10.5625 C 5 -9.851562 4.828125 -9.0625 4.828125 -8.1875 L 4.828125 0 L 2.09375 0 L 2.09375 -15.078125 L 4.828125 -15.078125 Z M 4.828125 -13.21875 "/></g></g></g><g fill="#ffffff" fill-opacity="1"><g transform="translate(305.041549, 188.372104)"><g><path d="M 17.75 0 L 15.03125 0 L 15.03125 -2.03125 C 14.675781 -1.488281 14.191406 -1.050781 13.578125 -0.71875 C 12.960938 -0.382812 12.3125 -0.144531 11.625 0 C 10.9375 0.144531 10.273438 0.226562 9.640625 0.25 C 7.898438 0.25 6.425781 -0.113281 5.21875 -0.84375 C 4.007812 -1.582031 3.09375 -2.550781 2.46875 -3.75 C 1.84375 -4.945312 1.53125 -6.234375 1.53125 -7.609375 C 1.53125 -8.960938 1.84375 -10.222656 2.46875 -11.390625 C 3.101562 -12.566406 4.023438 -13.515625 5.234375 -14.234375 C 6.441406 -14.960938 7.894531 -15.328125 9.59375 -15.328125 C 10.21875 -15.328125 10.863281 -15.265625 11.53125 -15.140625 C 12.207031 -15.023438 12.851562 -14.804688 13.46875 -14.484375 C 14.082031 -14.160156 14.609375 -13.691406 15.046875 -13.078125 L 15.03125 -15.078125 L 17.75 -15.078125 Z M 15.03125 -7.546875 C 15.03125 -8.753906 14.753906 -9.753906 14.203125 -10.546875 C 13.648438 -11.335938 12.957031 -11.929688 12.125 -12.328125 C 11.289062 -12.734375 10.445312 -12.9375 9.59375 -12.9375 C 8.488281 -12.9375 7.535156 -12.695312 6.734375 -12.21875 C 5.941406 -11.75 5.332031 -11.113281 4.90625 -10.3125 C 4.476562 -9.507812 4.265625 -8.609375 4.265625 -7.609375 C 4.265625 -6.660156 4.476562 -5.769531 4.90625 -4.9375 C 5.332031 -4.113281 5.941406 -3.445312 6.734375 -2.9375 C 7.523438 -2.425781 8.476562 -2.171875 9.59375 -2.171875 C 10.425781 -2.171875 11.257812 -2.363281 12.09375 -2.75 C 12.9375 -3.144531 13.632812 -3.742188 14.1875 -4.546875 C 14.75 -5.347656 15.03125 -6.347656 15.03125 -7.546875 Z M 15.03125 -7.546875 "/></g></g></g><g fill="#ffffff" fill-opacity="1"><g transform="translate(322.912522, 188.372104)"><g><path d="M 2.09375 0 L 2.09375 -19.515625 L 4.828125 -19.515625 L 4.828125 0 Z M 2.09375 0 "/></g></g></g><g fill="#ffffff" fill-opacity="1"><g transform="translate(223.102622, 209.281819)"><g><path d="M 3.984375 -10.734375 C 3.984375 -10.265625 4.097656 -9.898438 4.328125 -9.640625 C 4.566406 -9.378906 4.867188 -9.191406 5.234375 -9.078125 C 5.609375 -8.972656 5.992188 -8.90625 6.390625 -8.875 C 6.796875 -8.851562 7.164062 -8.832031 7.5 -8.8125 C 8.207031 -8.75 8.914062 -8.640625 9.625 -8.484375 C 10.34375 -8.328125 11 -8.085938 11.59375 -7.765625 C 12.1875 -7.441406 12.664062 -6.992188 13.03125 -6.421875 C 13.394531 -5.859375 13.578125 -5.148438 13.578125 -4.296875 C 13.578125 -3.421875 13.382812 -2.6875 13 -2.09375 C 12.625 -1.507812 12.125 -1.046875 11.5 -0.703125 C 10.875 -0.359375 10.1875 -0.113281 9.4375 0.03125 C 8.695312 0.175781 7.976562 0.25 7.28125 0.25 C 6.238281 0.25 5.253906 0.09375 4.328125 -0.21875 C 3.410156 -0.539062 2.65625 -1.054688 2.0625 -1.765625 C 1.46875 -2.484375 1.132812 -3.4375 1.0625 -4.625 L 3.796875 -4.625 C 3.847656 -3.789062 4.21875 -3.164062 4.90625 -2.75 C 5.59375 -2.332031 6.398438 -2.125 7.328125 -2.125 C 7.796875 -2.125 8.296875 -2.179688 8.828125 -2.296875 C 9.367188 -2.421875 9.835938 -2.644531 10.234375 -2.96875 C 10.640625 -3.289062 10.84375 -3.75 10.84375 -4.34375 C 10.84375 -4.769531 10.71875 -5.109375 10.46875 -5.359375 C 10.21875 -5.617188 9.894531 -5.816406 9.5 -5.953125 C 9.113281 -6.085938 8.710938 -6.179688 8.296875 -6.234375 C 7.890625 -6.296875 7.519531 -6.335938 7.1875 -6.359375 C 6.519531 -6.390625 5.835938 -6.472656 5.140625 -6.609375 C 4.441406 -6.753906 3.800781 -6.984375 3.21875 -7.296875 C 2.632812 -7.617188 2.164062 -8.050781 1.8125 -8.59375 C 1.457031 -9.144531 1.28125 -9.835938 1.28125 -10.671875 C 1.28125 -11.847656 1.578125 -12.78125 2.171875 -13.46875 C 2.765625 -14.15625 3.523438 -14.644531 4.453125 -14.9375 C 5.390625 -15.238281 6.335938 -15.390625 7.296875 -15.390625 C 8.304688 -15.390625 9.238281 -15.238281 10.09375 -14.9375 C 10.945312 -14.644531 11.648438 -14.171875 12.203125 -13.515625 C 12.765625 -12.867188 13.070312 -12.015625 13.125 -10.953125 L 10.421875 -10.953125 C 10.347656 -11.617188 10 -12.113281 9.375 -12.4375 C 8.757812 -12.769531 8.039062 -12.9375 7.21875 -12.9375 C 6.382812 -12.9375 5.632812 -12.765625 4.96875 -12.421875 C 4.3125 -12.078125 3.984375 -11.515625 3.984375 -10.734375 Z M 3.984375 -10.734375 "/></g></g></g><g fill="#ffffff" fill-opacity="1"><g transform="translate(235.927351, 209.281819)"><g><path d="M 5.65625 -15.078125 L 8.96875 -15.078125 L 8.96875 -12.90625 L 5.65625 -12.90625 L 5.65625 -4.40625 C 5.65625 -3.507812 5.859375 -2.914062 6.265625 -2.625 C 6.679688 -2.34375 7.234375 -2.203125 7.921875 -2.203125 C 8.085938 -2.203125 8.265625 -2.207031 8.453125 -2.21875 C 8.648438 -2.226562 8.851562 -2.242188 9.0625 -2.265625 L 9.0625 0.03125 C 8.832031 0.0507812 8.613281 0.0625 8.40625 0.0625 C 8.207031 0.0703125 8.007812 0.078125 7.8125 0.078125 C 6.820312 0.078125 5.957031 -0.0507812 5.21875 -0.3125 C 4.488281 -0.582031 3.921875 -1.039062 3.515625 -1.6875 C 3.117188 -2.34375 2.921875 -3.257812 2.921875 -4.4375 L 2.921875 -12.90625 L 0.671875 -12.90625 L 0.671875 -15.078125 L 2.921875 -15.078125 L 2.921875 -17.890625 L 5.65625 -18.421875 Z M 5.65625 -15.078125 "/></g></g></g><g fill="#ffffff" fill-opacity="1"><g transform="translate(243.817369, 209.281819)"><g><path d="M 13.21875 -1.984375 C 12.65625 -1.160156 11.960938 -0.585938 11.140625 -0.265625 C 10.328125 0.0546875 9.429688 0.21875 8.453125 0.21875 C 6.921875 0.21875 5.671875 -0.078125 4.703125 -0.671875 C 3.742188 -1.265625 3.035156 -2.101562 2.578125 -3.1875 C 2.117188 -4.28125 1.890625 -5.539062 1.890625 -6.96875 L 1.890625 -15.21875 L 4.625 -15.21875 L 4.625 -6.96875 C 4.625 -6.039062 4.726562 -5.210938 4.9375 -4.484375 C 5.15625 -3.765625 5.550781 -3.203125 6.125 -2.796875 C 6.707031 -2.398438 7.546875 -2.203125 8.640625 -2.203125 C 10.066406 -2.203125 11.160156 -2.648438 11.921875 -3.546875 C 12.691406 -4.453125 13.078125 -5.566406 13.078125 -6.890625 L 13.078125 -15.21875 L 15.8125 -15.21875 L 15.8125 0 L 13.21875 0 Z M 13.21875 -1.984375 "/></g></g></g><g fill="#ffffff" fill-opacity="1"><g transform="translate(260.071324, 209.281819)"><g><path d="M 16.921875 -19.515625 L 16.921875 0 L 14.1875 0 L 14.1875 -2.03125 C 13.644531 -1.21875 12.90625 -0.640625 11.96875 -0.296875 C 11.03125 0.046875 10.085938 0.226562 9.140625 0.25 C 7.390625 0.25 5.914062 -0.09375 4.71875 -0.78125 C 3.519531 -1.46875 2.617188 -2.40625 2.015625 -3.59375 C 1.410156 -4.78125 1.109375 -6.117188 1.109375 -7.609375 C 1.109375 -9.054688 1.421875 -10.359375 2.046875 -11.515625 C 2.671875 -12.679688 3.582031 -13.609375 4.78125 -14.296875 C 5.976562 -14.984375 7.421875 -15.328125 9.109375 -15.328125 C 10.046875 -15.328125 10.960938 -15.179688 11.859375 -14.890625 C 12.765625 -14.609375 13.539062 -14.019531 14.1875 -13.125 L 14.1875 -19.515625 Z M 14.1875 -7.546875 C 14.1875 -8.753906 13.941406 -9.753906 13.453125 -10.546875 C 12.960938 -11.335938 12.328125 -11.929688 11.546875 -12.328125 C 10.773438 -12.734375 9.960938 -12.9375 9.109375 -12.9375 C 7.992188 -12.9375 7.046875 -12.675781 6.265625 -12.15625 C 5.484375 -11.632812 4.882812 -10.960938 4.46875 -10.140625 C 4.050781 -9.328125 3.84375 -8.460938 3.84375 -7.546875 C 3.84375 -6.523438 4.046875 -5.601562 4.453125 -4.78125 C 4.867188 -3.96875 5.46875 -3.328125 6.25 -2.859375 C 7.039062 -2.398438 7.988281 -2.171875 9.09375 -2.171875 C 9.945312 -2.171875 10.765625 -2.363281 11.546875 -2.75 C 12.328125 -3.144531 12.960938 -3.742188 13.453125 -4.546875 C 13.941406 -5.347656 14.1875 -6.347656 14.1875 -7.546875 Z M 14.1875 -7.546875 "/></g></g></g><g fill="#ffffff" fill-opacity="1"><g transform="translate(277.440451, 209.281819)"><g><path d="M 16.890625 -8.1875 C 16.910156 -8.113281 16.921875 -8.039062 16.921875 -7.96875 C 16.921875 -7.894531 16.921875 -7.8125 16.921875 -7.71875 C 16.921875 -7.425781 16.894531 -7.148438 16.84375 -6.890625 L 4.0625 -6.890625 C 4.0625 -5.898438 4.328125 -5.050781 4.859375 -4.34375 C 5.390625 -3.644531 6.050781 -3.101562 6.84375 -2.71875 C 7.632812 -2.332031 8.398438 -2.140625 9.140625 -2.140625 C 10.066406 -2.140625 10.9375 -2.34375 11.75 -2.75 C 12.5625 -3.164062 13.1875 -3.800781 13.625 -4.65625 L 16.453125 -4.65625 C 16.078125 -3.5625 15.507812 -2.644531 14.75 -1.90625 C 13.988281 -1.175781 13.117188 -0.628906 12.140625 -0.265625 C 11.160156 0.0976562 10.148438 0.28125 9.109375 0.28125 C 8.148438 0.28125 7.203125 0.117188 6.265625 -0.203125 C 5.335938 -0.535156 4.5 -1.023438 3.75 -1.671875 C 3.007812 -2.316406 2.421875 -3.128906 1.984375 -4.109375 C 1.554688 -5.085938 1.34375 -6.226562 1.34375 -7.53125 C 1.34375 -8.832031 1.554688 -9.960938 1.984375 -10.921875 C 2.421875 -11.890625 3.007812 -12.695312 3.75 -13.34375 C 4.5 -14 5.335938 -14.488281 6.265625 -14.8125 C 7.203125 -15.132812 8.171875 -15.296875 9.171875 -15.296875 C 10.410156 -15.296875 11.601562 -15.03125 12.75 -14.5 C 13.894531 -13.976562 14.847656 -13.191406 15.609375 -12.140625 C 16.367188 -11.085938 16.796875 -9.769531 16.890625 -8.1875 Z M 14.015625 -9.140625 C 13.847656 -10.054688 13.519531 -10.785156 13.03125 -11.328125 C 12.539062 -11.878906 11.957031 -12.28125 11.28125 -12.53125 C 10.601562 -12.78125 9.898438 -12.90625 9.171875 -12.90625 C 8.441406 -12.90625 7.726562 -12.78125 7.03125 -12.53125 C 6.34375 -12.28125 5.738281 -11.875 5.21875 -11.3125 C 4.707031 -10.757812 4.363281 -10.035156 4.1875 -9.140625 Z M 14.015625 -9.140625 "/></g></g></g><g fill="#ffffff" fill-opacity="1"><g transform="translate(294.140481, 209.281819)"><g><path d="M 4.828125 -13.21875 C 5.378906 -14.03125 6.050781 -14.578125 6.84375 -14.859375 C 7.632812 -15.148438 8.503906 -15.296875 9.453125 -15.296875 C 10.992188 -15.296875 12.242188 -15 13.203125 -14.40625 C 14.160156 -13.8125 14.863281 -12.972656 15.3125 -11.890625 C 15.769531 -10.816406 16 -9.554688 16 -8.109375 L 16 0 L 13.296875 0 L 13.296875 -8.078125 C 13.296875 -9.023438 13.1875 -9.859375 12.96875 -10.578125 C 12.757812 -11.304688 12.363281 -11.867188 11.78125 -12.265625 C 11.195312 -12.671875 10.351562 -12.875 9.25 -12.875 C 8.300781 -12.875 7.5 -12.664062 6.84375 -12.25 C 6.1875 -11.832031 5.6875 -11.269531 5.34375 -10.5625 C 5 -9.851562 4.828125 -9.0625 4.828125 -8.1875 L 4.828125 0 L 2.09375 0 L 2.09375 -15.078125 L 4.828125 -15.078125 Z M 4.828125 -13.21875 "/></g></g></g><g fill="#ffffff" fill-opacity="1"><g transform="translate(310.505966, 209.281819)"><g><path d="M 5.65625 -15.078125 L 8.96875 -15.078125 L 8.96875 -12.90625 L 5.65625 -12.90625 L 5.65625 -4.40625 C 5.65625 -3.507812 5.859375 -2.914062 6.265625 -2.625 C 6.679688 -2.34375 7.234375 -2.203125 7.921875 -2.203125 C 8.085938 -2.203125 8.265625 -2.207031 8.453125 -2.21875 C 8.648438 -2.226562 8.851562 -2.242188 9.0625 -2.265625 L 9.0625 0.03125 C 8.832031 0.0507812 8.613281 0.0625 8.40625 0.0625 C 8.207031 0.0703125 8.007812 0.078125 7.8125 0.078125 C 6.820312 0.078125 5.957031 -0.0507812 5.21875 -0.3125 C 4.488281 -0.582031 3.921875 -1.039062 3.515625 -1.6875 C 3.117188 -2.34375 2.921875 -3.257812 2.921875 -4.4375 L 2.921875 -12.90625 L 0.671875 -12.90625 L 0.671875 -15.078125 L 2.921875 -15.078125 L 2.921875 -17.890625 L 5.65625 -18.421875 Z M 5.65625 -15.078125 "/></g></g></g><g fill="#ffffff" fill-opacity="1"><g transform="translate(223.102622, 230.191535)"><g><path d="M 3.984375 -10.734375 C 3.984375 -10.265625 4.097656 -9.898438 4.328125 -9.640625 C 4.566406 -9.378906 4.867188 -9.191406 5.234375 -9.078125 C 5.609375 -8.972656 5.992188 -8.90625 6.390625 -8.875 C 6.796875 -8.851562 7.164062 -8.832031 7.5 -8.8125 C 8.207031 -8.75 8.914062 -8.640625 9.625 -8.484375 C 10.34375 -8.328125 11 -8.085938 11.59375 -7.765625 C 12.1875 -7.441406 12.664062 -6.992188 13.03125 -6.421875 C 13.394531 -5.859375 13.578125 -5.148438 13.578125 -4.296875 C 13.578125 -3.421875 13.382812 -2.6875 13 -2.09375 C 12.625 -1.507812 12.125 -1.046875 11.5 -0.703125 C 10.875 -0.359375 10.1875 -0.113281 9.4375 0.03125 C 8.695312 0.175781 7.976562 0.25 7.28125 0.25 C 6.238281 0.25 5.253906 0.09375 4.328125 -0.21875 C 3.410156 -0.539062 2.65625 -1.054688 2.0625 -1.765625 C 1.46875 -2.484375 1.132812 -3.4375 1.0625 -4.625 L 3.796875 -4.625 C 3.847656 -3.789062 4.21875 -3.164062 4.90625 -2.75 C 5.59375 -2.332031 6.398438 -2.125 7.328125 -2.125 C 7.796875 -2.125 8.296875 -2.179688 8.828125 -2.296875 C 9.367188 -2.421875 9.835938 -2.644531 10.234375 -2.96875 C 10.640625 -3.289062 10.84375 -3.75 10.84375 -4.34375 C 10.84375 -4.769531 10.71875 -5.109375 10.46875 -5.359375 C 10.21875 -5.617188 9.894531 -5.816406 9.5 -5.953125 C 9.113281 -6.085938 8.710938 -6.179688 8.296875 -6.234375 C 7.890625 -6.296875 7.519531 -6.335938 7.1875 -6.359375 C 6.519531 -6.390625 5.835938 -6.472656 5.140625 -6.609375 C 4.441406 -6.753906 3.800781 -6.984375 3.21875 -7.296875 C 2.632812 -7.617188 2.164062 -8.050781 1.8125 -8.59375 C 1.457031 -9.144531 1.28125 -9.835938 1.28125 -10.671875 C 1.28125 -11.847656 1.578125 -12.78125 2.171875 -13.46875 C 2.765625 -14.15625 3.523438 -14.644531 4.453125 -14.9375 C 5.390625 -15.238281 6.335938 -15.390625 7.296875 -15.390625 C 8.304688 -15.390625 9.238281 -15.238281 10.09375 -14.9375 C 10.945312 -14.644531 11.648438 -14.171875 12.203125 -13.515625 C 12.765625 -12.867188 13.070312 -12.015625 13.125 -10.953125 L 10.421875 -10.953125 C 10.347656 -11.617188 10 -12.113281 9.375 -12.4375 C 8.757812 -12.769531 8.039062 -12.9375 7.21875 -12.9375 C 6.382812 -12.9375 5.632812 -12.765625 4.96875 -12.421875 C 4.3125 -12.078125 3.984375 -11.515625 3.984375 -10.734375 Z M 3.984375 -10.734375 "/></g></g></g><g fill="#ffffff" fill-opacity="1"><g transform="translate(235.927351, 230.191535)"><g><path d="M 16.859375 -5.75 C 16.617188 -4.40625 16.109375 -3.289062 15.328125 -2.40625 C 14.546875 -1.53125 13.613281 -0.875 12.53125 -0.4375 C 11.457031 0 10.347656 0.21875 9.203125 0.21875 C 8.234375 0.21875 7.285156 0.0546875 6.359375 -0.265625 C 5.429688 -0.585938 4.59375 -1.070312 3.84375 -1.71875 C 3.101562 -2.375 2.515625 -3.1875 2.078125 -4.15625 C 1.640625 -5.125 1.421875 -6.253906 1.421875 -7.546875 C 1.421875 -8.847656 1.640625 -9.988281 2.078125 -10.96875 C 2.515625 -11.945312 3.109375 -12.753906 3.859375 -13.390625 C 4.609375 -14.035156 5.445312 -14.519531 6.375 -14.84375 C 7.3125 -15.164062 8.269531 -15.328125 9.25 -15.328125 C 10.40625 -15.328125 11.507812 -15.109375 12.5625 -14.671875 C 13.625 -14.234375 14.546875 -13.566406 15.328125 -12.671875 C 16.109375 -11.785156 16.617188 -10.675781 16.859375 -9.34375 L 14.046875 -9.34375 C 13.710938 -10.550781 13.09375 -11.445312 12.1875 -12.03125 C 11.289062 -12.613281 10.320312 -12.90625 9.28125 -12.90625 C 8.445312 -12.90625 7.632812 -12.707031 6.84375 -12.3125 C 6.050781 -11.925781 5.40625 -11.335938 4.90625 -10.546875 C 4.40625 -9.753906 4.15625 -8.753906 4.15625 -7.546875 C 4.15625 -6.347656 4.40625 -5.347656 4.90625 -4.546875 C 5.40625 -3.742188 6.050781 -3.144531 6.84375 -2.75 C 7.632812 -2.363281 8.457031 -2.171875 9.3125 -2.171875 C 10.351562 -2.171875 11.316406 -2.46875 12.203125 -3.0625 C 13.097656 -3.65625 13.710938 -4.550781 14.046875 -5.75 Z M 16.859375 -5.75 "/></g></g></g><g fill="#ffffff" fill-opacity="1"><g transform="translate(252.48799, 230.191535)"><g><path d="M 4.703125 -13.21875 C 5.285156 -14.03125 5.96875 -14.578125 6.75 -14.859375 C 7.53125 -15.148438 8.394531 -15.296875 9.34375 -15.296875 C 10.882812 -15.296875 12.132812 -15 13.09375 -14.40625 C 14.0625 -13.8125 14.773438 -12.972656 15.234375 -11.890625 C 15.691406 -10.816406 15.921875 -9.554688 15.921875 -8.109375 L 15.921875 0 L 13.1875 0 L 13.1875 -8.078125 C 13.1875 -9.023438 13.078125 -9.859375 12.859375 -10.578125 C 12.648438 -11.304688 12.25 -11.867188 11.65625 -12.265625 C 11.070312 -12.671875 10.234375 -12.875 9.140625 -12.875 C 8.191406 -12.875 7.390625 -12.664062 6.734375 -12.25 C 6.078125 -11.832031 5.570312 -11.269531 5.21875 -10.5625 C 4.875 -9.851562 4.703125 -9.0625 4.703125 -8.1875 L 4.703125 0 L 2 0 L 2 -19.515625 L 4.703125 -19.515625 Z M 4.703125 -13.21875 "/></g></g></g><g fill="#ffffff" fill-opacity="1"><g transform="translate(268.853473, 230.191535)"><g><path d="M 17.703125 -7.53125 C 17.703125 -6.226562 17.472656 -5.085938 17.015625 -4.109375 C 16.554688 -3.128906 15.9375 -2.316406 15.15625 -1.671875 C 14.382812 -1.023438 13.507812 -0.535156 12.53125 -0.203125 C 11.550781 0.117188 10.550781 0.28125 9.53125 0.28125 C 8.53125 0.28125 7.546875 0.117188 6.578125 -0.203125 C 5.609375 -0.535156 4.738281 -1.023438 3.96875 -1.671875 C 3.195312 -2.316406 2.582031 -3.128906 2.125 -4.109375 C 1.675781 -5.085938 1.453125 -6.226562 1.453125 -7.53125 C 1.453125 -8.832031 1.675781 -9.96875 2.125 -10.9375 C 2.582031 -11.914062 3.203125 -12.726562 3.984375 -13.375 C 4.765625 -14.03125 5.640625 -14.519531 6.609375 -14.84375 C 7.585938 -15.164062 8.585938 -15.328125 9.609375 -15.328125 C 10.640625 -15.328125 11.628906 -15.164062 12.578125 -14.84375 C 13.535156 -14.519531 14.398438 -14.03125 15.171875 -13.375 C 15.941406 -12.726562 16.554688 -11.914062 17.015625 -10.9375 C 17.472656 -9.96875 17.703125 -8.832031 17.703125 -7.53125 Z M 4.1875 -7.53125 C 4.1875 -6.34375 4.445312 -5.351562 4.96875 -4.5625 C 5.5 -3.769531 6.175781 -3.171875 7 -2.765625 C 7.832031 -2.367188 8.695312 -2.171875 9.59375 -2.171875 C 10.5 -2.171875 11.359375 -2.367188 12.171875 -2.765625 C 12.992188 -3.171875 13.671875 -3.769531 14.203125 -4.5625 C 14.734375 -5.363281 15 -6.351562 15 -7.53125 C 15 -8.71875 14.738281 -9.707031 14.21875 -10.5 C 13.695312 -11.300781 13.019531 -11.898438 12.1875 -12.296875 C 11.363281 -12.703125 10.503906 -12.90625 9.609375 -12.90625 C 8.703125 -12.90625 7.832031 -12.703125 7 -12.296875 C 6.175781 -11.898438 5.5 -11.304688 4.96875 -10.515625 C 4.445312 -9.734375 4.1875 -8.738281 4.1875 -7.53125 Z M 4.1875 -7.53125 "/></g></g></g><g fill="#ffffff" fill-opacity="1"><g transform="translate(286.50142, 230.191535)"><g><path d="M 2.09375 0 L 2.09375 -19.515625 L 4.828125 -19.515625 L 4.828125 0 Z M 2.09375 0 "/></g></g></g><g fill="#ffffff" fill-opacity="1"><g transform="translate(291.714975, 230.191535)"><g><path d="M 17.75 0 L 15.03125 0 L 15.03125 -2.03125 C 14.675781 -1.488281 14.191406 -1.050781 13.578125 -0.71875 C 12.960938 -0.382812 12.3125 -0.144531 11.625 0 C 10.9375 0.144531 10.273438 0.226562 9.640625 0.25 C 7.898438 0.25 6.425781 -0.113281 5.21875 -0.84375 C 4.007812 -1.582031 3.09375 -2.550781 2.46875 -3.75 C 1.84375 -4.945312 1.53125 -6.234375 1.53125 -7.609375 C 1.53125 -8.960938 1.84375 -10.222656 2.46875 -11.390625 C 3.101562 -12.566406 4.023438 -13.515625 5.234375 -14.234375 C 6.441406 -14.960938 7.894531 -15.328125 9.59375 -15.328125 C 10.21875 -15.328125 10.863281 -15.265625 11.53125 -15.140625 C 12.207031 -15.023438 12.851562 -14.804688 13.46875 -14.484375 C 14.082031 -14.160156 14.609375 -13.691406 15.046875 -13.078125 L 15.03125 -15.078125 L 17.75 -15.078125 Z M 15.03125 -7.546875 C 15.03125 -8.753906 14.753906 -9.753906 14.203125 -10.546875 C 13.648438 -11.335938 12.957031 -11.929688 12.125 -12.328125 C 11.289062 -12.734375 10.445312 -12.9375 9.59375 -12.9375 C 8.488281 -12.9375 7.535156 -12.695312 6.734375 -12.21875 C 5.941406 -11.75 5.332031 -11.113281 4.90625 -10.3125 C 4.476562 -9.507812 4.265625 -8.609375 4.265625 -7.609375 C 4.265625 -6.660156 4.476562 -5.769531 4.90625 -4.9375 C 5.332031 -4.113281 5.941406 -3.445312 6.734375 -2.9375 C 7.523438 -2.425781 8.476562 -2.171875 9.59375 -2.171875 C 10.425781 -2.171875 11.257812 -2.363281 12.09375 -2.75 C 12.9375 -3.144531 13.632812 -3.742188 14.1875 -4.546875 C 14.75 -5.347656 15.03125 -6.347656 15.03125 -7.546875 Z M 15.03125 -7.546875 "/></g></g></g><g fill="#ffffff" fill-opacity="1"><g transform="translate(309.585948, 230.191535)"><g><path d="M 4.796875 -13.21875 C 5.335938 -13.976562 5.972656 -14.53125 6.703125 -14.875 C 7.441406 -15.21875 8.226562 -15.390625 9.0625 -15.390625 C 9.351562 -15.390625 9.644531 -15.367188 9.9375 -15.328125 C 10.238281 -15.296875 10.539062 -15.238281 10.84375 -15.15625 L 10.84375 -12.765625 C 10.394531 -12.898438 9.929688 -12.96875 9.453125 -12.96875 C 8.609375 -12.96875 7.832031 -12.753906 7.125 -12.328125 C 6.425781 -11.910156 5.863281 -11.34375 5.4375 -10.625 C 5.007812 -9.914062 4.796875 -9.097656 4.796875 -8.171875 L 4.796875 0 L 2.09375 0 L 2.09375 -15.046875 L 4.796875 -15.046875 Z M 4.796875 -13.21875 "/></g></g></g><g fill="#ffffff" fill-opacity="1"><g transform="translate(319.594826, 230.191535)"><g><path d="M 3.984375 -10.734375 C 3.984375 -10.265625 4.097656 -9.898438 4.328125 -9.640625 C 4.566406 -9.378906 4.867188 -9.191406 5.234375 -9.078125 C 5.609375 -8.972656 5.992188 -8.90625 6.390625 -8.875 C 6.796875 -8.851562 7.164062 -8.832031 7.5 -8.8125 C 8.207031 -8.75 8.914062 -8.640625 9.625 -8.484375 C 10.34375 -8.328125 11 -8.085938 11.59375 -7.765625 C 12.1875 -7.441406 12.664062 -6.992188 13.03125 -6.421875 C 13.394531 -5.859375 13.578125 -5.148438 13.578125 -4.296875 C 13.578125 -3.421875 13.382812 -2.6875 13 -2.09375 C 12.625 -1.507812 12.125 -1.046875 11.5 -0.703125 C 10.875 -0.359375 10.1875 -0.113281 9.4375 0.03125 C 8.695312 0.175781 7.976562 0.25 7.28125 0.25 C 6.238281 0.25 5.253906 0.09375 4.328125 -0.21875 C 3.410156 -0.539062 2.65625 -1.054688 2.0625 -1.765625 C 1.46875 -2.484375 1.132812 -3.4375 1.0625 -4.625 L 3.796875 -4.625 C 3.847656 -3.789062 4.21875 -3.164062 4.90625 -2.75 C 5.59375 -2.332031 6.398438 -2.125 7.328125 -2.125 C 7.796875 -2.125 8.296875 -2.179688 8.828125 -2.296875 C 9.367188 -2.421875 9.835938 -2.644531 10.234375 -2.96875 C 10.640625 -3.289062 10.84375 -3.75 10.84375 -4.34375 C 10.84375 -4.769531 10.71875 -5.109375 10.46875 -5.359375 C 10.21875 -5.617188 9.894531 -5.816406 9.5 -5.953125 C 9.113281 -6.085938 8.710938 -6.179688 8.296875 -6.234375 C 7.890625 -6.296875 7.519531 -6.335938 7.1875 -6.359375 C 6.519531 -6.390625 5.835938 -6.472656 5.140625 -6.609375 C 4.441406 -6.753906 3.800781 -6.984375 3.21875 -7.296875 C 2.632812 -7.617188 2.164062 -8.050781 1.8125 -8.59375 C 1.457031 -9.144531 1.28125 -9.835938 1.28125 -10.671875 C 1.28125 -11.847656 1.578125 -12.78125 2.171875 -13.46875 C 2.765625 -14.15625 3.523438 -14.644531 4.453125 -14.9375 C 5.390625 -15.238281 6.335938 -15.390625 7.296875 -15.390625 C 8.304688 -15.390625 9.238281 -15.238281 10.09375 -14.9375 C 10.945312 -14.644531 11.648438 -14.171875 12.203125 -13.515625 C 12.765625 -12.867188 13.070312 -12.015625 13.125 -10.953125 L 10.421875 -10.953125 C 10.347656 -11.617188 10 -12.113281 9.375 -12.4375 C 8.757812 -12.769531 8.039062 -12.9375 7.21875 -12.9375 C 6.382812 -12.9375 5.632812 -12.765625 4.96875 -12.421875 C 4.3125 -12.078125 3.984375 -11.515625 3.984375 -10.734375 Z M 3.984375 -10.734375 "/></g></g></g><g fill="#ffffff" fill-opacity="1"><g transform="translate(332.419559, 230.191535)"><g><path d="M 4.703125 -13.21875 C 5.285156 -14.03125 5.96875 -14.578125 6.75 -14.859375 C 7.53125 -15.148438 8.394531 -15.296875 9.34375 -15.296875 C 10.882812 -15.296875 12.132812 -15 13.09375 -14.40625 C 14.0625 -13.8125 14.773438 -12.972656 15.234375 -11.890625 C 15.691406 -10.816406 15.921875 -9.554688 15.921875 -8.109375 L 15.921875 0 L 13.1875 0 L 13.1875 -8.078125 C 13.1875 -9.023438 13.078125 -9.859375 12.859375 -10.578125 C 12.648438 -11.304688 12.25 -11.867188 11.65625 -12.265625 C 11.070312 -12.671875 10.234375 -12.875 9.140625 -12.875 C 8.191406 -12.875 7.390625 -12.664062 6.734375 -12.25 C 6.078125 -11.832031 5.570312 -11.269531 5.21875 -10.5625 C 4.875 -9.851562 4.703125 -9.0625 4.703125 -8.1875 L 4.703125 0 L 2 0 L 2 -19.515625 L 4.703125 -19.515625 Z M 4.703125 -13.21875 "/></g></g></g><g fill="#ffffff" fill-opacity="1"><g transform="translate(348.785044, 230.191535)"><g><path d="M 1.921875 -18.953125 C 1.921875 -19.472656 2.101562 -19.863281 2.46875 -20.125 C 2.832031 -20.382812 3.226562 -20.515625 3.65625 -20.515625 C 4.082031 -20.515625 4.46875 -20.390625 4.8125 -20.140625 C 5.15625 -19.890625 5.328125 -19.492188 5.328125 -18.953125 C 5.328125 -18.429688 5.148438 -18.035156 4.796875 -17.765625 C 4.441406 -17.492188 4.050781 -17.359375 3.625 -17.359375 C 3.21875 -17.359375 2.832031 -17.492188 2.46875 -17.765625 C 2.101562 -18.035156 1.921875 -18.429688 1.921875 -18.953125 Z M 2.265625 -15.25 L 2.265625 0 L 4.984375 0 L 4.984375 -15.25 Z M 2.265625 -15.25 "/></g></g></g><g fill="#ffffff" fill-opacity="1"><g transform="translate(354.584073, 230.191535)"><g><path d="M 2.0625 4.40625 L 2.0625 -15.078125 L 4.796875 -15.078125 L 4.796875 -13.078125 C 5.335938 -13.890625 6.082031 -14.46875 7.03125 -14.8125 C 7.988281 -15.15625 8.941406 -15.328125 9.890625 -15.328125 C 11.640625 -15.328125 13.082031 -14.957031 14.21875 -14.21875 C 15.363281 -13.488281 16.21875 -12.53125 16.78125 -11.34375 C 17.351562 -10.15625 17.640625 -8.875 17.640625 -7.5 C 17.640625 -6.144531 17.347656 -4.875 16.765625 -3.6875 C 16.179688 -2.507812 15.3125 -1.554688 14.15625 -0.828125 C 13.007812 -0.109375 11.582031 0.25 9.875 0.25 C 8.9375 0.25 8.019531 0.101562 7.125 -0.1875 C 6.238281 -0.488281 5.460938 -1.085938 4.796875 -1.984375 L 4.796875 4.40625 Z M 4.796875 -7.546875 C 4.796875 -6.359375 5.039062 -5.363281 5.53125 -4.5625 C 6.019531 -3.769531 6.65625 -3.171875 7.4375 -2.765625 C 8.21875 -2.367188 9.03125 -2.171875 9.875 -2.171875 C 10.988281 -2.171875 11.921875 -2.429688 12.671875 -2.953125 C 13.421875 -3.472656 13.976562 -4.144531 14.34375 -4.96875 C 14.71875 -5.800781 14.90625 -6.660156 14.90625 -7.546875 C 14.90625 -8.460938 14.71875 -9.328125 14.34375 -10.140625 C 13.976562 -10.960938 13.421875 -11.632812 12.671875 -12.15625 C 11.929688 -12.675781 11.003906 -12.9375 9.890625 -12.9375 C 9.054688 -12.9375 8.25 -12.734375 7.46875 -12.328125 C 6.6875 -11.929688 6.046875 -11.335938 5.546875 -10.546875 C 5.046875 -9.753906 4.796875 -8.753906 4.796875 -7.546875 Z M 4.796875 -7.546875 "/></g></g></g><g fill="#ffffff" fill-opacity="1"><g transform="translate(258.573035, 247.167367)"><g><path d="M 5.453125 -2.4375 L 1.90625 -2.4375 C 1.945312 -1.957031 2.082031 -1.609375 2.3125 -1.390625 C 2.539062 -1.171875 2.859375 -1.0625 3.265625 -1.0625 C 3.585938 -1.0625 3.84375 -1.117188 4.03125 -1.234375 C 4.226562 -1.359375 4.390625 -1.539062 4.515625 -1.78125 L 4.625 -1.78125 L 5.53125 -1.1875 C 5.351562 -0.800781 5.082031 -0.488281 4.71875 -0.25 C 4.351562 -0.0078125 3.867188 0.109375 3.265625 0.109375 C 2.691406 0.109375 2.195312 0 1.78125 -0.21875 C 1.375 -0.4375 1.054688 -0.757812 0.828125 -1.1875 C 0.609375 -1.613281 0.5 -2.132812 0.5 -2.75 C 0.5 -3.375 0.613281 -3.898438 0.84375 -4.328125 C 1.082031 -4.765625 1.398438 -5.085938 1.796875 -5.296875 C 2.203125 -5.503906 2.660156 -5.609375 3.171875 -5.609375 C 3.953125 -5.609375 4.546875 -5.398438 4.953125 -4.984375 C 5.367188 -4.578125 5.578125 -3.972656 5.578125 -3.171875 C 5.578125 -2.890625 5.566406 -2.664062 5.546875 -2.5 Z M 4.25 -3.34375 C 4.238281 -3.757812 4.140625 -4.0625 3.953125 -4.25 C 3.773438 -4.445312 3.515625 -4.546875 3.171875 -4.546875 C 2.472656 -4.546875 2.0625 -4.144531 1.9375 -3.34375 Z M 4.25 -3.34375 "/></g></g><g transform="translate(264.568042, 247.167367)"><g><path d="M 0.796875 0 L 0.796875 -5.515625 L 2.125 -5.515625 L 2.125 -4.765625 L 2.234375 -4.75 C 2.410156 -5.050781 2.617188 -5.269531 2.859375 -5.40625 C 3.097656 -5.539062 3.40625 -5.609375 3.78125 -5.609375 C 4.195312 -5.609375 4.53125 -5.523438 4.78125 -5.359375 C 5.039062 -5.203125 5.226562 -4.960938 5.34375 -4.640625 L 5.453125 -4.640625 C 5.617188 -4.972656 5.835938 -5.21875 6.109375 -5.375 C 6.378906 -5.53125 6.710938 -5.609375 7.109375 -5.609375 C 8.253906 -5.609375 8.828125 -4.972656 8.828125 -3.703125 L 8.828125 0 L 7.4375 0 L 7.4375 -3.53125 C 7.4375 -3.851562 7.375 -4.085938 7.25 -4.234375 C 7.125 -4.378906 6.921875 -4.453125 6.640625 -4.453125 C 5.878906 -4.453125 5.5 -3.941406 5.5 -2.921875 L 5.5 0 L 4.125 0 L 4.125 -3.53125 C 4.125 -3.851562 4.054688 -4.085938 3.921875 -4.234375 C 3.796875 -4.378906 3.59375 -4.453125 3.3125 -4.453125 C 2.957031 -4.453125 2.675781 -4.332031 2.46875 -4.09375 C 2.269531 -3.851562 2.171875 -3.472656 2.171875 -2.953125 L 2.171875 0 Z M 0.796875 0 "/></g></g><g transform="translate(274.108053, 247.167367)"><g><path d="M 0.796875 2.234375 L 0.796875 -5.515625 L 2.171875 -5.515625 L 2.171875 -4.796875 L 2.28125 -4.765625 C 2.445312 -5.046875 2.664062 -5.253906 2.9375 -5.390625 C 3.207031 -5.535156 3.523438 -5.609375 3.890625 -5.609375 C 4.335938 -5.609375 4.726562 -5.503906 5.0625 -5.296875 C 5.394531 -5.085938 5.648438 -4.769531 5.828125 -4.34375 C 6.015625 -3.914062 6.109375 -3.382812 6.109375 -2.75 C 6.109375 -2.125 6.007812 -1.597656 5.8125 -1.171875 C 5.625 -0.742188 5.351562 -0.421875 5 -0.203125 C 4.65625 0.00390625 4.257812 0.109375 3.8125 0.109375 C 3.46875 0.109375 3.171875 0.0507812 2.921875 -0.0625 C 2.671875 -0.175781 2.457031 -0.359375 2.28125 -0.609375 L 2.171875 -0.578125 L 2.171875 2.234375 Z M 3.421875 -1.0625 C 3.835938 -1.0625 4.148438 -1.195312 4.359375 -1.46875 C 4.578125 -1.738281 4.6875 -2.164062 4.6875 -2.75 C 4.6875 -3.332031 4.578125 -3.757812 4.359375 -4.03125 C 4.148438 -4.300781 3.835938 -4.4375 3.421875 -4.4375 C 3.035156 -4.4375 2.726562 -4.296875 2.5 -4.015625 C 2.269531 -3.742188 2.15625 -3.320312 2.15625 -2.75 C 2.15625 -2.1875 2.269531 -1.765625 2.5 -1.484375 C 2.726562 -1.203125 3.035156 -1.0625 3.421875 -1.0625 Z M 3.421875 -1.0625 "/></g></g><g transform="translate(280.713061, 247.167367)"><g><path d="M 3.203125 0.109375 C 2.660156 0.109375 2.1875 0 1.78125 -0.21875 C 1.375 -0.445312 1.054688 -0.773438 0.828125 -1.203125 C 0.609375 -1.628906 0.5 -2.144531 0.5 -2.75 C 0.5 -3.351562 0.609375 -3.867188 0.828125 -4.296875 C 1.054688 -4.734375 1.375 -5.0625 1.78125 -5.28125 C 2.1875 -5.5 2.660156 -5.609375 3.203125 -5.609375 C 3.742188 -5.609375 4.21875 -5.5 4.625 -5.28125 C 5.03125 -5.0625 5.347656 -4.734375 5.578125 -4.296875 C 5.804688 -3.867188 5.921875 -3.351562 5.921875 -2.75 C 5.921875 -2.144531 5.804688 -1.628906 5.578125 -1.203125 C 5.347656 -0.773438 5.03125 -0.445312 4.625 -0.21875 C 4.21875 0 3.742188 0.109375 3.203125 0.109375 Z M 3.203125 -1.0625 C 4.054688 -1.0625 4.484375 -1.625 4.484375 -2.75 C 4.484375 -3.332031 4.375 -3.757812 4.15625 -4.03125 C 3.9375 -4.300781 3.617188 -4.4375 3.203125 -4.4375 C 2.347656 -4.4375 1.921875 -3.875 1.921875 -2.75 C 1.921875 -1.625 2.347656 -1.0625 3.203125 -1.0625 Z M 3.203125 -1.0625 "/></g></g><g transform="translate(287.123069, 247.167367)"><g><path d="M 2.953125 0 L 1.515625 0 L 0.203125 -5.515625 L 1.484375 -5.515625 L 2.296875 -1.78125 L 2.40625 -1.78125 L 3.453125 -5.515625 L 4.640625 -5.515625 L 5.734375 -1.78125 L 5.84375 -1.78125 L 6.609375 -5.515625 L 7.859375 -5.515625 L 6.578125 0 L 5.125 0 L 4.078125 -3.75 L 3.96875 -3.75 Z M 2.953125 0 "/></g></g><g transform="translate(295.188079, 247.167367)"><g><path d="M 5.453125 -2.4375 L 1.90625 -2.4375 C 1.945312 -1.957031 2.082031 -1.609375 2.3125 -1.390625 C 2.539062 -1.171875 2.859375 -1.0625 3.265625 -1.0625 C 3.585938 -1.0625 3.84375 -1.117188 4.03125 -1.234375 C 4.226562 -1.359375 4.390625 -1.539062 4.515625 -1.78125 L 4.625 -1.78125 L 5.53125 -1.1875 C 5.351562 -0.800781 5.082031 -0.488281 4.71875 -0.25 C 4.351562 -0.0078125 3.867188 0.109375 3.265625 0.109375 C 2.691406 0.109375 2.195312 0 1.78125 -0.21875 C 1.375 -0.4375 1.054688 -0.757812 0.828125 -1.1875 C 0.609375 -1.613281 0.5 -2.132812 0.5 -2.75 C 0.5 -3.375 0.613281 -3.898438 0.84375 -4.328125 C 1.082031 -4.765625 1.398438 -5.085938 1.796875 -5.296875 C 2.203125 -5.503906 2.660156 -5.609375 3.171875 -5.609375 C 3.953125 -5.609375 4.546875 -5.398438 4.953125 -4.984375 C 5.367188 -4.578125 5.578125 -3.972656 5.578125 -3.171875 C 5.578125 -2.890625 5.566406 -2.664062 5.546875 -2.5 Z M 4.25 -3.34375 C 4.238281 -3.757812 4.140625 -4.0625 3.953125 -4.25 C 3.773438 -4.445312 3.515625 -4.546875 3.171875 -4.546875 C 2.472656 -4.546875 2.0625 -4.144531 1.9375 -3.34375 Z M 4.25 -3.34375 "/></g></g><g transform="translate(301.183086, 247.167367)"><g><path d="M 0.796875 0 L 0.796875 -5.515625 L 2.140625 -5.515625 L 2.140625 -4.6875 L 2.25 -4.671875 C 2.375 -4.972656 2.546875 -5.195312 2.765625 -5.34375 C 2.984375 -5.488281 3.25 -5.5625 3.5625 -5.5625 C 3.875 -5.5625 4.109375 -5.507812 4.265625 -5.40625 L 4.03125 -4.203125 L 3.9375 -4.1875 C 3.84375 -4.226562 3.753906 -4.253906 3.671875 -4.265625 C 3.585938 -4.285156 3.488281 -4.296875 3.375 -4.296875 C 2.976562 -4.296875 2.675781 -4.160156 2.46875 -3.890625 C 2.269531 -3.617188 2.171875 -3.179688 2.171875 -2.578125 L 2.171875 0 Z M 0.796875 0 "/></g></g><g transform="translate(305.508091, 247.167367)"><g><path d="M 1.484375 -6.171875 C 1.234375 -6.171875 1.03125 -6.242188 0.875 -6.390625 C 0.71875 -6.546875 0.640625 -6.742188 0.640625 -6.984375 C 0.640625 -7.222656 0.71875 -7.414062 0.875 -7.5625 C 1.03125 -7.71875 1.234375 -7.796875 1.484375 -7.796875 C 1.648438 -7.796875 1.796875 -7.757812 1.921875 -7.6875 C 2.054688 -7.613281 2.160156 -7.515625 2.234375 -7.390625 C 2.304688 -7.273438 2.34375 -7.140625 2.34375 -6.984375 C 2.34375 -6.828125 2.304688 -6.6875 2.234375 -6.5625 C 2.160156 -6.4375 2.054688 -6.335938 1.921875 -6.265625 C 1.796875 -6.203125 1.648438 -6.171875 1.484375 -6.171875 Z M 0.796875 0 L 0.796875 -5.515625 L 2.171875 -5.515625 L 2.171875 0 Z M 0.796875 0 "/></g></g><g transform="translate(308.478095, 247.167367)"><g><path d="M 0.796875 0 L 0.796875 -5.515625 L 2.125 -5.515625 L 2.125 -4.703125 L 2.234375 -4.671875 C 2.578125 -5.296875 3.128906 -5.609375 3.890625 -5.609375 C 4.535156 -5.609375 5.003906 -5.4375 5.296875 -5.09375 C 5.597656 -4.75 5.75 -4.242188 5.75 -3.578125 L 5.75 0 L 4.359375 0 L 4.359375 -3.40625 C 4.359375 -3.78125 4.285156 -4.046875 4.140625 -4.203125 C 3.992188 -4.367188 3.757812 -4.453125 3.4375 -4.453125 C 3.039062 -4.453125 2.726562 -4.320312 2.5 -4.0625 C 2.28125 -3.800781 2.171875 -3.398438 2.171875 -2.859375 L 2.171875 0 Z M 0.796875 0 "/></g></g><g transform="translate(314.938102, 247.167367)"><g><path d="M 2.859375 2.34375 C 1.953125 2.34375 1.28125 2.207031 0.84375 1.9375 C 0.40625 1.675781 0.1875 1.304688 0.1875 0.828125 C 0.1875 0.535156 0.28125 0.296875 0.46875 0.109375 C 0.65625 -0.078125 0.921875 -0.203125 1.265625 -0.265625 L 1.265625 -0.359375 C 1.078125 -0.472656 0.941406 -0.597656 0.859375 -0.734375 C 0.785156 -0.878906 0.75 -1.039062 0.75 -1.21875 C 0.75 -1.664062 1.035156 -1.96875 1.609375 -2.125 L 1.609375 -2.21875 C 1.316406 -2.394531 1.09375 -2.609375 0.9375 -2.859375 C 0.789062 -3.109375 0.71875 -3.410156 0.71875 -3.765625 C 0.71875 -4.128906 0.800781 -4.453125 0.96875 -4.734375 C 1.132812 -5.015625 1.378906 -5.226562 1.703125 -5.375 C 2.023438 -5.53125 2.414062 -5.609375 2.875 -5.609375 C 3.332031 -5.609375 3.695312 -5.53125 3.96875 -5.375 C 4.144531 -5.625 4.242188 -5.910156 4.265625 -6.234375 L 4.375 -6.296875 L 5.359375 -6.046875 C 5.335938 -5.785156 5.265625 -5.566406 5.140625 -5.390625 C 5.015625 -5.210938 4.820312 -5.050781 4.5625 -4.90625 L 4.5625 -4.796875 C 4.875 -4.523438 5.03125 -4.144531 5.03125 -3.65625 C 5.03125 -3.3125 4.941406 -3.003906 4.765625 -2.734375 C 4.597656 -2.472656 4.351562 -2.265625 4.03125 -2.109375 C 3.707031 -1.953125 3.320312 -1.875 2.875 -1.875 L 2.65625 -1.875 C 2.53125 -1.882812 2.441406 -1.890625 2.390625 -1.890625 C 2.253906 -1.890625 2.148438 -1.851562 2.078125 -1.78125 C 2.015625 -1.707031 1.984375 -1.617188 1.984375 -1.515625 C 1.984375 -1.398438 2.03125 -1.3125 2.125 -1.25 C 2.21875 -1.1875 2.351562 -1.148438 2.53125 -1.140625 L 3.765625 -1.09375 C 4.984375 -1.0625 5.59375 -0.535156 5.59375 0.484375 C 5.59375 0.835938 5.5 1.148438 5.3125 1.421875 C 5.132812 1.703125 4.84375 1.925781 4.4375 2.09375 C 4.03125 2.257812 3.503906 2.34375 2.859375 2.34375 Z M 2.875 -2.84375 C 3.132812 -2.84375 3.335938 -2.921875 3.484375 -3.078125 C 3.640625 -3.234375 3.71875 -3.457031 3.71875 -3.75 C 3.71875 -4.03125 3.640625 -4.25 3.484375 -4.40625 C 3.335938 -4.5625 3.132812 -4.640625 2.875 -4.640625 C 2.601562 -4.640625 2.394531 -4.5625 2.25 -4.40625 C 2.101562 -4.25 2.03125 -4.03125 2.03125 -3.75 C 2.03125 -3.445312 2.101562 -3.21875 2.25 -3.0625 C 2.394531 -2.914062 2.601562 -2.84375 2.875 -2.84375 Z M 2.859375 1.328125 C 3.328125 1.328125 3.671875 1.257812 3.890625 1.125 C 4.109375 1 4.21875 0.828125 4.21875 0.609375 C 4.21875 0.441406 4.160156 0.316406 4.046875 0.234375 C 3.941406 0.148438 3.765625 0.101562 3.515625 0.09375 L 2.4375 0.046875 C 2.394531 0.046875 2.359375 0.046875 2.328125 0.046875 C 2.296875 0.046875 2.265625 0.046875 2.234375 0.046875 C 2.003906 0.046875 1.828125 0.09375 1.703125 0.1875 C 1.585938 0.289062 1.53125 0.429688 1.53125 0.609375 C 1.53125 0.835938 1.640625 1.015625 1.859375 1.140625 C 2.078125 1.265625 2.410156 1.328125 2.859375 1.328125 Z M 2.859375 1.328125 "/></g></g><g transform="translate(320.673109, 247.167367)"><g/></g><g transform="translate(323.088112, 247.167367)"><g><path d="M 5.453125 -2.4375 L 1.90625 -2.4375 C 1.945312 -1.957031 2.082031 -1.609375 2.3125 -1.390625 C 2.539062 -1.171875 2.859375 -1.0625 3.265625 -1.0625 C 3.585938 -1.0625 3.84375 -1.117188 4.03125 -1.234375 C 4.226562 -1.359375 4.390625 -1.539062 4.515625 -1.78125 L 4.625 -1.78125 L 5.53125 -1.1875 C 5.351562 -0.800781 5.082031 -0.488281 4.71875 -0.25 C 4.351562 -0.0078125 3.867188 0.109375 3.265625 0.109375 C 2.691406 0.109375 2.195312 0 1.78125 -0.21875 C 1.375 -0.4375 1.054688 -0.757812 0.828125 -1.1875 C 0.609375 -1.613281 0.5 -2.132812 0.5 -2.75 C 0.5 -3.375 0.613281 -3.898438 0.84375 -4.328125 C 1.082031 -4.765625 1.398438 -5.085938 1.796875 -5.296875 C 2.203125 -5.503906 2.660156 -5.609375 3.171875 -5.609375 C 3.953125 -5.609375 4.546875 -5.398438 4.953125 -4.984375 C 5.367188 -4.578125 5.578125 -3.972656 5.578125 -3.171875 C 5.578125 -2.890625 5.566406 -2.664062 5.546875 -2.5 Z M 4.25 -3.34375 C 4.238281 -3.757812 4.140625 -4.0625 3.953125 -4.25 C 3.773438 -4.445312 3.515625 -4.546875 3.171875 -4.546875 C 2.472656 -4.546875 2.0625 -4.144531 1.9375 -3.34375 Z M 4.25 -3.34375 "/></g></g><g transform="translate(329.083119, 247.167367)"><g><path d="M 2.71875 0.109375 C 2.28125 0.109375 1.894531 0.00390625 1.5625 -0.203125 C 1.226562 -0.421875 0.96875 -0.742188 0.78125 -1.171875 C 0.59375 -1.597656 0.5 -2.125 0.5 -2.75 C 0.5 -3.382812 0.59375 -3.914062 0.78125 -4.34375 C 0.976562 -4.769531 1.25 -5.085938 1.59375 -5.296875 C 1.9375 -5.503906 2.335938 -5.609375 2.796875 -5.609375 C 3.140625 -5.609375 3.4375 -5.550781 3.6875 -5.4375 C 3.9375 -5.320312 4.148438 -5.140625 4.328125 -4.890625 L 4.421875 -4.90625 L 4.421875 -7.71875 L 5.8125 -7.71875 L 5.8125 0 L 4.421875 0 L 4.421875 -0.71875 L 4.328125 -0.734375 C 4.171875 -0.472656 3.957031 -0.265625 3.6875 -0.109375 C 3.425781 0.0351562 3.101562 0.109375 2.71875 0.109375 Z M 3.171875 -1.0625 C 3.566406 -1.0625 3.875 -1.203125 4.09375 -1.484375 C 4.320312 -1.765625 4.4375 -2.1875 4.4375 -2.75 C 4.4375 -3.320312 4.320312 -3.742188 4.09375 -4.015625 C 3.875 -4.296875 3.566406 -4.4375 3.171875 -4.4375 C 2.765625 -4.4375 2.453125 -4.300781 2.234375 -4.03125 C 2.023438 -3.757812 1.921875 -3.332031 1.921875 -2.75 C 1.921875 -2.175781 2.023438 -1.75 2.234375 -1.46875 C 2.453125 -1.195312 2.765625 -1.0625 3.171875 -1.0625 Z M 3.171875 -1.0625 "/></g></g><g transform="translate(335.693127, 247.167367)"><g><path d="M 2.53125 0.109375 C 1.90625 0.109375 1.441406 -0.0546875 1.140625 -0.390625 C 0.847656 -0.734375 0.703125 -1.222656 0.703125 -1.859375 L 0.703125 -5.515625 L 2.09375 -5.515625 L 2.09375 -2.03125 C 2.09375 -1.695312 2.164062 -1.453125 2.3125 -1.296875 C 2.457031 -1.140625 2.679688 -1.0625 2.984375 -1.0625 C 3.367188 -1.0625 3.664062 -1.1875 3.875 -1.4375 C 4.09375 -1.6875 4.203125 -2.082031 4.203125 -2.625 L 4.203125 -5.515625 L 5.578125 -5.515625 L 5.578125 0 L 4.25 0 L 4.25 -0.8125 L 4.140625 -0.828125 C 3.972656 -0.515625 3.757812 -0.28125 3.5 -0.125 C 3.25 0.03125 2.925781 0.109375 2.53125 0.109375 Z M 2.53125 0.109375 "/></g></g><g transform="translate(342.073135, 247.167367)"><g><path d="M 3.21875 0.109375 C 2.675781 0.109375 2.203125 0 1.796875 -0.21875 C 1.390625 -0.445312 1.070312 -0.773438 0.84375 -1.203125 C 0.613281 -1.628906 0.5 -2.144531 0.5 -2.75 C 0.5 -3.351562 0.613281 -3.867188 0.84375 -4.296875 C 1.070312 -4.734375 1.390625 -5.0625 1.796875 -5.28125 C 2.203125 -5.5 2.664062 -5.609375 3.1875 -5.609375 C 4.351562 -5.609375 5.097656 -5.191406 5.421875 -4.359375 L 4.46875 -3.671875 L 4.375 -3.671875 C 4.257812 -3.929688 4.109375 -4.125 3.921875 -4.25 C 3.742188 -4.375 3.5 -4.4375 3.1875 -4.4375 C 2.789062 -4.4375 2.476562 -4.296875 2.25 -4.015625 C 2.03125 -3.742188 1.921875 -3.320312 1.921875 -2.75 C 1.921875 -2.1875 2.03125 -1.765625 2.25 -1.484375 C 2.476562 -1.203125 2.800781 -1.0625 3.21875 -1.0625 C 3.507812 -1.0625 3.757812 -1.140625 3.96875 -1.296875 C 4.175781 -1.460938 4.328125 -1.703125 4.421875 -2.015625 L 4.53125 -2.015625 L 5.515625 -1.484375 C 5.367188 -1.015625 5.109375 -0.628906 4.734375 -0.328125 C 4.359375 -0.0351562 3.851562 0.109375 3.21875 0.109375 Z M 3.21875 0.109375 "/></g></g><g transform="translate(347.758142, 247.167367)"><g><path d="M 2.15625 0.109375 C 1.800781 0.109375 1.492188 0.046875 1.234375 -0.078125 C 0.972656 -0.210938 0.769531 -0.40625 0.625 -0.65625 C 0.488281 -0.914062 0.421875 -1.21875 0.421875 -1.5625 C 0.421875 -1.894531 0.488281 -2.171875 0.625 -2.390625 C 0.769531 -2.609375 0.988281 -2.785156 1.28125 -2.921875 C 1.570312 -3.066406 1.953125 -3.179688 2.421875 -3.265625 C 2.753906 -3.316406 3.003906 -3.375 3.171875 -3.4375 C 3.347656 -3.5 3.46875 -3.566406 3.53125 -3.640625 C 3.59375 -3.722656 3.625 -3.828125 3.625 -3.953125 C 3.625 -4.128906 3.5625 -4.265625 3.4375 -4.359375 C 3.3125 -4.453125 3.101562 -4.5 2.8125 -4.5 C 2.507812 -4.5 2.21875 -4.429688 1.9375 -4.296875 C 1.664062 -4.160156 1.425781 -3.984375 1.21875 -3.765625 L 1.125 -3.765625 L 0.546875 -4.625 C 0.828125 -4.9375 1.164062 -5.175781 1.5625 -5.34375 C 1.96875 -5.519531 2.410156 -5.609375 2.890625 -5.609375 C 3.617188 -5.609375 4.144531 -5.453125 4.46875 -5.140625 C 4.800781 -4.835938 4.96875 -4.398438 4.96875 -3.828125 L 4.96875 -1.4375 C 4.96875 -1.1875 5.070312 -1.0625 5.28125 -1.0625 C 5.363281 -1.0625 5.445312 -1.078125 5.53125 -1.109375 L 5.609375 -1.09375 L 5.703125 -0.125 C 5.628906 -0.0820312 5.519531 -0.0390625 5.375 0 C 5.238281 0.03125 5.09375 0.046875 4.9375 0.046875 C 4.601562 0.046875 4.34375 -0.015625 4.15625 -0.140625 C 3.976562 -0.273438 3.847656 -0.476562 3.765625 -0.75 L 3.65625 -0.75 C 3.382812 -0.175781 2.882812 0.109375 2.15625 0.109375 Z M 2.59375 -0.921875 C 2.90625 -0.921875 3.15625 -1.03125 3.34375 -1.25 C 3.539062 -1.46875 3.640625 -1.769531 3.640625 -2.15625 L 3.640625 -2.703125 L 3.546875 -2.734375 C 3.460938 -2.660156 3.351562 -2.601562 3.21875 -2.5625 C 3.082031 -2.519531 2.890625 -2.472656 2.640625 -2.421875 C 2.335938 -2.378906 2.117188 -2.296875 1.984375 -2.171875 C 1.859375 -2.046875 1.796875 -1.875 1.796875 -1.65625 C 1.796875 -1.414062 1.863281 -1.234375 2 -1.109375 C 2.144531 -0.984375 2.34375 -0.921875 2.59375 -0.921875 Z M 2.59375 -0.921875 "/></g></g><g transform="translate(353.573149, 247.167367)"><g><path d="M 3.796875 -1.3125 L 4.15625 -0.296875 C 4.007812 -0.171875 3.820312 -0.0703125 3.59375 0 C 3.375 0.0703125 3.117188 0.109375 2.828125 0.109375 C 2.234375 0.109375 1.78125 -0.0507812 1.46875 -0.375 C 1.15625 -0.707031 1 -1.179688 1 -1.796875 L 1 -4.421875 L 0.171875 -4.421875 L 0.171875 -5.515625 L 1 -5.515625 L 1 -6.59375 L 2.390625 -6.8125 L 2.390625 -5.515625 L 3.953125 -5.515625 L 3.953125 -4.421875 L 2.390625 -4.421875 L 2.390625 -1.90625 C 2.390625 -1.625 2.445312 -1.421875 2.5625 -1.296875 C 2.675781 -1.171875 2.835938 -1.109375 3.046875 -1.109375 C 3.296875 -1.109375 3.515625 -1.175781 3.703125 -1.3125 Z M 3.796875 -1.3125 "/></g></g><g transform="translate(357.858154, 247.167367)"><g><path d="M 1.484375 -6.171875 C 1.234375 -6.171875 1.03125 -6.242188 0.875 -6.390625 C 0.71875 -6.546875 0.640625 -6.742188 0.640625 -6.984375 C 0.640625 -7.222656 0.71875 -7.414062 0.875 -7.5625 C 1.03125 -7.71875 1.234375 -7.796875 1.484375 -7.796875 C 1.648438 -7.796875 1.796875 -7.757812 1.921875 -7.6875 C 2.054688 -7.613281 2.160156 -7.515625 2.234375 -7.390625 C 2.304688 -7.273438 2.34375 -7.140625 2.34375 -6.984375 C 2.34375 -6.828125 2.304688 -6.6875 2.234375 -6.5625 C 2.160156 -6.4375 2.054688 -6.335938 1.921875 -6.265625 C 1.796875 -6.203125 1.648438 -6.171875 1.484375 -6.171875 Z M 0.796875 0 L 0.796875 -5.515625 L 2.171875 -5.515625 L 2.171875 0 Z M 0.796875 0 "/></g></g><g transform="translate(360.828157, 247.167367)"><g><path d="M 3.203125 0.109375 C 2.660156 0.109375 2.1875 0 1.78125 -0.21875 C 1.375 -0.445312 1.054688 -0.773438 0.828125 -1.203125 C 0.609375 -1.628906 0.5 -2.144531 0.5 -2.75 C 0.5 -3.351562 0.609375 -3.867188 0.828125 -4.296875 C 1.054688 -4.734375 1.375 -5.0625 1.78125 -5.28125 C 2.1875 -5.5 2.660156 -5.609375 3.203125 -5.609375 C 3.742188 -5.609375 4.21875 -5.5 4.625 -5.28125 C 5.03125 -5.0625 5.347656 -4.734375 5.578125 -4.296875 C 5.804688 -3.867188 5.921875 -3.351562 5.921875 -2.75 C 5.921875 -2.144531 5.804688 -1.628906 5.578125 -1.203125 C 5.347656 -0.773438 5.03125 -0.445312 4.625 -0.21875 C 4.21875 0 3.742188 0.109375 3.203125 0.109375 Z M 3.203125 -1.0625 C 4.054688 -1.0625 4.484375 -1.625 4.484375 -2.75 C 4.484375 -3.332031 4.375 -3.757812 4.15625 -4.03125 C 3.9375 -4.300781 3.617188 -4.4375 3.203125 -4.4375 C 2.347656 -4.4375 1.921875 -3.875 1.921875 -2.75 C 1.921875 -1.625 2.347656 -1.0625 3.203125 -1.0625 Z M 3.203125 -1.0625 "/></g></g><g transform="translate(367.238165, 247.167367)"><g><path d="M 0.796875 0 L 0.796875 -5.515625 L 2.125 -5.515625 L 2.125 -4.703125 L 2.234375 -4.671875 C 2.578125 -5.296875 3.128906 -5.609375 3.890625 -5.609375 C 4.535156 -5.609375 5.003906 -5.4375 5.296875 -5.09375 C 5.597656 -4.75 5.75 -4.242188 5.75 -3.578125 L 5.75 0 L 4.359375 0 L 4.359375 -3.40625 C 4.359375 -3.78125 4.285156 -4.046875 4.140625 -4.203125 C 3.992188 -4.367188 3.757812 -4.453125 3.4375 -4.453125 C 3.039062 -4.453125 2.726562 -4.320312 2.5 -4.0625 C 2.28125 -3.800781 2.171875 -3.398438 2.171875 -2.859375 L 2.171875 0 Z M 0.796875 0 "/></g></g></g></svg>